<?xml version="1.0" standalone="no"?>
<!DOCTYPE svg PUBLIC "-//W3C//DTD SVG 1.1//EN" "http://www.w3.org/Graphics/SVG/1.1/DTD/svg11.dtd" >
<svg xmlns="http://www.w3.org/2000/svg" xmlns:xlink="http://www.w3.org/1999/xlink" version="1.1">
<metadata>
Created by FontForge 20190801 at Sat Jun 23 08:11:47 2018
 By Jimmy Wärting
Copyright (c) 2015 by Reza Bakhtiarifard / Bakh. All rights reserved.
</metadata>
<defs>
<font id="YekanBakh-Thin" horiz-adv-x="0" >
  <font-face 
    font-family="Yekan Bakh Thin"
    font-weight="200"
    font-stretch="normal"
    units-per-em="1000"
    panose-1="1 0 5 4 0 0 0 2 0 4"
    ascent="800"
    descent="-200"
    x-height="457"
    cap-height="643"
    bbox="-190 -484 1317 929"
    underline-thickness="25"
    underline-position="-130"
    unicode-range="U+000A-FFFC"
  />
<missing-glyph horiz-adv-x="530" 
d="M462 0h-396v610h396v-610zM103 572v-533h323v533h-323z" />
    <glyph glyph-name="la" unicode="&#xfedf;&#xfe8e;" horiz-adv-x="486" arabic-form="isolated" 
d="M73 620h38v-581h165q44 0 71.5 24t27.5 63v494h38v-490q0 -30 -10.5 -54t-28.5 -41t-42.5 -26t-53.5 -9h-205v620z" />
    <glyph glyph-name="la.fina" unicode="&#xfee0;&#xfe8e;" horiz-adv-x="520" arabic-form="final" 
d="M73 0v620h38v-581h164q48 0 74 24.5t26 64.5v492h38v-492q0 -26 8.5 -43t22 -27t30.5 -14.5t34 -4.5h12q12 0 16.5 -5.5t4.5 -13.5q0 -10 -4.5 -15t-16.5 -5h-12q-38 0 -69 14t-48 53q-21 -39 -52 -53t-64 -14h-202z" />
    <glyph glyph-name="la.aa" unicode="&#xfedf;&#xfe82;" horiz-adv-x="486" arabic-form="isolated" 
d="M73 492h38v-453h165q44 0 71.5 24t27.5 63v494h38v-490q0 -30 -10.5 -54t-28.5 -41t-42.5 -26t-53.5 -9h-205v492zM53 606q-17 0 -29.5 -3.5t-21.5 -23.5l-20 -45l-27 12l23 50q7 17 14.5 26.5t16.5 14t19.5 5.5t24.5 1h170l-1 -37h-169z" />
    <glyph glyph-name="la.aa.fina" unicode="&#xfee0;&#xfe82;" horiz-adv-x="520" arabic-form="final" 
d="M73 0v492h38v-453h164q48 0 74 24.5t26 64.5v492h38v-492q0 -26 8.5 -43t22 -27t30.5 -14.5t34 -4.5h12q12 0 16.5 -5.5t4.5 -13.5q0 -10 -4.5 -15t-16.5 -5h-12q-38 0 -69 14t-48 53q-21 -39 -52 -53t-64 -14h-202zM55 606q-17 0 -29.5 -3.5t-21.5 -23.5l-20 -45l-27 12
l23 50q7 17 14.5 26.5t16.5 14t19.5 5.5t24.5 1h170l-1 -37h-169z" />
    <glyph glyph-name="la.thmz" unicode="&#xfedf;&#xfe84;" horiz-adv-x="486" arabic-form="isolated" 
d="M73 452h38v-413h165q44 0 71.5 24t27.5 63v494h38v-490q0 -30 -10.5 -54t-28.5 -41t-42.5 -26t-53.5 -9h-205v452zM205 613l-185 -94l-13 26l75 37q-19 3 -32.5 11.5t-22 21t-12.5 27t-4 28.5q0 42 26 68t68 26h47l-5 -28h-36q-35 0 -53.5 -20t-18.5 -47q0 -31 20.5 -49
t46.5 -18q16 0 38 11l50 25z" />
    <glyph glyph-name="la.thmz.fina" unicode="&#xfee0;&#xfe84;" horiz-adv-x="520" arabic-form="final" 
d="M73 0v452h38v-413h164q48 0 74 24.5t26 64.5v492h38v-492q0 -26 8.5 -43t22 -27t30.5 -14.5t34 -4.5h12q12 0 16.5 -5.5t4.5 -13.5q0 -10 -4.5 -15t-16.5 -5h-12q-38 0 -69 14t-48 53q-21 -39 -52 -53t-64 -14h-202zM205 613l-185 -94l-13 26l75 37q-19 3 -32.5 11.5
t-22 21t-12.5 27t-4 28.5q0 42 26 68t68 26h47l-5 -28h-36q-35 0 -53.5 -20t-18.5 -47q0 -31 20.5 -49t46.5 -18q16 0 38 11l50 25z" />
    <glyph glyph-name="la.bhmz" unicode="&#xfedf;&#xfe88;" horiz-adv-x="486" arabic-form="isolated" 
d="M51 0zM73 620h38v-581h165q44 0 71.5 24t27.5 63v494h38v-490q0 -30 -10.5 -54t-28.5 -41t-42.5 -26t-53.5 -9h-205v620zM249 -259l-185 -94l-13 26l75 37q-19 3 -32.5 11.5t-22 21t-12.5 27t-4 28.5q0 42 26 68t68 26h47l-5 -28h-36q-35 0 -53.5 -20t-18.5 -47
q0 -31 20.5 -49t46.5 -18q16 0 38 11l50 25z" />
    <glyph glyph-name="la.bhmz.fina" unicode="&#xfee0;&#xfe88;" horiz-adv-x="520" arabic-form="final" 
d="M51 0zM73 0v620h38v-581h164q48 0 74 24.5t26 64.5v492h38v-492q0 -26 8.5 -43t22 -27t30.5 -14.5t34 -4.5h12q12 0 16.5 -5.5t4.5 -13.5q0 -10 -4.5 -15t-16.5 -5h-12q-38 0 -69 14t-48 53q-21 -39 -52 -53t-64 -14h-202zM249 -259l-185 -94l-13 26l75 37
q-19 3 -32.5 11.5t-22 21t-12.5 27t-4 28.5q0 42 26 68t68 26h47l-5 -28h-36q-35 0 -53.5 -20t-18.5 -47q0 -31 20.5 -49t46.5 -18q16 0 38 11l50 25z" />
    <glyph glyph-name="la.tvasla" unicode="&#xfedf;&#xfb51;" horiz-adv-x="486" 
d="M73 465h38v-426h165q44 0 71.5 24t27.5 63v494h38v-490q0 -30 -10.5 -54t-28.5 -41t-42.5 -26t-53.5 -9h-205v465zM14 580q21 42 40.5 71t38 47t36 26t35.5 8q16 0 31 -7t26.5 -19t18 -28t6.5 -35q0 -15 -5 -31.5t-17 -30.5t-32 -23.5t-51 -9.5h-134l-19 18v101l26 5v-92
zM140 575q32 0 56 16.5t24 51.5q0 23 -16.5 42t-42.5 19q-17 0 -33 -10t-31 -27.5t-29.5 -41t-29.5 -50.5h102z" />
    <glyph glyph-name="la.tvasla.fina" unicode="&#xfee0;&#xfb51;" horiz-adv-x="520" 
d="M73 0v465h38v-426h164q48 0 74 24.5t26 64.5v492h38v-492q0 -26 8.5 -43t22 -27t30.5 -14.5t34 -4.5h12q12 0 16.5 -5.5t4.5 -13.5q0 -10 -4.5 -15t-16.5 -5h-12q-38 0 -69 14t-48 53q-21 -39 -52 -53t-64 -14h-202zM14 580q21 42 40.5 71t38 47t36 26t35.5 8q16 0 31 -7
t26.5 -19t18 -28t6.5 -35q0 -15 -5 -31.5t-17 -30.5t-32 -23.5t-51 -9.5h-134l-19 18v101l26 5v-92zM140 575q32 0 56 16.5t24 51.5q0 23 -16.5 42t-42.5 19q-17 0 -33 -10t-31 -27.5t-29.5 -41t-29.5 -50.5h102z" />
    <glyph glyph-name="allah" unicode="&#x627;&#xfedf;&#xfee0;&#xfeea;" horiz-adv-x="1213" arabic-form="isolated" 
d="M54 0zM355 463h38v-305q0 -26 4.5 -48t15 -37.5t28.5 -24.5t46 -9h75q48 0 73.5 24t25.5 63v266h37v-262q0 -26 8.5 -43t22 -28t30.5 -15.5t34 -4.5h38q44 0 71.5 24t27.5 63v359h37v-355q0 -60 -38 -95t-96 -35h-41q-35 0 -66 14t-48 53q-22 -39 -53 -53t-63 -14h-76
q-21 0 -40.5 4.5t-35.5 16t-28.5 30.5t-19.5 48q-12 -17 -31 -28t-40 -17t-43 -8.5t-40 -2.5q-75 0 -114.5 35.5t-39.5 115.5q0 37 10.5 72.5t31.5 63.5t53 45t76 17h130v71zM221 354q-60 0 -95 -42.5t-35 -111.5q0 -35 8.5 -58t24.5 -37t39 -19.5t53 -5.5q62 0 100.5 24.5
t38.5 60.5v189h-134zM667 929h27v-171h-27v171zM694 686v-154h55q30 0 50 17t20 60v77h27v-62q0 -39 -10 -62.5t-25 -36t-31.5 -16.5t-29.5 -4h-41q-15 0 -28 12q-8 -7 -14 -9.5t-15 -2.5h-41q-13 0 -29.5 4t-31.5 16.5t-25 36t-10 62.5v62h28v-77q0 -43 20 -60t50 -17h54
v154h27zM1101 620h38v-620h-38v620z" />
    <glyph glyph-name="lellah" unicode="&#xfedf;&#x650;&#xfee0;&#x654;&#xfeea;" horiz-adv-x="1032" 
d="M355 463h38v-305q0 -26 4.5 -48t15 -37.5t28.5 -24.5t46 -9h75q48 0 73.5 24t25.5 63v266h37v-262q0 -26 8.5 -43t22 -28t30.5 -15.5t34 -4.5h38q44 0 71.5 24t27.5 63v359h37v-355q0 -60 -38 -95t-96 -35h-41q-35 0 -66 14t-48 53q-22 -39 -53 -53t-63 -14h-76
q-21 0 -40.5 4.5t-35.5 16t-28.5 30.5t-19.5 48q-12 -17 -31 -28t-40 -17t-43 -8.5t-40 -2.5q-75 0 -114.5 35.5t-39.5 115.5q0 37 10.5 72.5t31.5 63.5t53 45t76 17h130v71zM221 354q-60 0 -95 -42.5t-35 -111.5q0 -35 8.5 -58t24.5 -37t39 -19.5t53 -5.5q62 0 100.5 24.5
t38.5 60.5v189h-134zM667 929h27v-171h-27v171zM694 686v-154h55q30 0 50 17t20 60v77h27v-62q0 -39 -10 -62.5t-25 -36t-31.5 -16.5t-29.5 -4h-41q-15 0 -28 12q-8 -7 -14 -9.5t-15 -2.5h-41q-13 0 -29.5 4t-31.5 16.5t-25 36t-10 62.5v62h28v-77q0 -43 20 -60t50 -17h54
v154h27z" />
    <glyph glyph-name="alef" unicode="&#x627;" horiz-adv-x="185" arabic-form="isolated" 
d="M73 620h38v-620h-38v620z" />
    <glyph glyph-name="alef.fina" unicode="&#x627;" horiz-adv-x="218" arabic-form="final" 
d="M202 0q-25 0 -48.5 7.5t-41.5 25.5t-28.5 47.5t-10.5 73.5v466h38v-463q0 -50 21.5 -84t72.5 -34h13q21 0 21 -19q0 -20 -21 -20h-16z" />
    <glyph glyph-name="alef.aa" unicode="&#x622;" horiz-adv-x="185" arabic-form="isolated" 
d="M73 492h38v-492h-38v492zM48 606q-17 0 -29.5 -3.5t-21.5 -23.5l-20 -45l-27 12l23 50q7 17 14.5 26.5t16.5 14t19.5 5.5t24.5 1h170l-1 -37h-169z" />
    <glyph glyph-name="alef.aa.fina" unicode="&#x622;" horiz-adv-x="218" arabic-form="final" 
d="M202 0q-25 0 -48.5 7.5t-41.5 25.5t-28.5 47.5t-10.5 73.5v338h38v-335q0 -50 21.5 -84t72.5 -34h13q21 0 21 -19q0 -20 -21 -20h-16zM48 606q-17 0 -29.5 -3.5t-21.5 -23.5l-20 -45l-27 12l23 50q7 17 14.5 26.5t16.5 14t19.5 5.5t24.5 1h170l-1 -37h-169z" />
    <glyph glyph-name="alef.thmz" unicode="&#x623;" horiz-adv-x="185" arabic-form="isolated" 
d="M73 452h38v-452h-38v452zM193 613l-185 -94l-13 26l75 37q-19 3 -32.5 11.5t-22 21t-12.5 27t-4 28.5q0 42 26 68t68 26h47l-5 -28h-36q-35 0 -53.5 -20t-18.5 -47q0 -31 20.5 -49t46.5 -18q16 0 38 11l50 25z" />
    <glyph glyph-name="alef.thmz.fina" unicode="&#x623;" horiz-adv-x="218" arabic-form="final" 
d="M202 0q-25 0 -48.5 7.5t-41.5 25.5t-28.5 47.5t-10.5 73.5v298h38v-295q0 -50 21.5 -84t72.5 -34h13q21 0 21 -19q0 -20 -21 -20h-16zM193 613l-185 -94l-13 26l75 37q-19 3 -32.5 11.5t-22 21t-12.5 27t-4 28.5q0 42 26 68t68 26h47l-5 -28h-36q-35 0 -53.5 -20
t-18.5 -47q0 -31 20.5 -49t46.5 -18q16 0 38 11l50 25z" />
    <glyph glyph-name="alef.bhmz" unicode="&#x625;" horiz-adv-x="185" arabic-form="isolated" 
d="M2 0zM73 620h38v-620h-38v620zM200 -259l-185 -94l-13 26l75 37q-19 3 -32.5 11.5t-22 21t-12.5 27t-4 28.5q0 42 26 68t68 26h47l-5 -28h-36q-35 0 -53.5 -20t-18.5 -47q0 -31 20.5 -49t46.5 -18q16 0 38 11l50 25z" />
    <glyph glyph-name="alef.bhmz.fina" unicode="&#x625;" horiz-adv-x="218" arabic-form="final" 
d="M44 0zM202 0q-25 0 -48.5 7.5t-41.5 25.5t-28.5 47.5t-10.5 73.5v466h38v-463q0 -50 21.5 -84t72.5 -34h13q21 0 21 -19q0 -20 -21 -20h-16zM242 -259l-185 -94l-13 26l75 37q-19 3 -32.5 11.5t-22 21t-12.5 27t-4 28.5q0 42 26 68t68 26h47l-5 -28h-36q-35 0 -53.5 -20
t-18.5 -47q0 -31 20.5 -49t46.5 -18q16 0 38 11l50 25z" />
    <glyph glyph-name="alef.vasla" unicode="&#x671;" horiz-adv-x="185" arabic-form="isolated" 
d="M73 465h38v-465h-38v465zM13 580q21 42 40.5 71t38 47t36 26t35.5 8q16 0 31 -7t26.5 -19t18 -28t6.5 -35q0 -15 -5 -31.5t-17 -30.5t-32 -23.5t-51 -9.5h-134l-19 18v101l26 5v-92zM139 575q32 0 56 16.5t24 51.5q0 23 -16.5 42t-42.5 19q-17 0 -33 -10t-31 -27.5
t-29.5 -41t-29.5 -50.5h102z" />
    <glyph glyph-name="alef.vasla.fina" unicode="&#x671;" horiz-adv-x="218" arabic-form="final" 
d="M202 0q-25 0 -48.5 7.5t-41.5 25.5t-28.5 47.5t-10.5 73.5v311h38v-308q0 -50 21.5 -84t72.5 -34h13q21 0 21 -19q0 -20 -21 -20h-16zM13 580q21 42 40.5 71t38 47t36 26t35.5 8q16 0 31 -7t26.5 -19t18 -28t6.5 -35q0 -15 -5 -31.5t-17 -30.5t-32 -23.5t-51 -9.5h-134
l-19 18v101l26 5v-92zM139 575q32 0 56 16.5t24 51.5q0 23 -16.5 42t-42.5 19q-17 0 -33 -10t-31 -27.5t-29.5 -41t-29.5 -50.5h102z" />
    <glyph glyph-name="be" unicode="&#x628;" horiz-adv-x="778" arabic-form="isolated" 
d="M59 0zM213 0q-41 0 -70.5 12.5t-48 33.5t-27 49t-8.5 59v128h37v-120q0 -55 29 -89t96 -34h361q44 0 71.5 24.5t27.5 64.5v154h38v-152q0 -30 -10.5 -54t-28.5 -41t-42.5 -26t-53.5 -9h-371zM412 -171h-64v52h64v-52z" />
    <glyph glyph-name="be.fina" unicode="&#x628;" horiz-adv-x="827" arabic-form="final" 
d="M59 0zM582 39q48 0 73.5 24.5t25.5 64.5v154h38v-154q0 -26 8.5 -43t22 -27t30 -14.5t33.5 -4.5h14q13 0 17.5 -5.5t4.5 -13.5q0 -10 -4.5 -15t-17.5 -5h-15q-35 0 -66 14t-49 53q-21 -39 -51.5 -53t-63.5 -14h-369q-41 0 -70.5 12.5t-48 33.5t-27 49t-8.5 59v128h37
v-120q0 -55 29 -89t96 -34h361zM412 -171h-64v52h64v-52z" />
    <glyph glyph-name="be.medi" unicode="&#x628;" horiz-adv-x="345" arabic-form="medial" 
d="M0 0zM80 39q48 0 74 24.5t26 64.5v154h38v-154q0 -26 8.5 -43t22 -27t30 -14.5t32.5 -4.5h34q23 0 23 -19q0 -20 -23 -20h-34q-36 0 -67 14t-48 53q-21 -39 -51.5 -53t-64.5 -14h-80q-13 0 -17.5 5t-4.5 13q0 10 4.5 15.5t17.5 5.5h80zM206 -171h-64v52h64v-52z" />
    <glyph glyph-name="be.init" unicode="&#x628;" horiz-adv-x="284" arabic-form="initial" 
d="M0 0zM89 39q43 0 71.5 24.5t28.5 64.5v154h36v-150q0 -61 -37.5 -96.5t-97.5 -35.5h-90q-13 0 -17.5 5t-4.5 13q0 10 4.5 15.5t17.5 5.5h89zM120 -171h-64v52h64v-52z" />
    <glyph glyph-name="pe" unicode="&#x67e;" horiz-adv-x="778" arabic-form="isolated" 
d="M59 0zM213 0q-41 0 -70.5 12.5t-48 33.5t-27 49t-8.5 59v128h37v-120q0 -55 29 -89t96 -34h361q44 0 71.5 24.5t27.5 64.5v154h38v-152q0 -30 -10.5 -54t-28.5 -41t-42.5 -26t-53.5 -9h-371zM421 -275h-62v51h62v-51zM477 -170h-60v51h60v-51zM363 -170h-62v51h62v-51z
" />
    <glyph glyph-name="pe.fina" unicode="&#x67e;" horiz-adv-x="827" arabic-form="final" 
d="M59 0zM582 39q48 0 73.5 24.5t25.5 64.5v154h38v-154q0 -26 8.5 -43t22 -27t30 -14.5t33.5 -4.5h14q13 0 17.5 -5.5t4.5 -13.5q0 -10 -4.5 -15t-17.5 -5h-15q-35 0 -66 14t-49 53q-21 -39 -51.5 -53t-63.5 -14h-369q-41 0 -70.5 12.5t-48 33.5t-27 49t-8.5 59v128h37
v-120q0 -55 29 -89t96 -34h361zM421 -275h-62v51h62v-51zM477 -170h-60v51h60v-51zM363 -170h-62v51h62v-51z" />
    <glyph glyph-name="pe.medi" unicode="&#x67e;" horiz-adv-x="345" arabic-form="medial" 
d="M0 0zM80 39q48 0 74 24.5t26 64.5v154h38v-154q0 -26 8.5 -43t22 -27t30 -14.5t32.5 -4.5h34q23 0 23 -19q0 -20 -23 -20h-34q-36 0 -67 14t-48 53q-21 -39 -51.5 -53t-64.5 -14h-80q-13 0 -17.5 5t-4.5 13q0 10 4.5 15.5t17.5 5.5h80zM189 -275h-62v51h62v-51zM245 -170
h-60v51h60v-51zM131 -170h-62v51h62v-51z" />
    <glyph glyph-name="pe.init" unicode="&#x67e;" horiz-adv-x="284" arabic-form="initial" 
d="M0 0zM89 39q43 0 71.5 24.5t28.5 64.5v154h36v-150q0 -61 -37.5 -96.5t-97.5 -35.5h-90q-13 0 -17.5 5t-4.5 13q0 10 4.5 15.5t17.5 5.5h89zM139 -275h-62v51h62v-51zM195 -170h-60v51h60v-51zM81 -170h-62v51h62v-51z" />
    <glyph glyph-name="te" unicode="&#x62a;" horiz-adv-x="778" arabic-form="isolated" 
d="M59 0zM213 0q-41 0 -70.5 12.5t-48 33.5t-27 49t-8.5 59v128h37v-120q0 -55 29 -89t96 -34h361q44 0 71.5 24.5t27.5 64.5v154h38v-152q0 -30 -10.5 -54t-28.5 -41t-42.5 -26t-53.5 -9h-371zM476 374h-60v51h60v-51zM362 374h-62v51h62v-51z" />
    <glyph glyph-name="te.fina" unicode="&#x62a;" horiz-adv-x="827" arabic-form="final" 
d="M59 0zM582 39q48 0 73.5 24.5t25.5 64.5v154h38v-154q0 -26 8.5 -43t22 -27t30 -14.5t33.5 -4.5h14q13 0 17.5 -5.5t4.5 -13.5q0 -10 -4.5 -15t-17.5 -5h-15q-35 0 -66 14t-49 53q-21 -39 -51.5 -53t-63.5 -14h-369q-41 0 -70.5 12.5t-48 33.5t-27 49t-8.5 59v128h37
v-120q0 -55 29 -89t96 -34h361zM476 374h-60v51h60v-51zM362 374h-62v51h62v-51z" />
    <glyph glyph-name="te.medi" unicode="&#x62a;" horiz-adv-x="345" arabic-form="medial" 
d="M0 0zM80 39q48 0 74 24.5t26 64.5v154h38v-154q0 -26 8.5 -43t22 -27t30 -14.5t32.5 -4.5h34q23 0 23 -19q0 -20 -23 -20h-34q-36 0 -67 14t-48 53q-21 -39 -51.5 -53t-64.5 -14h-80q-13 0 -17.5 5t-4.5 13q0 10 4.5 15.5t17.5 5.5h80zM278 417h-60v51h60v-51zM164 417
h-62v51h62v-51z" />
    <glyph glyph-name="te.init" unicode="&#x62a;" horiz-adv-x="284" arabic-form="initial" 
d="M0 0zM89 39q43 0 71.5 24.5t28.5 64.5v154h36v-150q0 -61 -37.5 -96.5t-97.5 -35.5h-90q-13 0 -17.5 5t-4.5 13q0 10 4.5 15.5t17.5 5.5h89zM239 417h-60v51h60v-51zM125 417h-62v51h62v-51z" />
    <glyph glyph-name="the" unicode="&#x62b;" horiz-adv-x="778" arabic-form="isolated" 
d="M59 0zM213 0q-41 0 -70.5 12.5t-48 33.5t-27 49t-8.5 59v128h37v-120q0 -55 29 -89t96 -34h361q44 0 71.5 24.5t27.5 64.5v154h38v-152q0 -30 -10.5 -54t-28.5 -41t-42.5 -26t-53.5 -9h-371zM420 479h-62v51h62v-51zM476 374h-60v51h60v-51zM362 374h-62v51h62v-51z" />
    <glyph glyph-name="the.fina" unicode="&#x62b;" horiz-adv-x="827" arabic-form="final" 
d="M59 0zM582 39q48 0 73.5 24.5t25.5 64.5v154h38v-154q0 -26 8.5 -43t22 -27t30 -14.5t33.5 -4.5h14q13 0 17.5 -5.5t4.5 -13.5q0 -10 -4.5 -15t-17.5 -5h-15q-35 0 -66 14t-49 53q-21 -39 -51.5 -53t-63.5 -14h-369q-41 0 -70.5 12.5t-48 33.5t-27 49t-8.5 59v128h37
v-120q0 -55 29 -89t96 -34h361zM420 479h-62v51h62v-51zM476 374h-60v51h60v-51zM362 374h-62v51h62v-51z" />
    <glyph glyph-name="the.medi" unicode="&#x62b;" horiz-adv-x="345" arabic-form="medial" 
d="M0 0zM80 39q48 0 74 24.5t26 64.5v154h38v-154q0 -26 8.5 -43t22 -27t30 -14.5t32.5 -4.5h34q23 0 23 -19q0 -20 -23 -20h-34q-36 0 -67 14t-48 53q-21 -39 -51.5 -53t-64.5 -14h-80q-13 0 -17.5 5t-4.5 13q0 10 4.5 15.5t17.5 5.5h80zM222 522h-62v51h62v-51zM278 417
h-60v51h60v-51zM164 417h-62v51h62v-51z" />
    <glyph glyph-name="the.init" unicode="&#x62b;" horiz-adv-x="284" arabic-form="initial" 
d="M0 0zM89 39q43 0 71.5 24.5t28.5 64.5v154h36v-150q0 -61 -37.5 -96.5t-97.5 -35.5h-90q-13 0 -17.5 5t-4.5 13q0 10 4.5 15.5t17.5 5.5h89zM183 522h-62v51h62v-51zM239 417h-60v51h60v-51zM125 417h-62v51h62v-51z" />
    <glyph glyph-name="jim" unicode="&#x62c;" horiz-adv-x="539" arabic-form="isolated" 
d="M49 0zM443 219q-8 27 -18 48t-26 35.5t-39.5 22t-59.5 7.5h-213l6 39h210q25 0 51.5 -3t50.5 -19.5t45 -51t35 -96.5l-198 -116q-52 -31 -90 -59t-62.5 -56.5t-36.5 -58t-12 -62.5q0 -97 51.5 -146.5t160.5 -49.5h187l-6 -38h-186q-68 0 -115 18t-75.5 49t-41 72.5
t-12.5 87.5q0 38 11 72.5t35.5 66.5t64 64t96.5 66zM366 -159h-64v52h64v-52z" />
    <glyph glyph-name="jim.fina" unicode="&#x62c;" horiz-adv-x="566" arabic-form="final" 
d="M49 0zM443 219q-8 27 -18 48t-26 35.5t-39.5 22t-59.5 7.5h-213l6 39h210q25 0 51.5 -3t50.5 -19.5t45 -51t35 -96.5l-89 -53q10 -31 21 -52t24.5 -33.5t30.5 -18t40 -5.5h54q13 0 17.5 -5.5t4.5 -13.5q0 -10 -4.5 -15t-17.5 -5h-59q-33 0 -54.5 10t-37 27.5t-26 41.5
t-20.5 53l-82 -47q-52 -31 -90 -59t-62.5 -56.5t-36.5 -58t-12 -62.5q0 -97 51.5 -146.5t160.5 -49.5h187l-6 -38h-186q-68 0 -115 18t-75.5 49t-41 72.5t-12.5 87.5q0 38 11 72.5t35.5 66.5t64 64t96.5 66zM334 -174h-64v52h64v-52z" />
    <glyph glyph-name="jim.medi" unicode="&#x62c;" horiz-adv-x="614" arabic-form="medial" 
d="M0 0zM428 142q19 -56 43.5 -79.5t68.5 -23.5h74q13 0 17.5 -5.5t4.5 -13.5q0 -10 -4.5 -15t-17.5 -5h-79q-32 0 -53.5 9.5t-37 26.5t-26 39.5t-19.5 49.5l-108 -65q-24 -14 -47.5 -25.5t-50.5 -19t-59.5 -11.5t-75.5 -4h-58q-13 0 -17.5 5t-4.5 13q0 10 4.5 15.5
t17.5 5.5h58q39 0 69 3.5t55.5 10t48 17t45.5 24.5l201 117q-9 27 -20 49t-27.5 38t-41 25t-59.5 9h-233l6 39h229q25 0 52.5 -4.5t52.5 -22.5t46.5 -53t35.5 -96zM275 -171h-64v52h64v-52z" />
    <glyph glyph-name="jim.init" unicode="&#x62c;" horiz-adv-x="572" arabic-form="initial" 
d="M0 0zM291 60q-24 -15 -47.5 -26t-50.5 -18.5t-59.5 -11.5t-75.5 -4h-58q-13 0 -17.5 5t-4.5 13q0 10 4.5 15.5t17.5 5.5h58q39 0 69 3.5t55.5 10t48 17t45.5 24.5l201 117q-9 27 -20 49t-27.5 38t-41 25t-59.5 9h-233l6 39h229q25 0 52.5 -4.5t52.5 -22.5t46.5 -53
t35.5 -96zM275 -171h-64v52h64v-52z" />
    <glyph glyph-name="che" unicode="&#x686;" horiz-adv-x="539" arabic-form="isolated" 
d="M49 0zM443 219q-8 27 -18 48t-26 35.5t-39.5 22t-59.5 7.5h-213l6 39h210q25 0 51.5 -3t50.5 -19.5t45 -51t35 -96.5l-198 -116q-52 -31 -90 -59t-62.5 -56.5t-36.5 -58t-12 -62.5q0 -97 51.5 -146.5t160.5 -49.5h187l-6 -38h-186q-68 0 -115 18t-75.5 49t-41 72.5
t-12.5 87.5q0 38 11 72.5t35.5 66.5t64 64t96.5 66zM355.58 -228.517h-61.0693v50.2344h61.0693v-50.2344zM410.739 -125.093h-59.0996v50.2334h59.0996v-50.2334zM298.45 -125.093h-61.0684v50.2334h61.0684v-50.2334z" />
    <glyph glyph-name="che.fina" unicode="&#x686;" horiz-adv-x="566" arabic-form="final" 
d="M49 0zM443 219q-8 27 -18 48t-26 35.5t-39.5 22t-59.5 7.5h-213l6 39h210q25 0 51.5 -3t50.5 -19.5t45 -51t35 -96.5l-89 -53q10 -31 21 -52t24.5 -33.5t30.5 -18t40 -5.5h54q13 0 17.5 -5.5t4.5 -13.5q0 -10 -4.5 -15t-17.5 -5h-59q-33 0 -54.5 10t-37 27.5t-26 41.5
t-20.5 53l-82 -47q-52 -31 -90 -59t-62.5 -56.5t-36.5 -58t-12 -62.5q0 -97 51.5 -146.5t160.5 -49.5h187l-6 -38h-186q-68 0 -115 18t-75.5 49t-41 72.5t-12.5 87.5q0 38 11 72.5t35.5 66.5t64 64t96.5 66zM326.88 -234.732h-60.1377v49.4678h60.1377v-49.4678z
M381.198 -132.886h-58.1982v49.4678h58.1982v-49.4678zM270.622 -132.886h-60.1387v49.4678h60.1387v-49.4678z" />
    <glyph glyph-name="che.medi" unicode="&#x686;" horiz-adv-x="614" arabic-form="medial" 
d="M0 0zM428 142q19 -56 43.5 -79.5t68.5 -23.5h74q13 0 17.5 -5.5t4.5 -13.5q0 -10 -4.5 -15t-17.5 -5h-79q-32 0 -53.5 9.5t-37 26.5t-26 39.5t-19.5 49.5l-108 -65q-24 -14 -47.5 -25.5t-50.5 -19t-59.5 -11.5t-75.5 -4h-58q-13 0 -17.5 5t-4.5 13q0 10 4.5 15.5
t17.5 5.5h58q39 0 69 3.5t55.5 10t48 17t45.5 24.5l201 117q-9 27 -20 49t-27.5 38t-41 25t-59.5 9h-233l6 39h229q25 0 52.5 -4.5t52.5 -22.5t46.5 -53t35.5 -96zM315 -275h-62v51h62v-51zM371 -170h-60v51h60v-51zM257 -170h-62v51h62v-51z" />
    <glyph glyph-name="che.init" unicode="&#x686;" horiz-adv-x="572" arabic-form="initial" 
d="M0 0zM291 60q-24 -15 -47.5 -26t-50.5 -18.5t-59.5 -11.5t-75.5 -4h-58q-13 0 -17.5 5t-4.5 13q0 10 4.5 15.5t17.5 5.5h58q39 0 69 3.5t55.5 10t48 17t45.5 24.5l201 117q-9 27 -20 49t-27.5 38t-41 25t-59.5 9h-233l6 39h229q25 0 52.5 -4.5t52.5 -22.5t46.5 -53
t35.5 -96zM315 -275h-62v51h62v-51zM371 -170h-60v51h60v-51zM257 -170h-62v51h62v-51z" />
    <glyph glyph-name="him" unicode="&#x62d;" horiz-adv-x="539" arabic-form="isolated" 
d="M443 219q-8 27 -18 48t-26 35.5t-39.5 22t-59.5 7.5h-213l6 39h210q25 0 51.5 -3t50.5 -19.5t45 -51t35 -96.5l-198 -116q-52 -31 -90 -59t-62.5 -56.5t-36.5 -58t-12 -62.5q0 -97 51.5 -146.5t160.5 -49.5h187l-6 -38h-186q-68 0 -115 18t-75.5 49t-41 72.5t-12.5 87.5
q0 38 11 72.5t35.5 66.5t64 64t96.5 66z" />
    <glyph glyph-name="him.fina" unicode="&#x62d;" horiz-adv-x="566" arabic-form="final" 
d="M443 219q-8 27 -18 48t-26 35.5t-39.5 22t-59.5 7.5h-213l6 39h210q25 0 51.5 -3t50.5 -19.5t45 -51t35 -96.5l-89 -53q10 -31 21 -52t24.5 -33.5t30.5 -18t40 -5.5h54q13 0 17.5 -5.5t4.5 -13.5q0 -10 -4.5 -15t-17.5 -5h-59q-33 0 -54.5 10t-37 27.5t-26 41.5t-20.5 53
l-82 -47q-52 -31 -90 -59t-62.5 -56.5t-36.5 -58t-12 -62.5q0 -97 51.5 -146.5t160.5 -49.5h187l-6 -38h-186q-68 0 -115 18t-75.5 49t-41 72.5t-12.5 87.5q0 38 11 72.5t35.5 66.5t64 64t96.5 66z" />
    <glyph glyph-name="him.medi" unicode="&#x62d;" horiz-adv-x="614" arabic-form="medial" 
d="M428 142q19 -56 43.5 -79.5t68.5 -23.5h74q13 0 17.5 -5.5t4.5 -13.5q0 -10 -4.5 -15t-17.5 -5h-79q-32 0 -53.5 9.5t-37 26.5t-26 39.5t-19.5 49.5l-108 -65q-24 -14 -47.5 -25.5t-50.5 -19t-59.5 -11.5t-75.5 -4h-58q-13 0 -17.5 5t-4.5 13q0 10 4.5 15.5t17.5 5.5h58
q39 0 69 3.5t55.5 10t48 17t45.5 24.5l201 117q-9 27 -20 49t-27.5 38t-41 25t-59.5 9h-233l6 39h229q25 0 52.5 -4.5t52.5 -22.5t46.5 -53t35.5 -96z" />
    <glyph glyph-name="him.init" unicode="&#x62d;" horiz-adv-x="572" arabic-form="initial" 
d="M291 60q-24 -15 -47.5 -26t-50.5 -18.5t-59.5 -11.5t-75.5 -4h-58q-13 0 -17.5 5t-4.5 13q0 10 4.5 15.5t17.5 5.5h58q39 0 69 3.5t55.5 10t48 17t45.5 24.5l201 117q-9 27 -20 49t-27.5 38t-41 25t-59.5 9h-233l6 39h229q25 0 52.5 -4.5t52.5 -22.5t46.5 -53t35.5 -96z
" />
    <glyph glyph-name="khe" unicode="&#x62e;" horiz-adv-x="539" arabic-form="isolated" 
d="M49 0zM443 219q-8 27 -18 48t-26 35.5t-39.5 22t-59.5 7.5h-213l6 39h210q25 0 51.5 -3t50.5 -19.5t45 -51t35 -96.5l-198 -116q-52 -31 -90 -59t-62.5 -56.5t-36.5 -58t-12 -62.5q0 -97 51.5 -146.5t160.5 -49.5h187l-6 -38h-186q-68 0 -115 18t-75.5 49t-41 72.5
t-12.5 87.5q0 38 11 72.5t35.5 66.5t64 64t96.5 66zM281 490h-64v52h64v-52z" />
    <glyph glyph-name="khe.fina" unicode="&#x62e;" horiz-adv-x="566" arabic-form="final" 
d="M49 0zM443 219q-8 27 -18 48t-26 35.5t-39.5 22t-59.5 7.5h-213l6 39h210q25 0 51.5 -3t50.5 -19.5t45 -51t35 -96.5l-89 -53q10 -31 21 -52t24.5 -33.5t30.5 -18t40 -5.5h54q13 0 17.5 -5.5t4.5 -13.5q0 -10 -4.5 -15t-17.5 -5h-59q-33 0 -54.5 10t-37 27.5t-26 41.5
t-20.5 53l-82 -47q-52 -31 -90 -59t-62.5 -56.5t-36.5 -58t-12 -62.5q0 -97 51.5 -146.5t160.5 -49.5h187l-6 -38h-186q-68 0 -115 18t-75.5 49t-41 72.5t-12.5 87.5q0 38 11 72.5t35.5 66.5t64 64t96.5 66zM281 490h-64v52h64v-52z" />
    <glyph glyph-name="khe.medi" unicode="&#x62e;" horiz-adv-x="614" arabic-form="medial" 
d="M0 0zM428 142q19 -56 43.5 -79.5t68.5 -23.5h74q13 0 17.5 -5.5t4.5 -13.5q0 -10 -4.5 -15t-17.5 -5h-79q-32 0 -53.5 9.5t-37 26.5t-26 39.5t-19.5 49.5l-108 -65q-24 -14 -47.5 -25.5t-50.5 -19t-59.5 -11.5t-75.5 -4h-58q-13 0 -17.5 5t-4.5 13q0 10 4.5 15.5
t17.5 5.5h58q39 0 69 3.5t55.5 10t48 17t45.5 24.5l201 117q-9 27 -20 49t-27.5 38t-41 25t-59.5 9h-233l6 39h229q25 0 52.5 -4.5t52.5 -22.5t46.5 -53t35.5 -96zM285 490h-64v52h64v-52z" />
    <glyph glyph-name="khe.init" unicode="&#x62e;" horiz-adv-x="572" arabic-form="initial" 
d="M0 0zM291 60q-24 -15 -47.5 -26t-50.5 -18.5t-59.5 -11.5t-75.5 -4h-58q-13 0 -17.5 5t-4.5 13q0 10 4.5 15.5t17.5 5.5h58q39 0 69 3.5t55.5 10t48 17t45.5 24.5l201 117q-9 27 -20 49t-27.5 38t-41 25t-59.5 9h-233l6 39h229q25 0 52.5 -4.5t52.5 -22.5t46.5 -53
t35.5 -96zM285 490h-64v52h64v-52z" />
    <glyph glyph-name="dal" unicode="&#x62f;" horiz-adv-x="535" arabic-form="isolated" 
d="M436 229q24 -28 34.5 -54.5t10.5 -52.5q0 -54 -38 -88t-106 -34h-288l-6 39h291q51 0 79 23.5t28 61.5q0 19 -9.5 41t-26.5 41l-197 223l28 27z" />
    <glyph glyph-name="dal.fina" unicode="&#x62f;" horiz-adv-x="516" arabic-form="final" 
d="M261 39q25 0 43 6.5t29.5 16.5t16.5 22t5 22q0 12 -4.5 31.5t-16.5 56.5t-32.5 95.5t-53.5 148.5l36 15l110 -319q17 -52 41.5 -73.5t64.5 -21.5h16q22 0 22 -19q0 -20 -22 -20h-16q-33 0 -62 13t-54 57q-20 -44 -52 -57t-69 -13h-214l-6 39h218z" />
    <glyph glyph-name="zal" unicode="&#x630;" horiz-adv-x="535" arabic-form="isolated" 
d="M43 0zM436 229q24 -28 34.5 -54.5t10.5 -52.5q0 -54 -38 -88t-106 -34h-288l-6 39h291q51 0 79 23.5t28 61.5q0 19 -9.5 41t-26.5 41l-197 223l28 27zM277 599h-64v52h64v-52z" />
    <glyph glyph-name="zal.fina" unicode="&#x630;" horiz-adv-x="516" arabic-form="final" 
d="M43 0zM261 39q25 0 43 6.5t29.5 16.5t16.5 22t5 22q0 12 -4.5 31.5t-16.5 56.5t-32.5 95.5t-53.5 148.5l36 15l110 -319q17 -52 41.5 -73.5t64.5 -21.5h16q22 0 22 -19q0 -20 -22 -20h-16q-33 0 -62 13t-54 57q-20 -44 -52 -57t-69 -13h-214l-6 39h218zM302 601h-64v52
h64v-52z" />
    <glyph glyph-name="re" unicode="&#x631;" horiz-adv-x="212" arabic-form="isolated" 
d="M153 16q0 -61 -18.5 -109t-50.5 -81t-75.5 -50.5t-93.5 -17.5h-56l-5 38h53q54 0 93.5 18t65 48.5t38 70.5t12.5 83v266h37v-266v0z" />
    <glyph glyph-name="re.fina" unicode="&#x631;" horiz-adv-x="259" arabic-form="final" 
d="M152 16q0 -61 -18 -109t-50 -81t-75.5 -50.5t-93.5 -17.5h-56l-5 38h53q54 0 93.5 18t65 48.5t38 70.5t12.5 83v266h37v-158q0 -37 25.5 -61t69.5 -24h11q22 0 22 -19q0 -20 -22 -20h-11q-28 0 -53.5 10.5t-42.5 34.5v-29z" />
    <glyph glyph-name="ze" unicode="&#x632;" horiz-adv-x="212" arabic-form="isolated" 
d="M0 0zM153 16q0 -61 -18.5 -109t-50.5 -81t-75.5 -50.5t-93.5 -17.5h-56l-5 38h53q54 0 93.5 18t65 48.5t38 70.5t12.5 83v266h37v-266v0zM158 417h-64v52h64v-52z" />
    <glyph glyph-name="ze.fina" unicode="&#x632;" horiz-adv-x="259" arabic-form="final" 
d="M0 0zM152 16q0 -61 -18 -109t-50 -81t-75.5 -50.5t-93.5 -17.5h-56l-5 38h53q54 0 93.5 18t65 48.5t38 70.5t12.5 83v266h37v-158q0 -37 25.5 -61t69.5 -24h11q22 0 22 -19q0 -20 -22 -20h-11q-28 0 -53.5 10.5t-42.5 34.5v-29zM158 417h-64v52h64v-52z" />
    <glyph glyph-name="je" unicode="&#x698;" horiz-adv-x="212" arabic-form="isolated" 
d="M0 0zM153 16q0 -61 -18.5 -109t-50.5 -81t-75.5 -50.5t-93.5 -17.5h-56l-5 38h53q54 0 93.5 18t65 48.5t38 70.5t12.5 83v266h37v-266v0zM147 522h-62v51h62v-51zM203 417h-60v51h60v-51zM89 417h-62v51h62v-51z" />
    <glyph glyph-name="je.fina" unicode="&#x698;" horiz-adv-x="259" arabic-form="final" 
d="M0 0zM152 16q0 -61 -18 -109t-50 -81t-75.5 -50.5t-93.5 -17.5h-56l-5 38h53q54 0 93.5 18t65 48.5t38 70.5t12.5 83v266h37v-158q0 -37 25.5 -61t69.5 -24h11q22 0 22 -19q0 -20 -22 -20h-11q-28 0 -53.5 10.5t-42.5 34.5v-29zM147 522h-62v51h62v-51zM203 417h-60v51
h60v-51zM89 417h-62v51h62v-51z" />
    <glyph glyph-name="sin" unicode="&#x633;" horiz-adv-x="1126" arabic-form="isolated" 
d="M837 128q0 -26 8 -43t21.5 -27t30 -14.5t34.5 -4.5q44 0 71.5 24.5t27.5 64.5v154h37v-150q0 -61 -37.5 -96.5t-97.5 -35.5q-37 0 -68 14t-48 53q-21 -39 -55 -53t-71 -14q-36 0 -61.5 12t-39.5 33v-29q0 -51 -17 -98t-48.5 -82.5t-76.5 -56.5t-101 -21h-56
q-112 0 -174 69t-62 189v172h37v-171q0 -49 12.5 -89.5t38 -70t64.5 -45.5t91 -16h44q51 0 90 17.5t66 47.5t41 69t14 83v269h37v-158q0 -37 26.5 -61t74.5 -24q52 0 81 24.5t29 64.5v154h37v-154z" />
    <glyph glyph-name="sin.fina" unicode="&#x633;" horiz-adv-x="1175" arabic-form="final" 
d="M589 124q0 -37 26.5 -61t74.5 -24q52 0 81 24.5t29 64.5v154h37v-154q0 -26 8 -43t21.5 -27t30 -14.5t34.5 -4.5q48 0 73.5 24.5t25.5 64.5v154h37v-154q0 -26 8.5 -43t22 -27t30.5 -14.5t33 -4.5h14q22 0 22 -19q0 -20 -22 -20h-14q-36 0 -67 14t-48 53q-21 -39 -52 -53
t-63 -14q-36 0 -67 14t-48 53q-21 -39 -55 -53t-71 -14q-36 0 -61.5 12t-39.5 33v-29q0 -51 -17 -98t-48.5 -82.5t-76.5 -56.5t-101 -21h-56q-112 0 -174 69t-62 189v172h37v-171q0 -49 12.5 -89.5t38 -70t64.5 -45.5t91 -16h44q51 0 90 17.5t66 47.5t41 69t14 83v269h37
v-158z" />
    <glyph glyph-name="sin.medi" unicode="&#x633;" horiz-adv-x="758" arabic-form="medial" 
d="M30 39q48 0 76 24.5t28 64.5v154h38v-154q0 -26 9 -43t23 -27t31.5 -14.5t35.5 -4.5q52 0 81.5 24.5t29.5 64.5v154h38v-154q0 -26 8 -43t21 -27t30 -14.5t35 -4.5q46 0 72 24.5t26 64.5v154h37v-154q0 -26 8.5 -43t22 -27t30 -14.5t32.5 -4.5h16q22 0 22 -19
q0 -20 -22 -20h-16q-35 0 -66 14t-48 53q-21 -39 -51.5 -53t-62.5 -14q-38 0 -68.5 14t-47.5 53q-21 -39 -55 -53t-72 -14q-40 0 -72 14t-49 53q-21 -39 -55 -53t-70 -14h-25q-13 0 -17.5 5t-4.5 13q0 10 4.5 15.5t17.5 5.5h30z" />
    <glyph glyph-name="sin.init" unicode="&#x633;" horiz-adv-x="708" arabic-form="initial" 
d="M30 39q48 0 76 24.5t28 64.5v154h38v-154q0 -26 9 -43t23 -27t31.5 -14.5t35.5 -4.5q52 0 81.5 24.5t29.5 64.5v154h38v-154q0 -26 8 -43t21 -27t30 -14.5t35 -4.5q43 0 70.5 24.5t27.5 64.5v154h37v-150q0 -61 -37.5 -96.5t-97.5 -35.5q-37 0 -68 14t-48 53
q-21 -39 -55 -53t-72 -14q-40 0 -72 14t-49 53q-21 -39 -55 -53t-70 -14h-25q-13 0 -17.5 5t-4.5 13q0 10 4.5 15.5t17.5 5.5h30z" />
    <glyph glyph-name="shin" unicode="&#x634;" horiz-adv-x="1126" arabic-form="isolated" 
d="M54 0zM837 128q0 -26 8 -43t21.5 -27t30 -14.5t34.5 -4.5q44 0 71.5 24.5t27.5 64.5v154h37v-150q0 -61 -37.5 -96.5t-97.5 -35.5q-37 0 -68 14t-48 53q-21 -39 -55 -53t-71 -14q-36 0 -61.5 12t-39.5 33v-29q0 -51 -17 -98t-48.5 -82.5t-76.5 -56.5t-101 -21h-56
q-112 0 -174 69t-62 189v172h37v-171q0 -49 12.5 -89.5t38 -70t64.5 -45.5t91 -16h44q51 0 90 17.5t66 47.5t41 69t14 83v269h37v-158q0 -37 26.5 -61t74.5 -24q52 0 81 24.5t29 64.5v154h37v-154zM852 522h-62v51h62v-51zM908 417h-60v51h60v-51zM794 417h-62v51h62v-51z
" />
    <glyph glyph-name="shin.fina" unicode="&#x634;" horiz-adv-x="1175" arabic-form="final" 
d="M54 0zM589 124q0 -37 26.5 -61t74.5 -24q52 0 81 24.5t29 64.5v154h37v-154q0 -26 8 -43t21.5 -27t30 -14.5t34.5 -4.5q48 0 73.5 24.5t25.5 64.5v154h37v-154q0 -26 8.5 -43t22 -27t30.5 -14.5t33 -4.5h14q22 0 22 -19q0 -20 -22 -20h-14q-36 0 -67 14t-48 53
q-21 -39 -52 -53t-63 -14q-36 0 -67 14t-48 53q-21 -39 -55 -53t-71 -14q-36 0 -61.5 12t-39.5 33v-29q0 -51 -17 -98t-48.5 -82.5t-76.5 -56.5t-101 -21h-56q-112 0 -174 69t-62 189v172h37v-171q0 -49 12.5 -89.5t38 -70t64.5 -45.5t91 -16h44q51 0 90 17.5t66 47.5t41 69
t14 83v269h37v-158zM852 522h-62v51h62v-51zM908 417h-60v51h60v-51zM794 417h-62v51h62v-51z" />
    <glyph glyph-name="shin.medi" unicode="&#x634;" horiz-adv-x="758" arabic-form="medial" 
d="M0 0zM30 39q48 0 76 24.5t28 64.5v154h38v-154q0 -26 9 -43t23 -27t31.5 -14.5t35.5 -4.5q52 0 81.5 24.5t29.5 64.5v154h38v-154q0 -26 8 -43t21 -27t30 -14.5t35 -4.5q46 0 72 24.5t26 64.5v154h37v-154q0 -26 8.5 -43t22 -27t30 -14.5t32.5 -4.5h16q22 0 22 -19
q0 -20 -22 -20h-16q-35 0 -66 14t-48 53q-21 -39 -51.5 -53t-62.5 -14q-38 0 -68.5 14t-47.5 53q-21 -39 -55 -53t-72 -14q-40 0 -72 14t-49 53q-21 -39 -55 -53t-70 -14h-25q-13 0 -17.5 5t-4.5 13q0 10 4.5 15.5t17.5 5.5h30zM434 522h-62v51h62v-51zM490 417h-60v51h60
v-51zM376 417h-62v51h62v-51z" />
    <glyph glyph-name="shin.init" unicode="&#x634;" horiz-adv-x="708" arabic-form="initial" 
d="M0 0zM30 39q48 0 76 24.5t28 64.5v154h38v-154q0 -26 9 -43t23 -27t31.5 -14.5t35.5 -4.5q52 0 81.5 24.5t29.5 64.5v154h38v-154q0 -26 8 -43t21 -27t30 -14.5t35 -4.5q43 0 70.5 24.5t27.5 64.5v154h37v-150q0 -61 -37.5 -96.5t-97.5 -35.5q-37 0 -68 14t-48 53
q-21 -39 -55 -53t-72 -14q-40 0 -72 14t-49 53q-21 -39 -55 -53t-70 -14h-25q-13 0 -17.5 5t-4.5 13q0 10 4.5 15.5t17.5 5.5h30zM434 522h-62v51h62v-51zM490 417h-60v51h60v-51zM376 417h-62v51h62v-51z" />
    <glyph glyph-name="sad" unicode="&#x635;" horiz-adv-x="1204" arabic-form="isolated" 
d="M1112 182q0 34 -10.5 62.5t-29 48.5t-43 31.5t-51.5 11.5q-66 0 -134.5 -71.5t-152.5 -225.5h283q25 0 50 8t44.5 25t31.5 44.5t12 65.5zM655 43q50 92 93.5 155.5t82.5 102.5t75.5 56.5t72.5 17.5q37 0 68.5 -15.5t54.5 -41.5t35.5 -61.5t12.5 -74.5q0 -33 -10.5 -65.5
t-32.5 -58.5t-55 -42t-79 -16h-277q-39 0 -66 12t-41 34v-30q0 -51 -17 -98t-48.5 -82.5t-76.5 -56.5t-101 -21h-56q-112 0 -174 69t-62 189v172h37v-171q0 -49 12.5 -89.5t38 -70t64.5 -45.5t91 -16h44q51 0 90 17.5t66 47.5t41 69t14 83v269h37v-156q0 -30 18 -53t48 -30z
" />
    <glyph glyph-name="sad.fina" unicode="&#x635;" horiz-adv-x="1246" arabic-form="final" 
d="M655 43q50 92 93.5 155.5t82.5 102.5t75.5 56.5t72.5 17.5q37 0 68.5 -15.5t54.5 -41.5t35.5 -61.5t12.5 -74.5q0 -29 -8 -57t-25 -51q20 -24 47 -29.5t66 -5.5h16q22 0 22 -19q0 -20 -22 -20h-16q-17 0 -34.5 0.5t-35 5t-33.5 14t-31 26.5q-21 -20 -51.5 -33t-71.5 -13
h-277q-39 0 -66 12t-41 34v-30q0 -51 -17 -98t-48.5 -82.5t-76.5 -56.5t-101 -21h-56q-112 0 -174 69t-62 189v172h37v-171q0 -49 12.5 -89.5t38 -70t64.5 -45.5t91 -16h44q51 0 90 17.5t66 47.5t41 69t14 83v269h37v-156q0 -30 18 -53t48 -30zM1112 182q0 34 -10.5 62.5
t-29 48.5t-43 31.5t-51.5 11.5q-66 0 -134.5 -71.5t-152.5 -225.5h283q25 0 50 8t44.5 25t31.5 44.5t12 65.5z" />
    <glyph glyph-name="sad.medi" unicode="&#x635;" horiz-adv-x="828" arabic-form="medial" 
d="M236 43q50 92 93 155.5t82 102.5t75.5 56.5t73.5 17.5t68.5 -15.5t54.5 -41.5t35.5 -61.5t12.5 -74.5q0 -29 -8 -57t-25 -51q20 -24 47.5 -29.5t65.5 -5.5h17q22 0 22 -19q0 -20 -22 -20h-17q-17 0 -34.5 0.5t-35 5t-33.5 14t-30 26.5q-22 -20 -52.5 -33t-71.5 -13h-284
q-40 0 -72 14t-49 53q-21 -39 -55 -53t-70 -14h-24q-13 0 -17.5 5t-4.5 13q0 10 4.5 15.5t17.5 5.5h29q48 0 76 24.5t28 64.5v154h37v-154q0 -32 19 -55t47 -30zM693 182q0 34 -10.5 62.5t-29 48.5t-43 31.5t-51.5 11.5q-65 0 -134.5 -71.5t-152.5 -225.5h282q26 0 51 8
t44.5 25t31.5 44.5t12 65.5z" />
    <glyph glyph-name="sad.init" unicode="&#x635;" horiz-adv-x="785" arabic-form="initial" 
d="M236 43q50 92 93 155.5t82 102.5t75.5 56.5t73.5 17.5t68.5 -15.5t54.5 -41.5t35.5 -61.5t12.5 -74.5q0 -33 -10.5 -65.5t-32.5 -58.5t-55.5 -42t-78.5 -16h-284q-40 0 -72 14t-49 53q-21 -39 -55 -53t-70 -14h-24q-13 0 -17.5 5t-4.5 13q0 10 4.5 15.5t17.5 5.5h29
q48 0 76 24.5t28 64.5v154h37v-154q0 -32 19 -55t47 -30zM693 182q0 34 -10.5 62.5t-29 48.5t-43 31.5t-51.5 11.5q-65 0 -134.5 -71.5t-152.5 -225.5h282q26 0 51 8t44.5 25t31.5 44.5t12 65.5z" />
    <glyph glyph-name="zad" unicode="&#x636;" horiz-adv-x="1204" arabic-form="isolated" 
d="M54 0zM1112 182q0 34 -10.5 62.5t-29 48.5t-43 31.5t-51.5 11.5q-66 0 -134.5 -71.5t-152.5 -225.5h283q25 0 50 8t44.5 25t31.5 44.5t12 65.5zM655 43q50 92 93.5 155.5t82.5 102.5t75.5 56.5t72.5 17.5q37 0 68.5 -15.5t54.5 -41.5t35.5 -61.5t12.5 -74.5
q0 -33 -10.5 -65.5t-32.5 -58.5t-55 -42t-79 -16h-277q-39 0 -66 12t-41 34v-30q0 -51 -17 -98t-48.5 -82.5t-76.5 -56.5t-101 -21h-56q-112 0 -174 69t-62 189v172h37v-171q0 -49 12.5 -89.5t38 -70t64.5 -45.5t91 -16h44q51 0 90 17.5t66 47.5t41 69t14 83v269h37v-156
q0 -30 18 -53t48 -30zM945 479h-64v52h64v-52z" />
    <glyph glyph-name="zad.fina" unicode="&#x636;" horiz-adv-x="1246" arabic-form="final" 
d="M54 0zM655 43q50 92 93.5 155.5t82.5 102.5t75.5 56.5t72.5 17.5q37 0 68.5 -15.5t54.5 -41.5t35.5 -61.5t12.5 -74.5q0 -29 -8 -57t-25 -51q20 -24 47 -29.5t66 -5.5h16q22 0 22 -19q0 -20 -22 -20h-16q-17 0 -34.5 0.5t-35 5t-33.5 14t-31 26.5q-21 -20 -51.5 -33
t-71.5 -13h-277q-39 0 -66 12t-41 34v-30q0 -51 -17 -98t-48.5 -82.5t-76.5 -56.5t-101 -21h-56q-112 0 -174 69t-62 189v172h37v-171q0 -49 12.5 -89.5t38 -70t64.5 -45.5t91 -16h44q51 0 90 17.5t66 47.5t41 69t14 83v269h37v-156q0 -30 18 -53t48 -30zM1112 182
q0 34 -10.5 62.5t-29 48.5t-43 31.5t-51.5 11.5q-66 0 -134.5 -71.5t-152.5 -225.5h283q25 0 50 8t44.5 25t31.5 44.5t12 65.5zM945 479h-64v52h64v-52z" />
    <glyph glyph-name="zad.medi" unicode="&#x636;" horiz-adv-x="828" arabic-form="medial" 
d="M0 0zM236 43q50 92 93 155.5t82 102.5t75.5 56.5t73.5 17.5t68.5 -15.5t54.5 -41.5t35.5 -61.5t12.5 -74.5q0 -29 -8 -57t-25 -51q20 -24 47.5 -29.5t65.5 -5.5h17q22 0 22 -19q0 -20 -22 -20h-17q-17 0 -34.5 0.5t-35 5t-33.5 14t-30 26.5q-22 -20 -52.5 -33t-71.5 -13
h-284q-40 0 -72 14t-49 53q-21 -39 -55 -53t-70 -14h-24q-13 0 -17.5 5t-4.5 13q0 10 4.5 15.5t17.5 5.5h29q48 0 76 24.5t28 64.5v154h37v-154q0 -32 19 -55t47 -30zM693 182q0 34 -10.5 62.5t-29 48.5t-43 31.5t-51.5 11.5q-65 0 -134.5 -71.5t-152.5 -225.5h282
q26 0 51 8t44.5 25t31.5 44.5t12 65.5zM526 479h-64v52h64v-52z" />
    <glyph glyph-name="zad.init" unicode="&#x636;" horiz-adv-x="785" arabic-form="initial" 
d="M0 0zM236 43q50 92 93 155.5t82 102.5t75.5 56.5t73.5 17.5t68.5 -15.5t54.5 -41.5t35.5 -61.5t12.5 -74.5q0 -33 -10.5 -65.5t-32.5 -58.5t-55.5 -42t-78.5 -16h-284q-40 0 -72 14t-49 53q-21 -39 -55 -53t-70 -14h-24q-13 0 -17.5 5t-4.5 13q0 10 4.5 15.5t17.5 5.5h29
q48 0 76 24.5t28 64.5v154h37v-154q0 -32 19 -55t47 -30zM693 182q0 34 -10.5 62.5t-29 48.5t-43 31.5t-51.5 11.5q-65 0 -134.5 -71.5t-152.5 -225.5h282q26 0 51 8t44.5 25t31.5 44.5t12 65.5zM526 479h-64v52h64v-52z" />
    <glyph glyph-name="ta" unicode="&#x637;" horiz-adv-x="696" arabic-form="isolated" 
d="M146 620h38v-326v-89.5t-1 -89.5q82 139 152.5 199.5t135.5 60.5q37 0 68.5 -15.5t54.5 -41.5t35.5 -61.5t12.5 -74.5q0 -33 -10.5 -65.5t-32.5 -58.5t-55 -42t-79 -16h-411l-5 39h97v581zM604 182q0 34 -10.5 62.5t-29 48.5t-43 31.5t-51.5 11.5q-66 0 -134.5 -71.5
t-153.5 -225.5h284q25 0 50 8t44.5 25t31.5 44.5t12 65.5z" />
    <glyph glyph-name="ta.fina" unicode="&#x637;" horiz-adv-x="738" arabic-form="final" 
d="M146 620h38v-326v-90.5t-1 -88.5q82 139 152.5 199.5t135.5 60.5q37 0 68.5 -15.5t54.5 -41.5t35.5 -61.5t12.5 -74.5q0 -29 -8 -57t-25 -51q20 -24 47 -29.5t67 -5.5h15q13 0 17.5 -5.5t4.5 -13.5q0 -10 -4.5 -15t-17.5 -5h-15q-18 0 -36 0.5t-35 5t-33 14t-31 26.5
q-21 -20 -51.5 -33t-71.5 -13h-411l-5 39h97v581zM604 182q0 34 -10.5 62.5t-29 48.5t-43 31.5t-51.5 11.5q-66 0 -134.5 -71.5t-153.5 -225.5h284q25 0 50 8t44.5 25t31.5 44.5t12 65.5z" />
    <glyph glyph-name="ta.medi" unicode="&#x637;" horiz-adv-x="699" arabic-form="medial" 
d="M107 620h37v-326v-90.5t-1 -88.5q72 121 133.5 181.5t120.5 74.5q11 2 20 2.5t19 0.5q36 -1 66.5 -16.5t52.5 -41.5t34.5 -60.5t12.5 -73.5q0 -29 -8 -57t-25 -51q20 -24 47.5 -29.5t65.5 -5.5h17q22 0 22 -19q0 -20 -22 -20h-17q-17 0 -34.5 0.5t-35 5t-33.5 14
t-30 26.5q-22 -20 -52.5 -33t-70.5 -13h-426q-13 0 -17.5 5t-4.5 13q0 10 4.5 15.5t17.5 5.5h107v581zM565 182q0 34 -10.5 62.5t-29 48.5t-43 31.5t-52.5 11.5q-66 0 -134.5 -71.5t-153.5 -225.5h285q25 0 50 8t44.5 25t31.5 44.5t12 65.5z" />
    <glyph glyph-name="ta.init" unicode="&#x637;" horiz-adv-x="656" arabic-form="initial" 
d="M107 620h37v-326v-89.5t-1 -89.5q68 113 126 173t113 78q14 5 27.5 6.5t27.5 1.5q36 -1 66.5 -16.5t52.5 -42t34 -60.5t12 -73q0 -33 -10.5 -65.5t-32 -58.5t-55 -42t-78.5 -16h-426q-13 0 -17.5 5t-4.5 13q0 10 4.5 15.5t17.5 5.5h107v581zM565 182q0 34 -10.5 62.5
t-29 48.5t-43 31.5t-52.5 11.5q-66 0 -134.5 -71.5t-153.5 -225.5h285q25 0 50 8t44.5 25t31.5 44.5t12 65.5z" />
    <glyph glyph-name="za" unicode="&#x638;" horiz-adv-x="696" arabic-form="isolated" 
d="M49 0zM146 620h38v-326v-89.5t-1 -89.5q82 139 152.5 199.5t135.5 60.5q37 0 68.5 -15.5t54.5 -41.5t35.5 -61.5t12.5 -74.5q0 -33 -10.5 -65.5t-32.5 -58.5t-55 -42t-79 -16h-411l-5 39h97v581zM604 182q0 34 -10.5 62.5t-29 48.5t-43 31.5t-51.5 11.5
q-66 0 -134.5 -71.5t-153.5 -225.5h284q25 0 50 8t44.5 25t31.5 44.5t12 65.5zM499 504h-64v52h64v-52z" />
    <glyph glyph-name="za.fina" unicode="&#x638;" horiz-adv-x="738" arabic-form="final" 
d="M49 0zM146 620h38v-326v-90.5t-1 -88.5q82 139 152.5 199.5t135.5 60.5q37 0 68.5 -15.5t54.5 -41.5t35.5 -61.5t12.5 -74.5q0 -29 -8 -57t-25 -51q20 -24 47 -29.5t67 -5.5h15q13 0 17.5 -5.5t4.5 -13.5q0 -10 -4.5 -15t-17.5 -5h-15q-18 0 -36 0.5t-35 5t-33 14
t-31 26.5q-21 -20 -51.5 -33t-71.5 -13h-411l-5 39h97v581zM604 182q0 34 -10.5 62.5t-29 48.5t-43 31.5t-51.5 11.5q-66 0 -134.5 -71.5t-153.5 -225.5h284q25 0 50 8t44.5 25t31.5 44.5t12 65.5zM499 504h-64v52h64v-52z" />
    <glyph glyph-name="za.medi" unicode="&#x638;" horiz-adv-x="699" arabic-form="medial" 
d="M0 0zM107 620h37v-326v-90.5t-1 -88.5q72 121 133.5 181.5t120.5 74.5q11 2 20 2.5t19 0.5q36 -1 66.5 -16.5t52.5 -41.5t34.5 -60.5t12.5 -73.5q0 -29 -8 -57t-25 -51q20 -24 47.5 -29.5t65.5 -5.5h17q22 0 22 -19q0 -20 -22 -20h-17q-17 0 -34.5 0.5t-35 5t-33.5 14
t-30 26.5q-22 -20 -52.5 -33t-70.5 -13h-426q-13 0 -17.5 5t-4.5 13q0 10 4.5 15.5t17.5 5.5h107v581zM565 182q0 34 -10.5 62.5t-29 48.5t-43 31.5t-52.5 11.5q-66 0 -134.5 -71.5t-153.5 -225.5h285q25 0 50 8t44.5 25t31.5 44.5t12 65.5zM455 504h-64v52h64v-52z" />
    <glyph glyph-name="za.init" unicode="&#x638;" horiz-adv-x="656" arabic-form="initial" 
d="M0 0zM107 620h37v-326v-89.5t-1 -89.5q68 113 126 173t113 78q14 5 27.5 6.5t27.5 1.5q36 -1 66.5 -16.5t52.5 -42t34 -60.5t12 -73q0 -33 -10.5 -65.5t-32 -58.5t-55 -42t-78.5 -16h-426q-13 0 -17.5 5t-4.5 13q0 10 4.5 15.5t17.5 5.5h107v581zM565 182
q0 34 -10.5 62.5t-29 48.5t-43 31.5t-52.5 11.5q-66 0 -134.5 -71.5t-153.5 -225.5h285q25 0 50 8t44.5 25t31.5 44.5t12 65.5zM455 504h-64v52h64v-52z" />
    <glyph glyph-name="ein" unicode="&#x639;" horiz-adv-x="525" arabic-form="isolated" 
d="M193 26q-24 18 -39 40t-24 44.5t-12.5 42.5t-3.5 35q0 35 12 66t34 53.5t52.5 35.5t68.5 13q33 0 64.5 -10t69.5 -35l-16 -30q-32 19 -61 27.5t-57 8.5q-29 0 -53 -10.5t-41 -28.5t-26.5 -41.5t-9.5 -48.5q0 -26 9 -52t24.5 -48t35.5 -35.5t42 -13.5h184l-6 -39h-185
q-39 0 -70.5 -14.5t-53 -38t-33.5 -53.5t-12 -61q0 -91 47 -135.5t156 -44.5h185l-6 -38h-185q-68 0 -113 17.5t-72 47t-38 69t-11 83.5q0 63 37.5 117t106.5 77z" />
    <glyph glyph-name="ein.fina" unicode="&#x639;" horiz-adv-x="527" arabic-form="final" 
d="M246 60q-42 -31 -71.5 -59t-48 -55.5t-27 -56t-8.5 -60.5q0 -87 47.5 -131.5t155.5 -44.5h185l-5 -38h-185q-68 0 -113.5 17.5t-72.5 47t-38 68t-11 80.5q0 76 40.5 136t126.5 122l-167 214l26 47h254q22 0 41.5 -5t34.5 -14.5t23.5 -24.5t8.5 -36q0 -14 -4 -29t-20 -36
t-47.5 -50.5t-86.5 -73.5q16 -15 32.5 -22.5t36.5 -11.5t44 -4.5t55 -0.5h75q13 0 17.5 -5.5t4.5 -13.5q0 -10 -4.5 -15t-17.5 -5h-78q-35 0 -63 1t-52.5 6.5t-45.5 17.5t-42 35zM403 258q0 23 -19.5 37t-58.5 14h-231l163 -210q43 36 71 60.5t44.5 41.5t23.5 30t7 27z" />
    <glyph glyph-name="ein.medi" unicode="&#x639;" horiz-adv-x="564" arabic-form="medial" 
d="M36 39q25 0 52.5 1.5t55.5 6.5t56 14.5t55 26.5l-164 212l26 47h254q42 0 73 -18t33 -59v-9t-1 -9q-2 -12 -8.5 -26.5t-23.5 -35t-46.5 -47.5t-77.5 -65q16 -15 33 -22.5t36.5 -11.5t43.5 -4.5t55 -0.5h76q22 0 22 -19q0 -20 -22 -20h-79q-34 0 -62.5 1t-52.5 6.5
t-45.5 17.5t-42.5 35q-53 -36 -110.5 -48t-134.5 -12h-37q-13 0 -17.5 5t-4.5 13q0 10 4.5 15.5t17.5 5.5h36zM439 258q0 23 -19.5 37t-57.5 14h-231l162 -210q43 36 71.5 60.5t45 41.5t23 30t6.5 27z" />
    <glyph glyph-name="ein.init" unicode="&#x639;" horiz-adv-x="482" arabic-form="initial" 
d="M164 39q-21 18 -34 38.5t-20.5 40.5t-10.5 38.5t-3 31.5q0 35 12 66t34 53.5t52.5 35.5t68.5 13q34 0 65 -10t69 -35l-16 -30q-32 19 -61 27.5t-57 8.5q-29 0 -52.5 -10.5t-40.5 -28.5t-26.5 -41.5t-9.5 -48.5q0 -26 9 -52t24.5 -48t35.5 -35.5t42 -13.5h183l-5 -39h-423
q-13 0 -17.5 5t-4.5 13q0 10 4.5 15.5t17.5 5.5h164z" />
    <glyph glyph-name="qein" unicode="&#x63a;" horiz-adv-x="525" arabic-form="isolated" 
d="M49 0zM193 26q-24 18 -39 40t-24 44.5t-12.5 42.5t-3.5 35q0 35 12 66t34 53.5t52.5 35.5t68.5 13q33 0 64.5 -10t69.5 -35l-16 -30q-32 19 -61 27.5t-57 8.5q-29 0 -53 -10.5t-41 -28.5t-26.5 -41.5t-9.5 -48.5q0 -26 9 -52t24.5 -48t35.5 -35.5t42 -13.5h184l-6 -39
h-185q-39 0 -70.5 -14.5t-53 -38t-33.5 -53.5t-12 -61q0 -91 47 -135.5t156 -44.5h185l-6 -38h-185q-68 0 -113 17.5t-72 47t-38 69t-11 83.5q0 63 37.5 117t106.5 77zM307 494h-64v52h64v-52z" />
    <glyph glyph-name="qein.fina" unicode="&#x63a;" horiz-adv-x="527" arabic-form="final" 
d="M54 0zM246 60q-42 -31 -71.5 -59t-48 -55.5t-27 -56t-8.5 -60.5q0 -87 47.5 -131.5t155.5 -44.5h185l-5 -38h-185q-68 0 -113.5 17.5t-72.5 47t-38 68t-11 80.5q0 76 40.5 136t126.5 122l-167 214l26 47h254q22 0 41.5 -5t34.5 -14.5t23.5 -24.5t8.5 -36q0 -14 -4 -29
t-20 -36t-47.5 -50.5t-86.5 -73.5q16 -15 32.5 -22.5t36.5 -11.5t44 -4.5t55 -0.5h75q13 0 17.5 -5.5t4.5 -13.5q0 -10 -4.5 -15t-17.5 -5h-78q-35 0 -63 1t-52.5 6.5t-45.5 17.5t-42 35zM403 258q0 23 -19.5 37t-58.5 14h-231l163 -210q43 36 71 60.5t44.5 41.5t23.5 30
t7 27zM289 506h-64v52h64v-52z" />
    <glyph glyph-name="qein.medi" unicode="&#x63a;" horiz-adv-x="564" arabic-form="medial" 
d="M0 0zM36 39q25 0 52.5 1.5t55.5 6.5t56 14.5t55 26.5l-164 212l26 47h254q42 0 73 -18t33 -59v-9t-1 -9q-2 -12 -8.5 -26.5t-23.5 -35t-46.5 -47.5t-77.5 -65q16 -15 33 -22.5t36.5 -11.5t43.5 -4.5t55 -0.5h76q22 0 22 -19q0 -20 -22 -20h-79q-34 0 -62.5 1t-52.5 6.5
t-45.5 17.5t-42.5 35q-53 -36 -110.5 -48t-134.5 -12h-37q-13 0 -17.5 5t-4.5 13q0 10 4.5 15.5t17.5 5.5h36zM439 258q0 23 -19.5 37t-57.5 14h-231l162 -210q43 36 71.5 60.5t45 41.5t23 30t6.5 27zM329 506h-64v52h64v-52z" />
    <glyph glyph-name="qein.init" unicode="&#x63a;" horiz-adv-x="482" arabic-form="initial" 
d="M0 0zM164 39q-21 18 -34 38.5t-20.5 40.5t-10.5 38.5t-3 31.5q0 35 12 66t34 53.5t52.5 35.5t68.5 13q34 0 65 -10t69 -35l-16 -30q-32 19 -61 27.5t-57 8.5q-29 0 -52.5 -10.5t-40.5 -28.5t-26.5 -41.5t-9.5 -48.5q0 -26 9 -52t24.5 -48t35.5 -35.5t42 -13.5h183l-5 -39
h-423q-13 0 -17.5 5t-4.5 13q0 10 4.5 15.5t17.5 5.5h164zM269 494h-64v52h64v-52z" />
    <glyph glyph-name="fe" unicode="&#x641;" horiz-adv-x="856" arabic-form="isolated" 
d="M460 230q0 28 11 57.5t32.5 53.5t53.5 39t73 15q37 0 68 -10.5t53 -34t34 -60.5t12 -89v-40q0 -75 -46.5 -118t-146.5 -43h-396q-41 0 -70.5 12.5t-48 33.5t-27 49t-8.5 59v128h37v-120q0 -55 28.5 -89t96.5 -34h370q24 0 43.5 2t38.5 5q-72 22 -113.5 42.5t-62.5 42
t-26.5 45.5t-5.5 54zM497 232q0 -23 4.5 -42.5t25.5 -38.5t65 -39.5t124 -46.5q19 14 31 37.5t12 55.5v38q0 77 -31.5 118.5t-102.5 41.5q-29 0 -53 -10.5t-40.5 -28t-25.5 -40t-9 -45.5zM658 506h-64v52h64v-52z" />
    <glyph glyph-name="fe.fina" unicode="&#x641;" horiz-adv-x="893" arabic-form="final" 
d="M626 345q-31 0 -56 -10.5t-42 -29t-26.5 -43t-9.5 -51.5q0 -32 14 -58t35.5 -46.5t47 -34.5t47.5 -22q16 8 37.5 22t40.5 34t32 45t13 56q0 61 -35.5 99.5t-97.5 38.5zM631 384q42 0 73 -14.5t51.5 -37.5t31 -52.5t10.5 -60.5q0 -53 -28.5 -99t-89.5 -81h214q22 0 22 -19
q0 -20 -22 -20h-118q-46 0 -82 1.5t-56 10.5q-15 -5 -35.5 -7t-42 -3.5t-42 -1.5h-34.5h-275q-41 0 -70.5 12.5t-48 33.5t-27 49t-8.5 59v128h37v-120q0 -55 28.5 -89t96.5 -34h371q-58 26 -95 71t-37 103q0 33 12 64t34.5 54.5t55.5 38t74 14.5zM658 494h-64v52h64v-52z
" />
    <glyph glyph-name="fe.medi" unicode="&#x641;" horiz-adv-x="534" arabic-form="medial" 
d="M0 0zM229 39q-59 26 -96 71t-37 103q0 33 12 64t35 54.5t56 38t74 14.5t72 -14.5t51.5 -37.5t31 -52.5t10.5 -60.5q0 -53 -28 -99t-90 -81h214q22 0 22 -19q0 -20 -22 -20h-118q-45 0 -81 1.5t-57 10.5q-14 -5 -34.5 -7t-42 -3.5t-42 -1.5h-34.5h-125q-13 0 -17.5 5
t-4.5 13q0 10 4.5 15.5t17.5 5.5h229zM267 345q-31 0 -55.5 -10.5t-42 -29t-26.5 -43t-9 -51.5q0 -32 14 -58t35.5 -46.5t46.5 -34.5t47 -22q16 8 37.5 22t40.5 34t32.5 45t13.5 56q0 61 -35.5 99.5t-98.5 38.5zM309 494h-64v52h64v-52z" />
    <glyph glyph-name="fe.init" unicode="&#x641;" horiz-adv-x="492" arabic-form="initial" 
d="M0 0zM227 39q42 0 76 7q-72 22 -113.5 42.5t-62 42t-26 45.5t-5.5 54q0 28 11 57.5t32.5 53.5t53.5 39t73 15q37 0 68 -10.5t53 -34t34 -60.5t12 -89v-40q0 -75 -46.5 -118t-146.5 -43h-240q-13 0 -17.5 5t-4.5 13q0 10 4.5 15.5t17.5 5.5h227zM261 356
q-29 0 -52.5 -10.5t-40.5 -28t-26 -40t-9 -45.5t4 -42.5t25 -38.5t65 -39.5t124 -46.5q20 14 32 37.5t12 55.5v38q0 77 -31.5 118.5t-102.5 41.5zM298 506h-64v52h64v-52z" />
    <glyph glyph-name="qaf" unicode="&#x642;" horiz-adv-x="712" arabic-form="isolated" 
d="M406 -204q48 0 86.5 16.5t65.5 44.5t42 65t17 78h-124q-51 0 -84.5 11t-52.5 31.5t-26.5 49t-7.5 64.5q0 37 11 71t32 59.5t52 41t72 15.5q33 0 62.5 -11t52 -34t36 -60t13.5 -89v-133q0 -51 -17 -98t-48 -82.5t-76 -56.5t-100 -21h-122q-112 0 -174 69t-62 189v172h37
v-171q0 -49 12.5 -89.5t38 -70t64.5 -45.5t91 -16h109zM360 157q0 -31 6.5 -53.5t23.5 -36.5t45.5 -21t73.5 -7h108v96q0 90 -35.5 130t-98.5 40q-58 0 -90.5 -41t-32.5 -107zM580 466h-60v51h60v-51zM466 466h-62v51h62v-51z" />
    <glyph glyph-name="qaf.fina" unicode="&#x642;" horiz-adv-x="761" arabic-form="final" 
d="M652 0q-2 -49 -20 -93t-49.5 -77t-74.5 -52.5t-96 -19.5h-122q-112 0 -174 69t-62 189v172h37v-171q0 -49 12.5 -89.5t38 -70t64.5 -45.5t91 -16h109q48 0 86.5 16.5t65.5 44.5t42 65t17 78h-124q-51 0 -84.5 11t-52.5 31.5t-26.5 49t-7.5 64.5q0 37 11 71t32 59.5t52 41
t72 15.5q33 0 62.5 -11t52 -34t36 -60t13.5 -89v-110h108q22 0 22 -19q0 -20 -22 -20h-109zM360 157q0 -31 6.5 -53.5t23.5 -36.5t45.5 -21t73.5 -7h108v96q0 90 -35.5 130t-98.5 40q-58 0 -90.5 -41t-32.5 -107zM580 466h-60v51h60v-51zM466 466h-62v51h62v-51z" />
    <glyph glyph-name="qaf.medi" unicode="&#x642;" horiz-adv-x="534" arabic-form="medial" 
d="M0 0zM229 39q-59 26 -96 71t-37 103q0 33 12 64t35 54.5t56 38t74 14.5t72 -14.5t51.5 -37.5t31 -52.5t10.5 -60.5q0 -53 -28 -99t-90 -81h214q22 0 22 -19q0 -20 -22 -20h-118q-45 0 -81 1.5t-57 10.5q-14 -5 -34.5 -7t-42 -3.5t-42 -1.5h-34.5h-125q-13 0 -17.5 5
t-4.5 13q0 10 4.5 15.5t17.5 5.5h229zM267 345q-31 0 -55.5 -10.5t-42 -29t-26.5 -43t-9 -51.5q0 -32 14 -58t35.5 -46.5t46.5 -34.5t47 -22q16 8 37.5 22t40.5 34t32.5 45t13.5 56q0 61 -35.5 99.5t-98.5 38.5zM354 490h-60v51h60v-51zM240 490h-62v51h62v-51z" />
    <glyph glyph-name="qaf.init" unicode="&#x642;" horiz-adv-x="492" arabic-form="initial" 
d="M0 0zM227 39q42 0 76 7q-72 22 -113.5 42.5t-62 42t-26 45.5t-5.5 54q0 28 11 57.5t32.5 53.5t53.5 39t73 15q37 0 68 -10.5t53 -34t34 -60.5t12 -89v-40q0 -75 -46.5 -118t-146.5 -43h-240q-13 0 -17.5 5t-4.5 13q0 10 4.5 15.5t17.5 5.5h227zM261 356
q-29 0 -52.5 -10.5t-40.5 -28t-26 -40t-9 -45.5t4 -42.5t25 -38.5t65 -39.5t124 -46.5q20 14 32 37.5t12 55.5v38q0 77 -31.5 118.5t-102.5 41.5zM352 506h-60v51h60v-51zM238 506h-62v51h62v-51z" />
    <glyph glyph-name="kaf" unicode="&#x6a9;" horiz-adv-x="800" arabic-form="isolated" 
d="M595 39q57 0 79.5 23t22.5 58q0 20 -7 45.5t-40 58.5l-236 235v39l332 135l12 -37l-305 -124l204 -204q25 -25 40.5 -44.5t24 -37t11.5 -33.5t3 -35q0 -60 -38.5 -89t-100.5 -29h-384q-41 0 -70.5 12.5t-48 33.5t-27 49t-8.5 59v128h37v-120q0 -55 29 -89t96 -34h374z
" />
    <glyph glyph-name="kaf.fina" unicode="&#x6a9;" horiz-adv-x="948" arabic-form="final" 
d="M414 459v39l332 135l12 -37l-305 -124l204 -204q55 -55 94 -93.5t66.5 -64t45.5 -39.5t32 -21.5t26 -9t27 -1.5q13 0 17.5 -5.5t4.5 -13.5q0 -10 -4.5 -15t-17.5 -5q-27 0 -48 7t-44 23.5t-52.5 44.5t-73.5 71q7 -38 -0.5 -65.5t-26 -45.5t-46 -26.5t-60.5 -8.5h-384
q-41 0 -70.5 12.5t-48 33.5t-27 49t-8.5 59v128h37v-120q0 -56 29 -89.5t96 -33.5h374q56 0 79 23t23 58q0 20 -7 45.5t-40 58.5z" />
    <glyph glyph-name="kaf.medi" unicode="&#x6a9;" horiz-adv-x="628" arabic-form="medial" 
d="M276 39q57 0 79.5 23t22.5 58q0 20 -7 45.5t-40 58.5l-236 235v39l332 135l12 -37l-305 -124l205 -204l93.5 -93.5t66 -64t45.5 -39.5t32 -21.5t25.5 -9t26.5 -1.5q13 0 17.5 -5.5t4.5 -13.5q0 -10 -4.5 -15t-17.5 -5q-27 0 -47.5 7t-43.5 23.5t-52.5 44.5t-73.5 71
q7 -38 -0.5 -65.5t-26.5 -45.5t-46.5 -26.5t-60.5 -8.5h-277q-13 0 -17.5 5t-4.5 13q0 10 4.5 15.5t17.5 5.5h276z" />
    <glyph glyph-name="kaf.init" unicode="&#x6a9;" horiz-adv-x="481" arabic-form="initial" 
d="M276 39q57 0 79.5 23t22.5 58q0 20 -7 45.5t-40 58.5l-236 235v39l332 135l12 -37l-305 -124l205 -204q25 -25 40 -44.5t23 -36.5t11 -33.5t3 -35.5q0 -60 -38 -89t-101 -29h-277q-13 0 -17.5 5t-4.5 13q0 10 4.5 15.5t17.5 5.5h276z" />
    <glyph glyph-name="kaf.arab" unicode="&#x643;" horiz-adv-x="775" arabic-form="isolated" 
d="M425 209v96q0 8 -6 15t-23 7h-125v108q0 47 27.5 73.5t78.5 26.5h42l5 -33h-47q-72 0 -72 -68v-73h107q26 0 36 -15t10 -33v-104h-33zM213 0q-41 0 -70.5 12.5t-48 33.5t-27 49t-8.5 59v128h37v-120q0 -55 29 -89t96 -34h344q45 0 72.5 24.5t27.5 64.5v492h37v-488
q0 -61 -38 -96.5t-98 -35.5h-353z" />
    <glyph glyph-name="kaf.arab.fina" unicode="&#x643;" horiz-adv-x="810" arabic-form="final" 
d="M425 209v96q0 8 -6 15t-23 7h-125v108q0 47 27.5 73.5t78.5 26.5h42l5 -33h-47q-72 0 -72 -68v-73h107q26 0 36 -15t10 -33v-104h-33zM213 0q-41 0 -70.5 12.5t-48 33.5t-27 49t-8.5 59v128h37v-120q0 -55 29 -89t96 -34h344q48 0 74 24.5t26 64.5v492h37v-492
q0 -26 8.5 -43t22 -27t30 -14.5t33.5 -4.5h14q22 0 22 -19q0 -20 -22 -20h-15q-35 0 -66 14t-48 53q-22 -39 -52.5 -53t-63.5 -14h-352z" />
    <glyph glyph-name="gaf" unicode="&#x6af;" horiz-adv-x="800" arabic-form="isolated" 
d="M413 624l299 126l11 -32l-309 -129zM595 39q57 0 79.5 23t22.5 58q0 20 -7 45.5t-40 58.5l-236 235v39l332 135l12 -37l-305 -124l204 -204q25 -25 40.5 -44.5t24 -37t11.5 -33.5t3 -35q0 -60 -38.5 -89t-100.5 -29h-384q-41 0 -70.5 12.5t-48 33.5t-27 49t-8.5 59v128
h37v-120q0 -55 29 -89t96 -34h374z" />
    <glyph glyph-name="gaf.fina" unicode="&#x6af;" horiz-adv-x="948" arabic-form="final" 
d="M413 624l299 126l11 -32l-309 -129zM414 459v39l332 135l12 -37l-305 -124l204 -204q55 -55 94 -93.5t66.5 -64t45.5 -39.5t32 -21.5t26 -9t27 -1.5q13 0 17.5 -5.5t4.5 -13.5q0 -10 -4.5 -15t-17.5 -5q-27 0 -48 7t-44 23.5t-52.5 44.5t-73.5 71q7 -38 -0.5 -65.5
t-26 -45.5t-46 -26.5t-60.5 -8.5h-384q-41 0 -70.5 12.5t-48 33.5t-27 49t-8.5 59v128h37v-120q0 -56 29 -89.5t96 -33.5h374q56 0 79 23t23 58q0 20 -7 45.5t-40 58.5z" />
    <glyph glyph-name="gaf.medi" unicode="&#x6af;" horiz-adv-x="628" arabic-form="medial" 
d="M95 624l299 126l11 -32l-310 -129v35zM276 39q57 0 79.5 23t22.5 58q0 20 -7 45.5t-40 58.5l-236 235v39l332 135l12 -37l-305 -124l205 -204l93.5 -93.5t66 -64t45.5 -39.5t32 -21.5t25.5 -9t26.5 -1.5q13 0 17.5 -5.5t4.5 -13.5q0 -10 -4.5 -15t-17.5 -5q-27 0 -47.5 7
t-43.5 23.5t-52.5 44.5t-73.5 71q7 -38 -0.5 -65.5t-26.5 -45.5t-46.5 -26.5t-60.5 -8.5h-277q-13 0 -17.5 5t-4.5 13q0 10 4.5 15.5t17.5 5.5h276z" />
    <glyph glyph-name="gaf.init" unicode="&#x6af;" horiz-adv-x="481" arabic-form="initial" 
d="M95 624l299 126l11 -32l-310 -129v35zM276 39q57 0 79.5 23t22.5 58q0 20 -7 45.5t-40 58.5l-236 235v39l332 135l12 -37l-305 -124l205 -204q25 -25 40 -44.5t23 -36.5t11 -33.5t3 -35.5q0 -60 -38 -89t-101 -29h-277q-13 0 -17.5 5t-4.5 13q0 10 4.5 15.5t17.5 5.5h276
z" />
    <glyph glyph-name="lam" unicode="&#x644;" horiz-adv-x="663" arabic-form="isolated" 
d="M589 17q0 -52 -17 -99t-48.5 -82.5t-76.5 -56.5t-101 -21h-56q-112 0 -174 69t-62 189v172h37v-171q0 -49 12.5 -89.5t38 -70t64.5 -45.5t91 -16h44q51 0 90 17.5t66 47.5t41 69t14 83v607h37v-603z" />
    <glyph glyph-name="lam.fina" unicode="&#x644;" horiz-adv-x="695" arabic-form="final" 
d="M684 0q-27 0 -53 10.5t-42 34.5v-28q0 -52 -17 -99t-48.5 -82.5t-76.5 -56.5t-101 -21h-56q-112 0 -174 69t-62 189v172h37v-171q0 -49 12.5 -89.5t38 -70t64.5 -45.5t91 -16h44q51 0 90 17.5t66 47.5t41 69t14 83v607h37v-496q0 -37 26 -61t69 -24h11q23 0 23 -19
q0 -20 -23 -20h-11z" />
    <glyph glyph-name="lam.medi" unicode="&#x644;" horiz-adv-x="271" arabic-form="medial" 
d="M27 39q48 0 73.5 24.5t25.5 64.5v492h37v-492q0 -26 8.5 -43t22 -27t30.5 -14.5t33 -4.5h14q13 0 17.5 -5.5t4.5 -13.5q0 -10 -4.5 -15t-17.5 -5h-14q-35 0 -66.5 14t-48.5 53q-20 -39 -51.5 -53t-63.5 -14h-27q-13 0 -17.5 5t-4.5 13q0 10 4.5 15.5t17.5 5.5h27z" />
    <glyph glyph-name="lam.init" unicode="&#x644;" horiz-adv-x="237" arabic-form="initial" 
d="M27 39q44 0 71.5 24.5t27.5 64.5v492h37v-488q0 -61 -37 -96.5t-98 -35.5h-28q-13 0 -17.5 5t-4.5 13q0 10 4.5 15.5t17.5 5.5h27z" />
    <glyph glyph-name="mim" unicode="&#x645;" horiz-adv-x="631" arabic-form="isolated" 
d="M406 0q-67 0 -108.5 36.5t-41.5 106.5v69q0 36 10 61.5t36 48.5h-55q-37 0 -65.5 -10.5t-47.5 -29.5t-28.5 -44t-9.5 -54v-426h-37v426q0 35 12.5 67t36.5 56.5t60 39t84 14.5h181q39 0 65.5 -11.5t43 -30t23.5 -41.5t7 -46v-88q0 -75 -45.5 -109.5t-120.5 -34.5zM412 39
q55 0 89 24t34 78v83q0 19 -6 37t-18 31.5t-30.5 21.5t-43.5 8h-46q-50 0 -74 -30.5t-24 -73.5v-72q0 -53 32 -80t87 -27z" />
    <glyph glyph-name="mim.fina" unicode="&#x645;" horiz-adv-x="678" arabic-form="final" 
d="M572 140q0 -56 24.5 -78.5t60.5 -22.5h21q13 0 17.5 -5.5t4.5 -13.5q0 -10 -4.5 -15t-17.5 -5h-21q-33 0 -60.5 12.5t-44.5 56.5q-12 -22 -29.5 -35.5t-37.5 -21t-40.5 -10t-38.5 -2.5q-67 0 -108.5 36.5t-41.5 106.5v69q0 36 10 61.5t36 48.5h-55q-37 0 -65.5 -10.5
t-47.5 -29.5t-28.5 -44t-9.5 -54v-426h-37v426q0 35 12.5 67t36.5 56.5t60 39t84 14.5h181q39 0 65.5 -11.5t43 -30t23.5 -41.5t7 -46v-92zM412 39q55 0 89 24t34 78v83q0 19 -6 37t-18 31.5t-30.5 21.5t-43.5 8h-46q-50 0 -74 -30.5t-24 -73.5v-72q0 -53 32 -80t87 -27z
" />
    <glyph glyph-name="mim.medi" unicode="&#x645;" horiz-adv-x="538" arabic-form="medial" 
d="M20 39q44 0 65 23t21 56v50q0 91 43.5 139t122.5 48q82 0 121.5 -49.5t39.5 -127.5v-41q0 -55 23 -76.5t61 -21.5h21q13 0 17.5 -5.5t4.5 -13.5q0 -10 -4.5 -15t-17.5 -5h-21q-16 0 -31.5 3t-30 11.5t-26 24t-19.5 41.5q-27 -49 -65.5 -64.5t-78.5 -15.5
q-41 0 -77.5 15.5t-60.5 59.5q-9 -26 -22 -41t-27 -22.5t-29 -9.5t-30 -2h-20q-13 0 -17.5 5t-4.5 13q0 10 4.5 15.5t17.5 5.5h20zM395 171q0 66 -28.5 105.5t-97.5 39.5q-61 0 -94.5 -37.5t-33.5 -113.5q0 -62 36 -94t89 -32q64 0 96.5 34.5t32.5 97.5z" />
    <glyph glyph-name="mim.init" unicode="&#x645;" horiz-adv-x="492" arabic-form="initial" 
d="M20 39q44 0 65 23t21 56v50q0 91 43.5 139t122.5 48q82 0 121.5 -49.5t39.5 -127.5q0 -85 -44 -131.5t-123 -46.5q-41 0 -77.5 15.5t-60.5 59.5q-9 -26 -22 -41t-27 -22.5t-29 -9.5t-30 -2h-20q-13 0 -17.5 5t-4.5 13q0 10 4.5 15.5t17.5 5.5h20zM395 171
q0 66 -28.5 105.5t-97.5 39.5q-61 0 -94.5 -37.5t-33.5 -113.5q0 -62 36 -94t89 -32q64 0 96.5 34.5t32.5 97.5z" />
    <glyph glyph-name="nun" unicode="&#x646;" horiz-adv-x="648" arabic-form="isolated" 
d="M589 17q0 -52 -17 -99t-48.5 -82.5t-76.5 -56.5t-101 -21h-56q-112 0 -174 69t-62 189v172h37v-171q0 -49 12.5 -89.5t38 -70t64.5 -45.5t91 -16h44q51 0 90 17.5t66 47.5t41 69t14 83v269h37v-265zM344 308h-64v52h64v-52z" />
    <glyph glyph-name="nun.fina" unicode="&#x646;" horiz-adv-x="695" arabic-form="final" 
d="M684 0q-27 0 -53 10.5t-42 34.5v-28q0 -52 -17 -99t-48.5 -82.5t-76.5 -56.5t-101 -21h-56q-112 0 -174 69t-62 189v172h37v-171q0 -49 12.5 -89.5t38 -70t64.5 -45.5t91 -16h44q51 0 90 17.5t66 47.5t41 69t14 83v269h37v-158q0 -37 26 -61t69 -24h11q23 0 23 -19
q0 -20 -23 -20h-11zM344 308h-64v52h64v-52z" />
    <glyph glyph-name="nun.medi" unicode="&#x646;" horiz-adv-x="345" arabic-form="medial" 
d="M0 0zM80 39q48 0 74 24.5t26 64.5v154h38v-154q0 -26 8.5 -43t22 -27t30 -14.5t32.5 -4.5h34q23 0 23 -19q0 -20 -23 -20h-34q-36 0 -67 14t-48 53q-21 -39 -51.5 -53t-64.5 -14h-80q-13 0 -17.5 5t-4.5 13q0 10 4.5 15.5t17.5 5.5h80zM223 417h-64v52h64v-52z" />
    <glyph glyph-name="nun.init" unicode="&#x646;" horiz-adv-x="284" arabic-form="initial" 
d="M0 0zM89 39q43 0 71.5 24.5t28.5 64.5v154h36v-150q0 -61 -37.5 -96.5t-97.5 -35.5h-90q-13 0 -17.5 5t-4.5 13q0 10 4.5 15.5t17.5 5.5h89zM203 417h-64v52h64v-52z" />
    <glyph glyph-name="vav" unicode="&#x648;" horiz-adv-x="451" arabic-form="isolated" 
d="M148 -204q48 0 86 16.5t64 44.5t40 65t16 78h-124q-51 0 -84 11t-52 31.5t-26.5 49t-7.5 64.5q0 37 10.5 71t31.5 59.5t52 41t72 15.5q33 0 63 -11t53 -34t36.5 -60t13.5 -89v-133q0 -51 -16.5 -98t-47 -82.5t-75 -56.5t-100.5 -21h-108l-6 38h109zM97 157
q0 -31 6.5 -53.5t23.5 -36.5t46 -21t73 -7h108v96q0 90 -35.5 130t-98.5 40q-58 0 -90.5 -41t-32.5 -107z" />
    <glyph glyph-name="vav.fina" unicode="&#x648;" horiz-adv-x="498" arabic-form="final" 
d="M148 -204q48 0 86 16.5t64 44.5t40 65t16 78h-124q-51 0 -84 11t-52 31.5t-26.5 49t-7.5 64.5q0 37 10.5 71t31.5 59.5t52 41t72 15.5q33 0 63 -11t53 -34t36.5 -60t13.5 -89v-110h106q12 0 16.5 -5.5t4.5 -13.5q0 -10 -4.5 -15t-16.5 -5h-108q-3 -49 -20 -93t-47.5 -77
t-73 -52.5t-96.5 -19.5h-108l-6 38h109zM97 157q0 -31 6.5 -53.5t23.5 -36.5t46 -21t73 -7h108v96q0 90 -35.5 130t-98.5 40q-58 0 -90.5 -41t-32.5 -107z" />
    <glyph glyph-name="vav.thmz" unicode="&#x624;" horiz-adv-x="451" arabic-form="isolated" 
d="M39 0zM148 -204q48 0 86 16.5t64 44.5t40 65t16 78h-124q-51 0 -84 11t-52 31.5t-26.5 49t-7.5 64.5q0 37 10.5 71t31.5 59.5t52 41t72 15.5q33 0 63 -11t53 -34t36.5 -60t13.5 -89v-133q0 -51 -16.5 -98t-47 -82.5t-75 -56.5t-100.5 -21h-108l-6 38h109zM97 157
q0 -31 6.5 -53.5t23.5 -36.5t46 -21t73 -7h108v96q0 90 -35.5 130t-98.5 40q-58 0 -90.5 -41t-32.5 -107zM306 506l-185 -94l-13 26l75 37q-19 3 -32.5 11.5t-22 21t-12.5 27t-4 28.5q0 42 26 68t68 26h47l-5 -28h-36q-35 0 -53.5 -20t-18.5 -47q0 -31 20.5 -49t46.5 -18
q16 0 38 11l50 25z" />
    <glyph glyph-name="vav.thmz.fina" unicode="&#x624;" horiz-adv-x="498" arabic-form="final" 
d="M39 0zM148 -204q48 0 86 16.5t64 44.5t40 65t16 78h-124q-51 0 -84 11t-52 31.5t-26.5 49t-7.5 64.5q0 37 10.5 71t31.5 59.5t52 41t72 15.5q33 0 63 -11t53 -34t36.5 -60t13.5 -89v-110h106q12 0 16.5 -5.5t4.5 -13.5q0 -10 -4.5 -15t-16.5 -5h-108q-3 -49 -20 -93
t-47.5 -77t-73 -52.5t-96.5 -19.5h-108l-6 38h109zM97 157q0 -31 6.5 -53.5t23.5 -36.5t46 -21t73 -7h108v96q0 90 -35.5 130t-98.5 40q-58 0 -90.5 -41t-32.5 -107zM306 506l-185 -94l-13 26l75 37q-19 3 -32.5 11.5t-22 21t-12.5 27t-4 28.5q0 42 26 68t68 26h47l-5 -28
h-36q-35 0 -53.5 -20t-18.5 -47q0 -31 20.5 -49t46.5 -18q16 0 38 11l50 25z" />
    <glyph glyph-name="he" unicode="&#x647;" horiz-adv-x="460" arabic-form="isolated" 
d="M54 154q0 31 8.5 58.5t27 57t47.5 62.5t70 74l-47 47l27 28q62 -62 104 -107t67.5 -80t36.5 -65.5t11 -63.5q0 -35 -13.5 -65.5t-38 -52.5t-57.5 -34.5t-72 -12.5t-71 11.5t-54 32t-34 49t-12 61.5zM369 161q0 25 -7 48t-23.5 48.5t-43 54.5t-65.5 67
q-44 -43 -71.5 -75.5t-42.5 -58t-20 -46.5t-5 -42q0 -51 36 -84.5t99 -33.5q31 0 57 10t45 26.5t30 38.5t11 47z" />
    <glyph glyph-name="he.fina" unicode="&#x647;" horiz-adv-x="498" arabic-form="final" 
d="M215 80q63 0 101 24.5t38 60.5v189h-133q-60 0 -95 -42.5t-35 -111.5q0 -35 8.5 -58t24.5 -37t39 -19.5t52 -5.5zM392 157q0 -51 19.5 -84.5t73.5 -33.5h13q12 0 16.5 -5.5t4.5 -13.5q0 -10 -4.5 -15t-16.5 -5h-13q-43 0 -76.5 20.5t-47.5 78.5q-12 -17 -31 -28t-40 -17
t-43 -8.5t-40 -2.5q-74 0 -113.5 36t-39.5 115q0 37 10.5 72.5t31.5 63.5t53 45t76 17h129v71h38v-306z" />
    <glyph glyph-name="he.medi" unicode="&#x647;" horiz-adv-x="542" arabic-form="medial" 
d="M106 39v128q0 35 8 71t26.5 65.5t49 48.5t76.5 19q37 0 65.5 -12t47 -32.5t28 -48.5t9.5 -61q0 -44 -21 -83.5t-57.5 -68.5t-87 -46.5t-108.5 -18.5v-80q0 -35 6.5 -57.5t18.5 -36.5t28 -21t34 -9l103 138q28 37 52 58t48 31.5t50.5 13t59.5 2.5q13 0 17.5 -5.5
t4.5 -13.5q0 -10 -4.5 -15t-17.5 -5q-34 0 -58.5 -2.5t-46.5 -12t-43 -30t-48 -56.5l-103 -141q-28 0 -53 8t-43.5 27t-29.5 50t-11 76v81h-106q-13 0 -17.5 5t-4.5 13q0 10 4.5 15.5t17.5 5.5h106zM142 38q58 0 102.5 15.5t74.5 39.5t45.5 54.5t15.5 61.5q0 54 -28 89
t-86 35t-91 -44t-33 -122v-129z" />
    <glyph glyph-name="he.init" unicode="&#x647;" horiz-adv-x="723" arabic-form="initial" 
d="M266 336q-30 0 -55 -11t-42 -29.5t-26.5 -43t-9.5 -51.5q0 -32 14 -56.5t35.5 -43t46.5 -31t47 -21.5q16 9 38 21.5t41 30.5t32.5 41.5t13.5 54.5q0 61 -36 100t-99 39zM0 0q-13 0 -17.5 5t-4.5 13q0 10 4.5 15.5t17.5 5.5h229q-59 25 -96 65.5t-37 99.5q0 33 12 63.5
t34.5 54.5t55.5 38t74 14t72 -14.5t51.5 -37.5t31 -52.5t10.5 -60.5q0 -52 -28 -93.5t-90 -76.5h205q49 0 77.5 23.5t28.5 61.5q0 19 -8 40t-28 42l-193 215l29 27l194 -218q25 -29 35 -55.5t10 -52.5q0 -54 -38 -88t-106 -34h-110q-45 0 -81 1.5t-57 10.5q-14 -5 -34.5 -7
t-42 -3.5t-42 -1.5h-34.5h-124z" />
    <glyph glyph-name="te.marbuta" unicode="&#x629;" horiz-adv-x="460" arabic-form="isolated" 
d="M54 0zM54 154q0 31 8.5 58.5t27 57t47.5 62.5t70 74l-47 47l27 28q62 -62 104 -107t67.5 -80t36.5 -65.5t11 -63.5q0 -35 -13.5 -65.5t-38 -52.5t-57.5 -34.5t-72 -12.5t-71 11.5t-54 32t-34 49t-12 61.5zM369 161q0 25 -7 48t-23.5 48.5t-43 54.5t-65.5 67
q-44 -43 -71.5 -75.5t-42.5 -58t-20 -46.5t-5 -42q0 -51 36 -84.5t99 -33.5q31 0 57 10t45 26.5t30 38.5t11 47zM302 570h-60v51h60v-51zM188 570h-62v51h62v-51z" />
    <glyph glyph-name="te.marbuta.fina" unicode="&#x629;" horiz-adv-x="498" arabic-form="final" 
d="M54 0zM215 80q63 0 101 24.5t38 60.5v189h-133q-60 0 -95 -42.5t-35 -111.5q0 -35 8.5 -58t24.5 -37t39 -19.5t52 -5.5zM392 157q0 -51 19.5 -84.5t73.5 -33.5h13q12 0 16.5 -5.5t4.5 -13.5q0 -10 -4.5 -15t-16.5 -5h-13q-43 0 -76.5 20.5t-47.5 78.5q-12 -17 -31 -28
t-40 -17t-43 -8.5t-40 -2.5q-74 0 -113.5 36t-39.5 115q0 37 10.5 72.5t31.5 63.5t53 45t76 17h129v71h38v-306zM370 553h-60v51h60v-51zM256 553h-62v51h62v-51z" />
    <glyph glyph-name="he.thmz" unicode="&#x6c0;" horiz-adv-x="460" arabic-form="isolated" 
d="M171 581q-42 0 -60 20.5t-18 46.5q0 9 2 18.5t7 22t15 30t26 42.5h116l-5 -33h-95q-18 -28 -26 -44.5t-8 -30.5t10.5 -26.5t41.5 -12.5h199l-3 -33h-202zM54 154q0 31 8.5 58.5t27 57t47.5 62.5t70 74l-47 47l27 28q62 -62 104 -107t67.5 -80t36.5 -65.5t11 -63.5
q0 -35 -13.5 -65.5t-38 -52.5t-57.5 -34.5t-72 -12.5t-71 11.5t-54 32t-34 49t-12 61.5zM369 161q0 25 -7 48t-23.5 48.5t-43 54.5t-65.5 67q-44 -43 -71.5 -75.5t-42.5 -58t-20 -46.5t-5 -42q0 -51 36 -84.5t99 -33.5q31 0 57 10t45 26.5t30 38.5t11 47z" />
    <glyph glyph-name="he.thmz.fina" unicode="&#x6c0;" horiz-adv-x="502" arabic-form="final" 
d="M183 519q-42 0 -60 20.5t-18 46.5q0 9 2 18.5t7 22t15 30t26 42.5h117l-6 -34h-94q-19 -27 -26.5 -43.5t-7.5 -29.5q0 -14 9.5 -26.5t41.5 -12.5h200l-3 -34h-203zM220 80q62 0 100.5 24.5t38.5 60.5v189h-134q-60 0 -95 -42.5t-35 -111.5q0 -35 8.5 -58t24.5 -37
t39 -19.5t53 -5.5zM396 157q0 -26 4.5 -47.5t15 -37t29 -24.5t45.5 -9h12q12 0 16.5 -5.5t4.5 -13.5q0 -10 -4.5 -15t-16.5 -5h-12q-43 0 -76.5 20.5t-47.5 78.5q-12 -17 -31 -28t-40.5 -17t-43 -8.5t-39.5 -2.5q-75 0 -114 36t-39 115q0 37 10.5 72.5t31.5 63.5t53 45
t75 17h167v-235z" />
    <glyph glyph-name="ye" unicode="&#x6cc;" horiz-adv-x="676" arabic-form="isolated" 
d="M54 0zM367 -204q43 0 82.5 13.5t69.5 37t48 55.5t18 69q0 16 -3.5 30t-14 24.5t-28.5 17t-46 6.5h-176v159q0 75 43.5 121t118.5 46h115l5 -39h-125q-22 0 -43.5 -7.5t-38.5 -23t-27.5 -38.5t-10.5 -53v-127h146q37 0 61 -9.5t37.5 -24.5t18.5 -34.5t5 -39.5
q0 -46 -20 -86t-54 -70t-79 -47.5t-96 -17.5h-83q-112 0 -174 69t-62 189v172h37v-171q0 -49 12.5 -89.5t38 -70t64.5 -45.5t91 -16h70z" />
    <glyph glyph-name="ye.fina" unicode="&#x6cc;" horiz-adv-x="707" arabic-form="final" 
d="M54 0zM379 -204q56 0 95 13t64 33t36 45t11 49q0 28 -13.5 46t-45.5 18h-186l6 39h361q22 0 22 -19q0 -20 -22 -20h-107q12 -12 17 -28t5 -34q0 -27 -11.5 -58.5t-39 -58.5t-73 -45t-112.5 -18h-96q-112 0 -174 69t-62 189v172h37v-171q0 -49 12.5 -89.5t38 -70
t64.5 -45.5t91 -16h82z" />
    <glyph glyph-name="ye.medi" unicode="&#x6cc;" horiz-adv-x="345" arabic-form="medial" 
d="M0 0zM80 39q48 0 74 24.5t26 64.5v154h38v-154q0 -26 8.5 -43t22 -27t30 -14.5t32.5 -4.5h34q23 0 23 -19q0 -20 -23 -20h-34q-36 0 -67 14t-48 53q-21 -39 -51.5 -53t-64.5 -14h-80q-13 0 -17.5 5t-4.5 13q0 10 4.5 15.5t17.5 5.5h80zM252 -170h-56v51h56v-51zM134 -170
h-58v51h58v-51z" />
    <glyph glyph-name="ye.init" unicode="&#x6cc;" horiz-adv-x="284" arabic-form="initial" 
d="M0 0zM89 39q43 0 71.5 24.5t28.5 64.5v154h36v-150q0 -61 -37.5 -96.5t-97.5 -35.5h-90q-13 0 -17.5 5t-4.5 13q0 10 4.5 15.5t17.5 5.5h89zM189 -170h-56v51h56v-51zM71 -170h-58v51h58v-51z" />
    <glyph glyph-name="ye.arab" unicode="&#x64a;" horiz-adv-x="676" arabic-form="isolated" 
d="M54 0zM367 -204q43 0 82.5 13.5t69.5 37t48 55.5t18 69q0 16 -3.5 30t-14 24.5t-28.5 17t-46 6.5h-176v159q0 75 43.5 121t118.5 46h115l5 -39h-125q-22 0 -43.5 -7.5t-38.5 -23t-27.5 -38.5t-10.5 -53v-127h146q37 0 61 -9.5t37.5 -24.5t18.5 -34.5t5 -39.5
q0 -46 -20 -86t-54 -70t-79 -47.5t-96 -17.5h-83q-112 0 -174 69t-62 189v172h37v-171q0 -49 12.5 -89.5t38 -70t64.5 -45.5t91 -16h70zM402 -410h-56v51h56v-51zM284 -410h-58v51h58v-51z" />
    <glyph glyph-name="ye.arab.fina" unicode="&#x64a;" horiz-adv-x="707" arabic-form="final" 
d="M54 0zM379 -204q56 0 95 13t64 33t36 45t11 49q0 28 -13.5 46t-45.5 18h-186l6 39h361q22 0 22 -19q0 -20 -22 -20h-107q12 -12 17 -28t5 -34q0 -27 -11.5 -58.5t-39 -58.5t-73 -45t-112.5 -18h-96q-112 0 -174 69t-62 189v172h37v-171q0 -49 12.5 -89.5t38 -70
t64.5 -45.5t91 -16h82zM402 -410h-56v51h56v-51zM284 -410h-58v51h58v-51z" />
    <glyph glyph-name="ye.thmz" unicode="&#x626;" horiz-adv-x="676" arabic-form="isolated" 
d="M54 0zM367 -204q43 0 82.5 13.5t69.5 37t48 55.5t18 69q0 16 -3.5 30t-14 24.5t-28.5 17t-46 6.5h-176v159q0 75 43.5 121t118.5 46h115l5 -39h-125q-22 0 -43.5 -7.5t-38.5 -23t-27.5 -38.5t-10.5 -53v-127h146q37 0 61 -9.5t37.5 -24.5t18.5 -34.5t5 -39.5
q0 -46 -20 -86t-54 -70t-79 -47.5t-96 -17.5h-83q-112 0 -174 69t-62 189v172h37v-171q0 -49 12.5 -89.5t38 -70t64.5 -45.5t91 -16h70zM261 418l-185 -94l-13 26l75 37q-19 3 -32.5 11.5t-22 21t-12.5 27t-4 28.5q0 42 26 68t68 26h47l-5 -28h-36q-35 0 -53.5 -20
t-18.5 -47q0 -31 20.5 -49t46.5 -18q16 0 38 11l50 25z" />
    <glyph glyph-name="ye.thmz.fina" unicode="&#x626;" horiz-adv-x="707" arabic-form="final" 
d="M54 0zM379 -204q56 0 95 13t64 33t36 45t11 49q0 28 -13.5 46t-45.5 18h-186l6 39h361q22 0 22 -19q0 -20 -22 -20h-107q12 -12 17 -28t5 -34q0 -27 -11.5 -58.5t-39 -58.5t-73 -45t-112.5 -18h-96q-112 0 -174 69t-62 189v172h37v-171q0 -49 12.5 -89.5t38 -70
t64.5 -45.5t91 -16h82zM431 260l-185 -94l-13 26l75 37q-19 3 -32.5 11.5t-22 21t-12.5 27t-4 28.5q0 42 26 68t68 26h47l-5 -28h-36q-35 0 -53.5 -20t-18.5 -47q0 -31 20.5 -49t46.5 -18q16 0 38 11l50 25z" />
    <glyph glyph-name="ye.thmz.medi" unicode="&#x626;" horiz-adv-x="345" arabic-form="medial" 
d="M0 0zM80 39q48 0 74 24.5t26 64.5v154h38v-154q0 -26 8.5 -43t22 -27t30 -14.5t32.5 -4.5h34q23 0 23 -19q0 -20 -23 -20h-34q-36 0 -67 14t-48 53q-21 -39 -51.5 -53t-64.5 -14h-80q-13 0 -17.5 5t-4.5 13q0 10 4.5 15.5t17.5 5.5h80zM279 459l-185 -94l-13 26l75 37
q-19 3 -32.5 11.5t-22 21t-12.5 27t-4 28.5q0 42 26 68t68 26h47l-5 -28h-36q-35 0 -53.5 -20t-18.5 -47q0 -31 20.5 -49t46.5 -18q16 0 38 11l50 25z" />
    <glyph glyph-name="ye.thmz.init" unicode="&#x626;" horiz-adv-x="284" arabic-form="initial" 
d="M0 0zM89 39q43 0 71.5 24.5t28.5 64.5v154h36v-150q0 -61 -37.5 -96.5t-97.5 -35.5h-90q-13 0 -17.5 5t-4.5 13q0 10 4.5 15.5t17.5 5.5h89zM274 459l-185 -94l-13 26l75 37q-19 3 -32.5 11.5t-22 21t-12.5 27t-4 28.5q0 42 26 68t68 26h47l-5 -28h-36q-35 0 -53.5 -20
t-18.5 -47q0 -31 20.5 -49t46.5 -18q16 0 38 11l50 25z" />
    <glyph glyph-name="alef.maksura" unicode="&#x649;" horiz-adv-x="676" arabic-form="isolated" 
d="M367 -204q43 0 82.5 13.5t69.5 37t48 55.5t18 69q0 16 -3.5 30t-14 24.5t-28.5 17t-46 6.5h-176v159q0 75 43.5 121t118.5 46h115l5 -39h-125q-22 0 -43.5 -7.5t-38.5 -23t-27.5 -38.5t-10.5 -53v-127h146q37 0 61 -9.5t37.5 -24.5t18.5 -34.5t5 -39.5q0 -46 -20 -86
t-54 -70t-79 -47.5t-96 -17.5h-83q-112 0 -174 69t-62 189v172h37v-171q0 -49 12.5 -89.5t38 -70t64.5 -45.5t91 -16h70z" />
    <glyph glyph-name="alef.maksura.fina" unicode="&#x649;" horiz-adv-x="707" arabic-form="final" 
d="M379 -204q56 0 95 13t64 33t36 45t11 49q0 28 -13.5 46t-45.5 18h-186l6 39h361q22 0 22 -19q0 -20 -22 -20h-107q12 -12 17 -28t5 -34q0 -27 -11.5 -58.5t-39 -58.5t-73 -45t-112.5 -18h-96q-112 0 -174 69t-62 189v172h37v-171q0 -49 12.5 -89.5t38 -70t64.5 -45.5
t91 -16h82z" />
    <glyph glyph-name="alef.maksura.medi" unicode="&#x649;" horiz-adv-x="345" arabic-form="medial" 
d="M80 39q48 0 74 24.5t26 64.5v154h38v-154q0 -26 8.5 -43t22 -27t30 -14.5t32.5 -4.5h34q23 0 23 -19q0 -20 -23 -20h-34q-36 0 -67 14t-48 53q-21 -39 -51.5 -53t-64.5 -14h-80q-13 0 -17.5 5t-4.5 13q0 10 4.5 15.5t17.5 5.5h80z" />
    <glyph glyph-name="alef.maksura.init" unicode="&#x649;" horiz-adv-x="284" arabic-form="initial" 
d="M89 39q43 0 71.5 24.5t28.5 64.5v154h36v-150q0 -61 -37.5 -96.5t-97.5 -35.5h-90q-13 0 -17.5 5t-4.5 13q0 10 4.5 15.5t17.5 5.5h89z" />
    <glyph glyph-name="hmz" unicode="&#x621;" horiz-adv-x="431" arabic-form="isolated" 
d="M66 29l129 65q-37 5 -63 18.5t-43 33t-25 44t-8 50.5q0 35 12.5 63.5t33 49t47.5 31.5t57 11q25 0 47.5 -6.5t40.5 -15.5l-14 -35q-12 6 -32.5 12t-40.5 6q-53 0 -84 -33.5t-31 -83.5q0 -48 33 -80.5t95 -32.5q25 0 58 14t87 43l18 -34l-299 -155z" />
    <glyph glyph-name="rial" unicode="&#xfdfc;" horiz-adv-x="1332" arabic-form="isolated" 
d="M54 0zM1005 -204h23q54 0 93 18t64.5 48.5t38 70.5t12.5 83v266h37v-266q0 -61 -18.5 -109t-50.5 -81t-75.5 -50.5t-93.5 -17.5h-25zM952 39q43 0 71.5 24.5t28.5 64.5v154h36v-150q0 -61 -37.5 -96.5t-97.5 -35.5h-90q-13 0 -17.5 5t-4.5 13q0 10 4.5 15.5t17.5 5.5h89z
M913 -240h-56v51h56v-51zM795 -240h-58v51h58v-51zM848 0q-25 0 -48.5 7.5t-41.5 25.5t-28.5 47.5t-10.5 73.5v466h38v-463q0 -50 21.5 -84t72.5 -34h13q21 0 21 -19q0 -20 -21 -20h-16zM589 17q0 -52 -17 -99t-48.5 -82.5t-76.5 -56.5t-101 -21h-56q-112 0 -174 69t-62 189
v172h37v-171q0 -49 12.5 -89.5t38 -70t64.5 -45.5t91 -16h44q51 0 90 17.5t66 47.5t41 69t14 83v607h37v-603z" />
    <glyph glyph-name=".shdd.a" unicode="&#xfc60;" arabic-form="isolated" 
d="M0 0zM107 350l11 -26l-225 -95l-11 26zM0 12q-15 -12 -29 -12h-26q-13 0 -29.5 4t-31.5 16.5t-25 36t-10 62.5v63h28v-77q0 -44 20 -61t50 -17h39v155h28v-155h39q30 0 50 17t20 61v77h27v-63q0 -39 -10 -62.5t-24.5 -36t-31 -16.5t-29.5 -4h-26q-9 0 -15 2.5t-14 9.5z
" />
    <glyph glyph-name=".shdd.o" unicode="&#xfc61;" arabic-form="isolated" 
d="M0 0zM-129 256l128 52q-35 19 -48.5 44.5t-13.5 48.5q0 19 7 36.5t19.5 31t30.5 22t39 8.5q42 0 68.5 -27.5t26.5 -67.5q0 -32 -20 -59.5t-74 -50.5l-152 -64zM-37 402q0 -26 18 -48t47 -33q27 11 50 30t23 49q0 27 -17.5 50t-50.5 23q-18 0 -31 -6.5t-22 -17t-13 -23
t-4 -24.5zM0 12q-15 -12 -29 -12h-26q-13 0 -29.5 4t-31.5 16.5t-25 36t-10 62.5v63h28v-77q0 -44 20 -61t50 -17h39v155h28v-155h39q30 0 50 17t20 61v77h27v-63q0 -39 -10 -62.5t-24.5 -36t-31 -16.5t-29.5 -4h-26q-9 0 -15 2.5t-14 9.5z" />
    <glyph glyph-name=".shdd.e" unicode="&#xfc62;" arabic-form="isolated" 
d="M0 0zM0 191q-15 -12 -29 -12h-26q-13 0 -29.5 4t-31.5 16.5t-25 36t-10 62.5v63h28v-77q0 -44 20 -61t50 -17h39v155h28v-155h39q30 0 50 17t20 61v77h27v-63q0 -39 -10 -62.5t-24.5 -36t-31 -16.5t-29.5 -4h-26q-9 0 -15 2.5t-14 9.5zM107 121l11 -26l-225 -95l-11 26z
" />
    <glyph glyph-name=".shdd.on" unicode="&#xfc5e;" arabic-form="isolated" 
d="M0 0zM12 307q-35 19 -49 44.5t-14 48.5q0 19 7 36.5t20 31t31 22t39 8.5q42 0 68.5 -27.5t26.5 -67.5q0 -32 -20 -59.5t-74 -50.5l-152 -64l-11 25v95q0 22 -19 22h-45v27h50q17 0 28 -9.5t11 -35.5v-88zM-24 401q0 -26 18 -48t47 -33q27 11 50 30t23 49q0 27 -17.5 50
t-50.5 23q-18 0 -31 -6.5t-22 -17t-13 -23t-4 -24.5zM0 12q-15 -12 -29 -12h-26q-13 0 -29.5 4t-31.5 16.5t-25 36t-10 62.5v63h28v-77q0 -44 20 -61t50 -17h39v155h28v-155h39q30 0 50 17t20 61v77h27v-63q0 -39 -10 -62.5t-24.5 -36t-31 -16.5t-29.5 -4h-26q-9 0 -15 2.5
t-14 9.5z" />
    <glyph glyph-name=".shdd.en" unicode="&#xfc5f;" arabic-form="isolated" 
d="M0 0zM0 332q-15 -12 -29 -12h-26q-13 0 -29.5 4t-31.5 16.5t-25 36t-10 62.5v63h28v-77q0 -44 20 -61t50 -17h39v155h28v-155h39q30 0 50 17t20 61v77h27v-63q0 -39 -10 -62.5t-24.5 -36t-31 -16.5t-29.5 -4h-26q-9 0 -15 2.5t-14 9.5zM107 121l11 -26l-225 -95l-11 26z
M107 242l11 -26l-225 -95l-11 26z" />
    <glyph glyph-name=".shdd.aa" unicode="&#xfc63;" arabic-form="isolated" 
d="M0 0zM1 12q-15 -12 -29 -12h-26q-13 0 -29.5 4t-31.5 16.5t-25 36t-10 62.5v63h28v-77q0 -44 20 -61t50 -17h39v155h28v-155h39q30 0 50 17t20 61v77h27v-63q0 -39 -10 -62.5t-24.5 -36t-31 -16.5t-29.5 -4h-26q-9 0 -15 2.5t-14 9.5zM-14 423h28v-171h-28v171z" />
    <glyph glyph-name="re.bv.fina" unicode="&#x695;" horiz-adv-x="259" 
d="M0 0zM152 16q0 -61 -18 -109t-50 -81t-75.5 -50.5t-93.5 -17.5h-56l-5 38h53q54 0 93.5 18t65 48.5t38 70.5t12.5 83v266h37v-158q0 -37 25.5 -61t69.5 -24h11q22 0 22 -19q0 -20 -22 -20h-11q-28 0 -53.5 10.5t-42.5 34.5v-29zM126 -284l24 -14l-96 -186h-22l-96 186
l23 14l84 -166z" />
    <glyph glyph-name="veh" unicode="&#x6a4;" horiz-adv-x="861" arabic-form="isolated" 
d="M465 230q0 28 11 57.5t32.5 53.5t53.5 39t73 15q37 0 68 -10.5t53 -34t34 -60.5t12 -89v-40q0 -75 -46.5 -118t-146.5 -43h-396q-41 0 -70.5 12.5t-48 33.5t-27 49t-8.5 59v128h37v-120q0 -55 29 -89t96 -34h370q24 0 43.5 2t38.5 5q-72 22 -113.5 42.5t-62.5 42
t-26.5 45.5t-5.5 54zM502 232q0 -23 4.5 -42.5t25.5 -38.5t65 -39.5t124 -46.5q19 14 31.5 37.5t12.5 55.5v38q0 77 -32 118.5t-103 41.5q-29 0 -53 -10.5t-40.5 -28t-25.5 -40t-9 -45.5zM662 611h-62v51h62v-51zM718 506h-60v51h60v-51zM604 506h-62v51h62v-51z" />
    <glyph glyph-name="veh.fina" unicode="&#x6a4;" horiz-adv-x="898" arabic-form="final" 
d="M631 345q-31 0 -56 -10.5t-42 -29t-26.5 -43t-9.5 -51.5q0 -32 14 -58t35.5 -46.5t47 -34.5t47.5 -22q16 8 37.5 22t40.5 34t32.5 45t13.5 56q0 61 -36 99.5t-98 38.5zM636 384q42 0 73 -14.5t51.5 -37.5t31 -52.5t10.5 -60.5q0 -53 -28.5 -99t-89.5 -81h214q22 0 22 -19
q0 -20 -22 -20h-118q-46 0 -82 1.5t-56 10.5q-15 -5 -35.5 -7t-42 -3.5t-42 -1.5h-34.5h-275q-41 0 -70.5 12.5t-48 33.5t-27 49t-8.5 59v128h37v-120q0 -55 29 -89t96 -34h371q-58 26 -95 71t-37 103q0 33 12 64t34.5 54.5t55.5 38t74 14.5zM662 599h-62v51h62v-51z
M718 494h-60v51h60v-51zM604 494h-62v51h62v-51z" />
    <glyph glyph-name="veh.medi" unicode="&#x6a4;" horiz-adv-x="534" arabic-form="medial" 
d="M0 0zM229 39q-59 26 -96 71t-37 103q0 33 12 64t35 54.5t56 38t74 14.5t72 -14.5t51.5 -37.5t31 -52.5t10.5 -60.5q0 -53 -28 -99t-90 -81h214q22 0 22 -19q0 -20 -22 -20h-118q-45 0 -81 1.5t-57 10.5q-14 -5 -34.5 -7t-42 -3.5t-42 -1.5h-34.5h-125q-13 0 -17.5 5
t-4.5 13q0 10 4.5 15.5t17.5 5.5h229zM267 345q-31 0 -55.5 -10.5t-42 -29t-26.5 -43t-9 -51.5q0 -32 14 -58t35.5 -46.5t46.5 -34.5t47 -22q16 8 37.5 22t40.5 34t32.5 45t13.5 56q0 61 -35.5 99.5t-98.5 38.5zM308 599h-62v51h62v-51zM364 494h-60v51h60v-51zM250 494h-62
v51h62v-51z" />
    <glyph glyph-name="veh.init" unicode="&#x6a4;" horiz-adv-x="492" arabic-form="initial" 
d="M0 0zM227 39q42 0 76 7q-72 22 -113.5 42.5t-62 42t-26 45.5t-5.5 54q0 28 11 57.5t32.5 53.5t53.5 39t73 15q37 0 68 -10.5t53 -34t34 -60.5t12 -89v-40q0 -75 -46.5 -118t-146.5 -43h-240q-13 0 -17.5 5t-4.5 13q0 10 4.5 15.5t17.5 5.5h227zM261 356
q-29 0 -52.5 -10.5t-40.5 -28t-26 -40t-9 -45.5t4 -42.5t25 -38.5t65 -39.5t124 -46.5q20 14 32 37.5t12 55.5v38q0 77 -31.5 118.5t-102.5 41.5zM297 611h-62v51h62v-51zM353 506h-60v51h60v-51zM239 506h-62v51h62v-51z" />
    <glyph glyph-name="lam.tv.init" unicode="&#x6b5;" horiz-adv-x="237" 
d="M27 39q44 0 71.5 24.5t27.5 64.5v324h37v-320q0 -61 -37 -96.5t-98 -35.5h-28q-13 0 -17.5 5t-4.5 13q0 10 4.5 15.5t17.5 5.5h27zM225 707l24 -14l-96 -186h-22l-96 186l23 14l84 -166z" />
    <glyph glyph-name="lam.tvmedi" unicode="&#x6b5;" horiz-adv-x="271" 
d="M27 39q48 0 73.5 24.5t25.5 64.5v324h37v-324q0 -26 8.5 -43t22 -27t30.5 -14.5t33 -4.5h14q13 0 17.5 -5.5t4.5 -13.5q0 -10 -4.5 -15t-17.5 -5h-14q-35 0 -66.5 14t-48.5 53q-20 -39 -51.5 -53t-63.5 -14h-27q-13 0 -17.5 5t-4.5 13q0 10 4.5 15.5t17.5 5.5h27z
M225 707l24 -14l-96 -186h-22l-96 186l23 14l84 -166z" />
    <glyph glyph-name="lam.tv.fina" unicode="&#x6b5;" horiz-adv-x="695" 
d="M54 0zM684 0q-27 0 -53 10.5t-42 34.5v-28q0 -52 -17 -99t-48.5 -82.5t-76.5 -56.5t-101 -21h-56q-112 0 -174 69t-62 189v172h37v-171q0 -49 12.5 -89.5t38 -70t64.5 -45.5t91 -16h44q51 0 90 17.5t66 47.5t41 69t14 83v607h37v-496q0 -37 26 -61t69 -24h11q23 0 23 -19
q0 -20 -23 -20h-11zM429 617l24 -14l-96 -186h-22l-96 186l23 14l84 -166z" />
    <glyph glyph-name="vav.tv" unicode="&#x6c6;" horiz-adv-x="451" arabic-form="isolated" 
d="M39 0zM148 -204q48 0 86 16.5t64 44.5t40 65t16 78h-124q-51 0 -84 11t-52 31.5t-26.5 49t-7.5 64.5q0 37 10.5 71t31.5 59.5t52 41t72 15.5q33 0 63 -11t53 -34t36.5 -60t13.5 -89v-133q0 -51 -16.5 -98t-47 -82.5t-75 -56.5t-100.5 -21h-108l-6 38h109zM97 157
q0 -31 6.5 -53.5t23.5 -36.5t46 -21t73 -7h108v96q0 90 -35.5 130t-98.5 40q-58 0 -90.5 -41t-32.5 -107zM313 618l24 -14l-96 -186h-22l-96 186l23 14l84 -166z" />
    <glyph glyph-name="vav.tv.fina" unicode="&#x6c6;" horiz-adv-x="498" arabic-form="final" 
d="M39 0zM148 -204q48 0 86 16.5t64 44.5t40 65t16 78h-124q-51 0 -84 11t-52 31.5t-26.5 49t-7.5 64.5q0 37 10.5 71t31.5 59.5t52 41t72 15.5q33 0 63 -11t53 -34t36.5 -60t13.5 -89v-110h106q12 0 16.5 -5.5t4.5 -13.5q0 -10 -4.5 -15t-16.5 -5h-108q-3 -49 -20 -93
t-47.5 -77t-73 -52.5t-96.5 -19.5h-108l-6 38h109zM97 157q0 -31 6.5 -53.5t23.5 -36.5t46 -21t73 -7h108v96q0 90 -35.5 130t-98.5 40q-58 0 -90.5 -41t-32.5 -107zM313 618l24 -14l-96 -186h-22l-96 186l23 14l84 -166z" />
    <glyph glyph-name="vav.t2p.fina" unicode="&#x6ca;" horiz-adv-x="498" 
d="M39 0zM148 -204q48 0 86 16.5t64 44.5t40 65t16 78h-124q-51 0 -84 11t-52 31.5t-26.5 49t-7.5 64.5q0 37 10.5 71t31.5 59.5t52 41t72 15.5q33 0 63 -11t53 -34t36.5 -60t13.5 -89v-110h106q12 0 16.5 -5.5t4.5 -13.5q0 -10 -4.5 -15t-16.5 -5h-108q-3 -49 -20 -93
t-47.5 -77t-73 -52.5t-96.5 -19.5h-108l-6 38h109zM97 157q0 -31 6.5 -53.5t23.5 -36.5t46 -21t73 -7h108v96q0 90 -35.5 130t-98.5 40q-58 0 -90.5 -41t-32.5 -107zM317 466h-60v51h60v-51zM203 466h-62v51h62v-51z" />
    <glyph glyph-name="he.thmz.goal.fina" unicode="&#x6c2;" horiz-adv-x="498" 
d="M54 0zM215 80q63 0 101 24.5t38 60.5v189h-133q-60 0 -95 -42.5t-35 -111.5q0 -35 8.5 -58t24.5 -37t39 -19.5t52 -5.5zM392 157q0 -51 19.5 -84.5t73.5 -33.5h13q12 0 16.5 -5.5t4.5 -13.5q0 -10 -4.5 -15t-16.5 -5h-13q-43 0 -76.5 20.5t-47.5 78.5q-12 -17 -31 -28
t-40 -17t-43 -8.5t-40 -2.5q-74 0 -113.5 36t-39.5 115q0 37 10.5 72.5t31.5 63.5t53 45t76 17h129v71h38v-306zM383 641l-185 -94l-13 26l75 37q-19 3 -32.5 11.5t-22 21t-12.5 27t-4 28.5q0 42 26 68t68 26h47l-5 -28h-36q-35 0 -53.5 -20t-18.5 -47q0 -31 20.5 -49
t46.5 -18q16 0 38 11l50 25z" />
    <glyph glyph-name="ae.fina" unicode="&#x6d5;" horiz-adv-x="498" 
d="M54 0zM215 80q63 0 101 24.5t38 60.5v189h-133q-60 0 -95 -42.5t-35 -111.5q0 -35 8.5 -58t24.5 -37t39 -19.5t52 -5.5zM392 157q0 -51 19.5 -84.5t73.5 -33.5h13q12 0 16.5 -5.5t4.5 -13.5q0 -10 -4.5 -15t-16.5 -5h-13q-43 0 -76.5 20.5t-47.5 78.5q-12 -17 -31 -28
t-40 -17t-43 -8.5t-40 -2.5q-74 0 -113.5 36t-39.5 115q0 37 10.5 72.5t31.5 63.5t53 45t76 17h129v71h38v-306z" />
    <glyph glyph-name="he.dochashmi.fina" unicode="&#x6be;" horiz-adv-x="628" arabic-form="final" 
d="M465 209q0 54 -27.5 89t-85.5 35q-59 0 -91.5 -44t-32.5 -122v-247q0 -35 6.5 -57.5t18.5 -36.5t28 -21t34 -9l103 138q27 37 51 58t48.5 31.5t51 13t59.5 2.5q22 0 22 -19q0 -20 -22 -20q-34 0 -58.5 -2.5t-46.5 -12t-43 -30t-48 -56.5l-104 -141q-28 0 -52.5 8t-43 27
t-29.5 50t-11 76v248q0 35 8 71t26.5 65.5t49.5 48.5t77 19q37 0 65 -12t46.5 -32.5t28 -48.5t9.5 -61q0 -58 -38 -107t-101 -92.5t-145.5 -82.5t-171.5 -76l-14 36q89 37 167.5 74.5t137.5 76t93.5 79t34.5 84.5z" />
    <glyph glyph-name="he.dochashmi.medi" unicode="&#x6be;" horiz-adv-x="542" arabic-form="medial" 
d="M0 0zM106 39v128q0 35 8 71t26.5 65.5t49 48.5t76.5 19q37 0 65.5 -12t47 -32.5t28 -48.5t9.5 -61q0 -44 -21 -83.5t-57.5 -68.5t-87 -46.5t-108.5 -18.5v-80q0 -35 6.5 -57.5t18.5 -36.5t28 -21t34 -9l103 138q28 37 52 58t48 31.5t50.5 13t59.5 2.5q13 0 17.5 -5.5
t4.5 -13.5q0 -10 -4.5 -15t-17.5 -5q-34 0 -58.5 -2.5t-46.5 -12t-43 -30t-48 -56.5l-103 -141q-28 0 -53 8t-43.5 27t-29.5 50t-11 76v81h-106q-13 0 -17.5 5t-4.5 13q0 10 4.5 15.5t17.5 5.5h106zM142 38q58 0 102.5 15.5t74.5 39.5t45.5 54.5t15.5 61.5q0 54 -28 89
t-86 35t-91 -44t-33 -122v-129z" />
    <glyph glyph-name="he.dochashmi.init" unicode="&#x6be;" horiz-adv-x="723" arabic-form="initial" 
d="M0 0zM266 336q-30 0 -55 -11t-42 -29.5t-26.5 -43t-9.5 -51.5q0 -32 14 -56.5t35.5 -43t46.5 -31t47 -21.5q16 9 38 21.5t41 30.5t32.5 41.5t13.5 54.5q0 61 -36 100t-99 39zM0 0q-13 0 -17.5 5t-4.5 13q0 10 4.5 15.5t17.5 5.5h229q-59 25 -96 65.5t-37 99.5
q0 33 12 63.5t34.5 54.5t55.5 38t74 14t72 -14.5t51.5 -37.5t31 -52.5t10.5 -60.5q0 -52 -28 -93.5t-90 -76.5h205q49 0 77.5 23.5t28.5 61.5q0 19 -8 40t-28 42l-193 215l29 27l194 -218q25 -29 35 -55.5t10 -52.5q0 -54 -38 -88t-106 -34h-110q-45 0 -81 1.5t-57 10.5
q-14 -5 -34.5 -7t-42 -3.5t-42 -1.5h-34.5h-124z" />
    <glyph glyph-name="ye.tv.init" unicode="&#x6ce;" horiz-adv-x="284" 
d="M0 0zM89 39q43 0 71.5 24.5t28.5 64.5v154h36v-150q0 -61 -37.5 -96.5t-97.5 -35.5h-90q-13 0 -17.5 5t-4.5 13q0 10 4.5 15.5t17.5 5.5h89zM189 -170h-56v51h56v-51zM71 -170h-58v51h58v-51zM196 571l24 -14l-96 -186h-22l-96 186l23 14l84 -166z" />
    <glyph glyph-name="ye.tv.medi" unicode="&#x6ce;" horiz-adv-x="345" 
d="M0 0zM80 39q48 0 74 24.5t26 64.5v154h38v-154q0 -26 8.5 -43t22 -27t30 -14.5t32.5 -4.5h34q23 0 23 -19q0 -20 -23 -20h-34q-36 0 -67 14t-48 53q-21 -39 -51.5 -53t-64.5 -14h-80q-13 0 -17.5 5t-4.5 13q0 10 4.5 15.5t17.5 5.5h80zM252 -170h-56v51h56v-51zM134 -170
h-58v51h58v-51zM279 571l24 -14l-96 -186h-22l-96 186l23 14l84 -166z" />
    <glyph glyph-name="ye.tv.fina" unicode="&#x6ce;" horiz-adv-x="707" 
d="M54 0zM379 -204q56 0 95 13t64 33t36 45t11 49q0 28 -13.5 46t-45.5 18h-186l6 39h361q22 0 22 -19q0 -20 -22 -20h-107q12 -12 17 -28t5 -34q0 -27 -11.5 -58.5t-39 -58.5t-73 -45t-112.5 -18h-96q-112 0 -174 69t-62 189v172h37v-171q0 -49 12.5 -89.5t38 -70
t64.5 -45.5t91 -16h82zM380 389l24 -14l-96 -186h-22l-96 186l23 14l84 -166z" />
    <glyph glyph-name=".notdef" horiz-adv-x="530" 
d="M462 0h-396v610h396v-610zM103 572v-533h323v533h-323z" />
    <glyph glyph-name=".null" horiz-adv-x="957" 
 />
    <glyph glyph-name="nonmarkingreturn" horiz-adv-x="957" 
 />
    <glyph glyph-name="space" unicode=" " horiz-adv-x="162" 
 />
    <glyph glyph-name="line_feed" unicode="&#xa;" 
 />
    <glyph glyph-name="carriage_return" unicode="&#xd;" 
 />
    <glyph glyph-name="nonbreakingspace" unicode="&#xa0;" horiz-adv-x="159" 
 />
    <glyph glyph-name="enQuad_Space" unicode="&#x2000;" horiz-adv-x="550" 
 />
    <glyph glyph-name="enQuad_Space" unicode="&#x2002;" horiz-adv-x="550" 
 />
    <glyph glyph-name="emQuad_Space" unicode="&#x2001;" horiz-adv-x="1100" 
 />
    <glyph glyph-name="emQuad_Space" unicode="&#x2003;" horiz-adv-x="1100" 
 />
    <glyph glyph-name="3_Mspace" unicode="&#x2004;" horiz-adv-x="330" 
 />
    <glyph glyph-name="4_Mspace" unicode="&#x2005;" horiz-adv-x="275" 
 />
    <glyph glyph-name="6_Mspace" unicode="&#x2006;" horiz-adv-x="165" 
 />
    <glyph glyph-name="figureSpace" unicode="&#x2007;" horiz-adv-x="605" 
 />
    <glyph glyph-name="punctuationSpace" unicode="&#x2008;" horiz-adv-x="165" 
 />
    <glyph glyph-name="thin_hairSpace" unicode="&#x2009;" horiz-adv-x="165" 
 />
    <glyph glyph-name="thin_hairSpace" unicode="&#x200a;" horiz-adv-x="165" 
 />
    <glyph glyph-name="zwspace" unicode="&#x200b;" 
 />
    <glyph glyph-name="zwNONjoiner" unicode="&#x200c;" 
d="M22 490v-600h-44v600h44z" />
    <glyph glyph-name="zwjoiner" unicode="&#x200d;" 
d="M22 -109h-44v448l-59 -60l-29 29l79 79l-79 77l31 31l79 -80l79 80l31 -31l-79 -77l79 -79l-29 -29l-59 60v-448z" />
    <glyph glyph-name="narrow_nbspace" unicode="&#x202f;" horiz-adv-x="55" 
 />
    <glyph glyph-name="zwnbspace" unicode="&#xfeff;" 
 />
    <glyph glyph-name="word_joiner" unicode="&#x2060;" horiz-adv-x="880" 
 />
    <glyph glyph-name="obj" unicode="&#xfffc;" horiz-adv-x="869" 
d="M847 555h-132v39h132v-39zM616 555h-129v39h129v-39zM847 342h-40v130h40v-130zM704 253q0 -50 -21 -74t-60 -24h-26v44h26q20 0 29 11t9 40v189h43v-186zM385 555h-131v39h131v-39zM847 0h-132v40h132v-40zM563 239q0 -38 -19.5 -61t-74.5 -23h-78v284h83q50 0 65.5 -21
t15.5 -54q0 -18 -8 -34.5t-25 -24.5q23 -9 32 -27t9 -39zM154 555h-132v39h132v-39zM616 0h-129v40h129v-40zM341 297q0 -72 -19.5 -109.5t-77.5 -37.5q-29 0 -47 9.5t-28 28t-13.5 46t-3.5 63.5q0 35 3.5 62.5t13.5 46t28 28.5t47 10q31 0 50 -10t29.5 -28.5t14 -46
t3.5 -62.5zM63 342h-41v130h41v-130zM385 0h-131v40h131v-40zM154 0h-132v40h132v-40zM517 361q0 19 -8.5 29t-42.5 10h-40v-79h39q32 0 42 9.5t10 30.5zM524 239q0 22 -12 33t-47 11h-39v-92h43q37 0 46 12.5t9 35.5zM297 297q0 27 -1 47.5t-6.5 34t-16 20t-29.5 6.5
q-36 0 -43.5 -26.5t-7.5 -81.5q0 -53 7.5 -80.5t43.5 -27.5q19 0 29.5 7t16 20.5t6.5 34t1 46.5zM847 122h-40v131h40v-131zM63 122h-41v131h41v-131z" />
    <glyph glyph-name="line_seperator" unicode="&#x2028;" 
 />
    <glyph glyph-name="paragraph_seperator" unicode="&#x2029;" 
 />
    <glyph glyph-name="LTRembedding" unicode="&#x202a;" 
d="M-32 516h-62v27h62v-27zM-6 543h46l-37 37l19 19l72 -71l-72 -70l-19 21l37 37h-46v27z" />
    <glyph glyph-name="RTLembedding" unicode="&#x202b;" 
d="M0 458zM31.998 516h61.9961v27h-61.9961v-27zM6 543h-45.998l36.998 37l-18.999 19l-71.9951 -71l71.9951 -70l18.999 21l-36.998 37h45.998v27z" />
    <glyph glyph-name="pop.directional.formatting_PDF" unicode="&#x202c;" 
d="M-51 509l-21 19l72 71l71 -71l-20 -19l-37 37v-95h-28v93z" />
    <glyph glyph-name="LTRoverride" unicode="&#x202d;" 
d="M-52 580l20 19l70 -71l-70 -70l-20 21l38 37h-102v27h102zM25 580l19 19l72 -71l-72 -70l-19 21l51 49z" />
    <glyph glyph-name="RTLoverride" unicode="&#x202e;" 
d="M0 458zM51.9971 580l-19.999 19l-69.9961 -71l69.9961 -70l19.999 21l-37.998 37h101.994v27h-101.994zM-24.998 580l-18.999 19l-71.9961 -71l71.9961 -70l18.999 21l-50.9971 49z" />
    <glyph glyph-name="RTL_mark" unicode="&#x200f;" horiz-adv-x="385" 
d="M186 599l27 -28l-59 -57h154v-624h-40v580h-114l59 -59l-27 -28l-109 109z" />
    <glyph glyph-name="LTR_mark" unicode="&#x200e;" horiz-adv-x="385" 
d="M77 0zM198.988 599l-26.999 -28l58.9971 -57h-153.991v-624h39.998v580h113.993l-58.9971 -59l26.999 -28l108.993 109z" />
    <glyph glyph-name="periodcentered" unicode="&#xb7;" horiz-adv-x="286" 
d="M87 198zM120 198q-19 0 -26 10t-7 30q0 22 7 31t26 9t26 -9t7 -31q0 -20 -7 -30t-26 -10z" />
    <glyph glyph-name="kashidas.Narrow" horiz-adv-x="82" 
d="M-22 18q0 10 4.5 15.5t17.5 5.5h82q23 0 23 -19q0 -20 -23 -20h-82q-13 0 -17.5 5t-4.5 13z" />
    <glyph glyph-name="kashidas" unicode="&#x640;" horiz-adv-x="165" 
d="M165 39q13 0 17.5 -5.5t4.5 -13.5q0 -10 -4.5 -15t-17.5 -5h-165q-13 0 -17.5 5t-4.5 13q0 10 4.5 15.5t17.5 5.5h165z" />
    <glyph glyph-name="kashidas.Wide" horiz-adv-x="248" 
d="M248 39q12 0 16.5 -5.5t4.5 -13.5q0 -10 -4.5 -15t-16.5 -5h-248q-13 0 -17.5 5t-4.5 13q0 10 4.5 15.5t17.5 5.5h248z" />
    <glyph glyph-name="he.arab.isol" horiz-adv-x="681" 
d="M54 202q0 34 12 65t35 55t56 38t74 14t72 -14.5t51.5 -37.5t31 -52.5t10.5 -60.5q0 -52 -26 -93.5t-77 -76.5h189q50 0 78 23.5t28 61.5q0 19 -8 40t-27 42l-193 215l28 27l194 -218q26 -29 36 -55.5t10 -52.5q0 -54 -38 -88t-107 -34h-112q-37 0 -67 0.5t-50 4.5
q-34 -29 -72.5 -59.5t-86.5 -62.5l-24 32q38 23 75 49.5t66 50.5q-38 12 -67.5 31.5t-49.5 44.5t-30.5 53t-10.5 58zM226 336q-31 0 -56 -11t-43 -29.5t-27.5 -43t-9.5 -51.5q0 -32 14 -59t36.5 -47t51 -33t58.5 -18q14 10 33 25.5t36 34.5t29 42.5t12 50.5q0 61 -36.5 100
t-97.5 39z" />
    <glyph glyph-name="t1p" unicode="&#xfbb2;" 
d="M32 0h-64v52h64v-52z" />
    <glyph glyph-name="b1p" unicode="&#xfbb3;" 
d="M32 -52h-64v52h64v-52z" />
    <glyph glyph-name="t2p" unicode="&#xfbb4;" 
d="M87 0h-60v51h60v-51zM-27 0h-62v51h62v-51z" />
    <glyph glyph-name="b2p" unicode="&#xfbb5;" 
d="M87 -51h-56v51h56v-51zM-31 -51h-58v51h58v-51z" />
    <glyph glyph-name="t3p" unicode="&#xfbb6;" 
d="M31 105h-62v51h62v-51zM87 0h-60v51h60v-51zM-27 0h-62v51h62v-51z" />
    <glyph glyph-name="b3p" unicode="&#xfbb9;" 
d="M31 -156h-62v51h62v-51zM87 -51h-60v51h60v-51zM-27 -51h-62v51h62v-51z" />
    <glyph glyph-name="sefr" unicode="&#x6f0;" horiz-adv-x="459" 
d="M229 390q33 0 64.5 -14.5t56.5 -38t40 -54.5t15 -64t-15 -63.5t-40 -54.5t-56.5 -38t-64.5 -14t-64.5 14t-56 38t-39.5 54.5t-15 63.5t15 64t39.5 54.5t56 38t64.5 14.5zM229 86q25 0 50 11t44.5 29t32 42t12.5 51q0 25 -12.5 49t-32 43t-44.5 30.5t-50 11.5t-50 -11.5
t-44.5 -30.5t-32 -43t-12.5 -49q0 -27 12.5 -51t32 -42t44.5 -29t50 -11z" />
    <glyph glyph-name="yek" unicode="&#x6f1;" horiz-adv-x="192" 
d="M92 -61v243q0 60 -4 106t-11 85t-16 74t-19 72l37 14q13 -41 22.5 -78.5t15.5 -77.5t9 -86t3 -104v-248h-37z" />
    <glyph glyph-name="do" unicode="&#x6f2;" horiz-adv-x="406" 
d="M219 250q-29 0 -54.5 12t-40.5 39q3 -26 4 -56.5t1 -59.5v-246h-37v243q0 60 -4 106t-11 85t-16 74t-19 72l37 14q8 -29 13.5 -50.5t10 -40t9 -35.5t10.5 -37q11 -39 34.5 -60.5t60.5 -21.5q18 0 35.5 6t31.5 17t22.5 28t8.5 38q0 27 -4.5 67t-12.5 82l37 7q9 -37 13 -76
t4 -75q0 -30 -10.5 -54.5t-28.5 -42t-42.5 -26.5t-51.5 -9z" />
    <glyph glyph-name="se" unicode="&#x6f3;" horiz-adv-x="613" 
d="M335 533q9 -37 13 -76t4 -75q0 -8 -1 -20t-6 -26q14 -21 38 -34.5t47 -13.5q18 0 35 7t30 19t21 27t8 31q0 31 -4 71.5t-12 82.5l36 7q8 -37 12 -76.5t4 -80.5q0 -26 -10.5 -49t-28 -40t-41 -27t-48.5 -10q-29 0 -54.5 12.5t-50.5 41.5q-17 -24 -44.5 -39t-63.5 -15
q-29 0 -54.5 12t-40.5 39q3 -26 4 -56.5t1 -59.5v-246h-37v243q0 60 -4 106t-11 85t-16 74t-19 72l37 14q8 -29 13.5 -50.5t10 -40t9 -35.5t10.5 -37q11 -39 34.5 -60.5t60.5 -21.5q18 0 35.5 6t31.5 17t22.5 28t8.5 38q0 27 -4.5 67t-12.5 82l37 7v0z" />
    <glyph glyph-name="char" unicode="&#x6f4;" horiz-adv-x="525" 
d="M292 212q-24 0 -48 4.5t-46 12.5t-40.5 18.5t-31.5 23.5q2 -19 2.5 -40.5t0.5 -45.5v-246h-37v243q0 60 -4 106t-11 85t-16 74t-19 72l37 14q13 -44 22.5 -85t18.5 -93q3 -12 7.5 -25t14.5 -25t28 -23.5t47 -20.5q-16 13 -25 29t-14 32.5t-6.5 31.5t-1.5 27
q0 33 12.5 61.5t35 50t52.5 34t65 12.5q25 0 51.5 -5.5t58.5 -21.5l-13 -34q-32 14 -54 18.5t-43 4.5q-29 0 -52.5 -10t-40 -27t-26 -40.5t-9.5 -50.5q0 -26 8.5 -48t22.5 -39t31.5 -26.5t35.5 -9.5q44 0 84 12t71 27l13 -34q-54 -24 -96.5 -33.5t-84.5 -9.5z" />
    <glyph glyph-name="panj" unicode="&#x6f5;" horiz-adv-x="611" 
d="M54 83q0 33 9 70t33.5 83t68.5 104t114 133l-49 44l24 28q95 -81 154.5 -145t92.5 -117.5t44.5 -98t11.5 -84.5q0 -44 -13 -75.5t-34 -51.5t-46.5 -29.5t-50.5 -9.5q-38 0 -66 14t-45 35q-20 -25 -50 -37t-59 -12q-63 0 -101 39t-38 110zM520 96q0 33 -9 70.5t-33 81
t-66 93t-107 107.5q-110 -108 -162.5 -197t-52.5 -160q0 -62 30 -90.5t75 -28.5q17 0 35.5 6t33.5 18t24.5 31t9.5 45v75h36v-73q0 -21 -4 -35.5t-8 -25.5q17 -19 40 -30t50 -11q21 0 40.5 7.5t34.5 23t24 39t9 54.5z" />
    <glyph glyph-name="shish" unicode="&#x6f6;" horiz-adv-x="433" 
d="M305 481q-23 11 -46 15.5t-43 4.5q-27 0 -50 -10.5t-39.5 -28t-26 -41t-9.5 -48.5q0 -58 34.5 -88t89.5 -30q39 0 78.5 11.5t77.5 31.5l20 -25q-36 -32 -71 -72.5t-68.5 -85.5t-63.5 -93t-55 -94l-32 21q17 31 40.5 68.5t50 75t54.5 74t54 66.5q-27 -8 -51.5 -11
t-47.5 -3q-37 1 -64.5 13.5t-46 32.5t-27.5 46.5t-9 56.5q0 31 11.5 61.5t32.5 55t50.5 39.5t65.5 15q27 0 50 -5.5t55 -21.5z" />
    <glyph glyph-name="haft" unicode="&#x6f7;" horiz-adv-x="546" 
d="M273 36q26 130 79.5 258.5t131.5 249.5l30 -23q-35 -54 -68.5 -116t-63 -134t-54 -154.5t-41.5 -177.5h-29q-17 95 -41 177.5t-53.5 154.5t-63 134t-69.5 116l31 23q78 -121 131.5 -249.5t79.5 -258.5z" />
    <glyph glyph-name="hasht" unicode="&#x6f8;" horiz-adv-x="546" 
d="M273 437q-26 -130 -79.5 -259t-131.5 -250l-31 24q36 54 69.5 116t63 134t53.5 154t41 177h29q17 -95 41.5 -177t54 -154t63 -134t68.5 -116l-30 -24q-78 121 -131.5 250t-79.5 259z" />
    <glyph glyph-name="noh" unicode="&#x6f9;" horiz-adv-x="444" 
d="M343 -61v300q-39 -21 -76.5 -27t-68.5 -6q-39 0 -67.5 10.5t-46.5 29.5t-26.5 44.5t-8.5 54.5q0 36 11 70.5t32.5 62t52.5 44.5t71 17q45 0 76 -19.5t50.5 -53t28.5 -78.5t9 -96v-353h-37zM343 280q0 49 -7.5 90t-23 70t-41 45t-61.5 16q-29 0 -52.5 -14t-39.5 -36
t-24.5 -49.5t-8.5 -54.5q0 -47 30 -74.5t90 -27.5q38 0 72 8t66 27z" />
    <glyph glyph-name="sefr.arab" unicode="&#x660;" horiz-adv-x="459" 
d="M54 49zM229 390q33 0 64.5 -14.5t56.5 -38t40 -54.5t15 -64t-15 -63.5t-40 -54.5t-56.5 -38t-64.5 -14t-64.5 14t-56 38t-39.5 54.5t-15 63.5t15 64t39.5 54.5t56 38t64.5 14.5zM229 86q25 0 50 11t44.5 29t32 42t12.5 51q0 25 -12.5 49t-32 43t-44.5 30.5t-50 11.5
t-50 -11.5t-44.5 -30.5t-32 -43t-12.5 -49q0 -27 12.5 -51t32 -42t44.5 -29t50 -11z" />
    <glyph glyph-name="yek.arab" unicode="&#x661;" horiz-adv-x="194" 
d="M44 0zM94 -61v243q0 60 -4 106t-11 85t-16 74t-19 72l37 14q13 -41 22.5 -78.5t15.5 -77.5t9 -86t3 -104v-248h-37z" />
    <glyph glyph-name="do.arab" unicode="&#x662;" horiz-adv-x="408" 
d="M44 0zM221 250q-29 0 -54.5 12t-40.5 39q3 -26 4 -56.5t1 -59.5v-246h-37v243q0 60 -4 106t-11 85t-16 74t-19 72l37 14q8 -29 13.5 -50.5t10 -40t9 -35.5t10.5 -37q11 -39 34.5 -60.5t60.5 -21.5q18 0 35.5 6t31.5 17t22.5 28t8.5 38q0 27 -4.5 67t-12.5 82l37 7
q9 -37 13 -76t4 -75q0 -30 -10.5 -54.5t-28.5 -42t-42.5 -26.5t-51.5 -9z" />
    <glyph glyph-name="se.arab" unicode="&#x663;" horiz-adv-x="615" 
d="M44 0zM337 533q9 -37 13 -76t4 -75q0 -8 -1 -20t-6 -26q14 -21 38 -34.5t47 -13.5q18 0 35 7t30 19t21 27t8 31q0 31 -4 71.5t-12 82.5l36 7q8 -37 12 -76.5t4 -80.5q0 -26 -10.5 -49t-28 -40t-41 -27t-48.5 -10q-29 0 -54.5 12.5t-50.5 41.5q-17 -24 -44.5 -39
t-63.5 -15q-29 0 -54.5 12t-40.5 39q3 -26 4 -56.5t1 -59.5v-246h-37v243q0 60 -4 106t-11 85t-16 74t-19 72l37 14q8 -29 13.5 -50.5t10 -40t9 -35.5t10.5 -37q11 -39 34.5 -60.5t60.5 -21.5q18 0 35.5 6t31.5 17t22.5 28t8.5 38q0 27 -4.5 67t-12.5 82l37 7v0z" />
    <glyph glyph-name="char.arab" unicode="&#x664;" horiz-adv-x="405" 
d="M54 56q0 16 6 34.5t21.5 39.5t43.5 45t73 51q-38 4 -65 17.5t-44.5 33t-26 43.5t-8.5 49q0 33 13 63.5t35.5 54.5t53.5 38t68 14q29 0 52 -7.5t47 -19.5l-11 -35q-21 11 -44 17.5t-43 6.5q-28 0 -52.5 -10.5t-42.5 -28.5t-28.5 -41t-10.5 -48q0 -54 39 -83.5t107 -29.5
h41v-26q-56 -31 -92.5 -56t-57.5 -45.5t-29 -38.5t-8 -35q0 -31 24.5 -53.5t78.5 -22.5h168l-5 -38h-165q-70 0 -104 32t-34 79z" />
    <glyph glyph-name="panj.arab" unicode="&#x665;" horiz-adv-x="521" 
d="M54 104q0 29 8 63t28.5 74.5t55.5 89t89 107.5l-41 41l25 27q71 -66 118.5 -121.5t76.5 -103t41.5 -88t12.5 -77.5q0 -44 -15.5 -78t-43.5 -57t-66.5 -35t-84.5 -12h-11q-96 0 -144.5 46t-48.5 124zM430 112q0 28 -8.5 60.5t-28.5 70t-53 80t-82 91.5
q-89 -94 -128 -168.5t-39 -137.5q0 -61 38 -98.5t118 -37.5h11q83 0 127.5 38t44.5 102z" />
    <glyph glyph-name="shish.arab" unicode="&#x666;" horiz-adv-x="447" 
d="M354 280q0 -60 3 -107t9.5 -86.5t16 -74.5t21.5 -70l-36 -14q-13 39 -22.5 75t-16 76t-10 87t-3.5 109v199q0 16 -15 16q-4 0 -22 -1.5t-42.5 -4t-52 -4t-49.5 -1.5q-29 0 -55.5 5t-43.5 32l19 27q13 -15 29.5 -20.5t52.5 -5.5q57 0 99.5 5.5t71.5 5.5q26 0 36 -10.5
t10 -35.5v-202z" />
    <glyph glyph-name="haft.arab" unicode="&#x667;" horiz-adv-x="551" 
d="M34 0zM276 36q26 130 79.5 258.5t131.5 249.5l30 -23q-35 -54 -68.5 -116t-63 -134t-54 -154.5t-41.5 -177.5h-29q-17 95 -41 177.5t-53.5 154.5t-63 134t-69.5 116l31 23q78 -121 131.5 -249.5t79.5 -258.5z" />
    <glyph glyph-name="hasht.arab" unicode="&#x668;" horiz-adv-x="551" 
d="M34 0zM276 437q-26 -130 -79.5 -259t-131.5 -250l-31 24q36 54 69.5 116t63 134t53.5 154t41 177h29q17 -95 41.5 -177t54 -154t63 -134t68.5 -116l-30 -24q-78 121 -131.5 250t-79.5 259z" />
    <glyph glyph-name="noh.arab" unicode="&#x669;" horiz-adv-x="444" 
d="M49 0zM343 -61v300q-39 -21 -76.5 -27t-68.5 -6q-39 0 -67.5 10.5t-46.5 29.5t-26.5 44.5t-8.5 54.5q0 36 11 70.5t32.5 62t52.5 44.5t71 17q45 0 76 -19.5t50.5 -53t28.5 -78.5t9 -96v-353h-37zM343 280q0 49 -7.5 90t-23 70t-41 45t-61.5 16q-29 0 -52.5 -14t-39.5 -36
t-24.5 -49.5t-8.5 -54.5q0 -47 30 -74.5t90 -27.5q38 0 72 8t66 27z" />
    <glyph glyph-name=".seperator" horiz-adv-x="526" 
d="M424 505l-322 -466h322v466zM424 572h-322v-477zM461 0h-396v610h396v-610z" />
    <glyph glyph-name="sefr.tnum" horiz-adv-x="605" 
d="M127 49zM302 390q33 0 64.5 -14.5t56.5 -38t40 -54.5t15 -64t-15 -63.5t-40 -54.5t-56.5 -38t-64.5 -14t-64.5 14t-56 38t-39.5 54.5t-15 63.5t15 64t39.5 54.5t56 38t64.5 14.5zM302 86q25 0 50 11t44.5 29t32 42t12.5 51q0 25 -12.5 49t-32 43t-44.5 30.5t-50 11.5
t-50 -11.5t-44.5 -30.5t-32 -43t-12.5 -49q0 -27 12.5 -51t32 -42t44.5 -29t50 -11z" />
    <glyph glyph-name="yek.tnum" horiz-adv-x="605" 
d="M259 0zM309 -61v243q0 60 -4 106t-11 85t-16 74t-19 72l37 14q13 -41 22.5 -78.5t15.5 -77.5t9 -86t3 -104v-248h-37z" />
    <glyph glyph-name="do.tnum" horiz-adv-x="605" 
d="M147 0zM324 250q-29 0 -54.5 12t-40.5 39q3 -26 4 -56.5t1 -59.5v-246h-37v243q0 60 -4 106t-11 85t-16 74t-19 72l37 14q8 -29 13.5 -50.5t10 -40t9 -35.5t10.5 -37q11 -39 34.5 -60.5t60.5 -21.5q18 0 35.5 6t31.5 17t22.5 28t8.5 38q0 27 -4.5 67t-12.5 82l37 7
q9 -37 13 -76t4 -75q0 -30 -10.5 -54.5t-28.5 -42t-42.5 -26.5t-51.5 -9z" />
    <glyph glyph-name="se.tnum" horiz-adv-x="605" 
d="M42 0zM335 533q9 -37 13 -76t4 -75q0 -8 -1 -20t-6 -26q14 -21 38 -34.5t47 -13.5q18 0 35 7t30 19t21 27t8 31q0 31 -4 71.5t-12 82.5l36 7q8 -37 12 -76.5t4 -80.5q0 -26 -10.5 -49t-28 -40t-41 -27t-48.5 -10q-29 0 -54.5 12.5t-50.5 41.5q-17 -24 -44.5 -39
t-63.5 -15q-29 0 -54.5 12t-40.5 39q3 -26 4 -56.5t1 -59.5v-246h-37v243q0 60 -4 106t-11 85t-16 74t-19 72l37 14q8 -29 13.5 -50.5t10 -40t9 -35.5t10.5 -37q11 -39 34.5 -60.5t60.5 -21.5q18 0 35.5 6t31.5 17t22.5 28t8.5 38q0 27 -4.5 67t-12.5 82l37 7v0z" />
    <glyph glyph-name="char.tnum" horiz-adv-x="605" 
d="M86 0zM336 212q-24 0 -48 4.5t-46 12.5t-40.5 18.5t-31.5 23.5q2 -19 2.5 -40.5t0.5 -45.5v-246h-37v243q0 60 -4 106t-11 85t-16 74t-19 72l37 14q13 -44 22.5 -85t18.5 -93q3 -12 7.5 -25t14.5 -25t28 -23.5t47 -20.5q-16 13 -25 29t-14 32.5t-6.5 31.5t-1.5 27
q0 33 12.5 61.5t35 50t52.5 34t65 12.5q25 0 51.5 -5.5t58.5 -21.5l-13 -34q-32 14 -54 18.5t-43 4.5q-29 0 -52.5 -10t-40 -27t-26 -40.5t-9.5 -50.5q0 -26 8.5 -48t22.5 -39t31.5 -26.5t35.5 -9.5q44 0 84 12t71 27l13 -34q-54 -24 -96.5 -33.5t-84.5 -9.5z" />
    <glyph glyph-name="panj.tnum" horiz-adv-x="605" 
d="M52 0zM52 83q0 33 9 70t33.5 83t68.5 104t114 133l-49 44l24 28q95 -81 154.5 -145t92.5 -117.5t44.5 -98t11.5 -84.5q0 -44 -13 -75.5t-34 -51.5t-46.5 -29.5t-50.5 -9.5q-38 0 -66 14t-45 35q-20 -25 -50 -37t-59 -12q-63 0 -101 39t-38 110zM518 96q0 33 -9 70.5
t-33 81t-66 93t-107 107.5q-110 -108 -162.5 -197t-52.5 -160q0 -62 30 -90.5t75 -28.5q17 0 35.5 6t33.5 18t24.5 31t9.5 45v75h36v-73q0 -21 -4 -35.5t-8 -25.5q17 -19 40 -30t50 -11q21 0 40.5 7.5t34.5 23t24 39t9 54.5z" />
    <glyph glyph-name="shish.tnum" horiz-adv-x="605" 
d="M134 0zM385 481q-23 11 -46 15.5t-43 4.5q-27 0 -50 -10.5t-39.5 -28t-26 -41t-9.5 -48.5q0 -58 34.5 -88t89.5 -30q39 0 78.5 11.5t77.5 31.5l20 -25q-36 -32 -71 -72.5t-68.5 -85.5t-63.5 -93t-55 -94l-32 21q17 31 40.5 68.5t50 75t54.5 74t54 66.5q-27 -8 -51.5 -11
t-47.5 -3q-37 1 -64.5 13.5t-46 32.5t-27.5 46.5t-9 56.5q0 31 11.5 61.5t32.5 55t50.5 39.5t65.5 15q27 0 50 -5.5t55 -21.5z" />
    <glyph glyph-name="haft.tnum" horiz-adv-x="605" 
d="M61 0zM303 36q26 130 79.5 258.5t131.5 249.5l30 -23q-35 -54 -68.5 -116t-63 -134t-54 -154.5t-41.5 -177.5h-29q-17 95 -41 177.5t-53.5 154.5t-63 134t-69.5 116l31 23q78 -121 131.5 -249.5t79.5 -258.5z" />
    <glyph glyph-name="hasht.tnum" horiz-adv-x="605" 
d="M61 0zM303 437q-26 -130 -79.5 -259t-131.5 -250l-31 24q36 54 69.5 116t63 134t53.5 154t41 177h29q17 -95 41.5 -177t54 -154t63 -134t68.5 -116l-30 -24q-78 121 -131.5 250t-79.5 259z" />
    <glyph glyph-name="noh.tnum" horiz-adv-x="605" 
d="M138 0zM432 -61v300q-39 -21 -76.5 -27t-68.5 -6q-39 0 -67.5 10.5t-46.5 29.5t-26.5 44.5t-8.5 54.5q0 36 11 70.5t32.5 62t52.5 44.5t71 17q45 0 76 -19.5t50.5 -53t28.5 -78.5t9 -96v-353h-37zM432 280q0 49 -7.5 90t-23 70t-41 45t-61.5 16q-29 0 -52.5 -14
t-39.5 -36t-24.5 -49.5t-8.5 -54.5q0 -47 30 -74.5t90 -27.5q38 0 72 8t66 27z" />
    <glyph glyph-name="sefr.arab.tnum" horiz-adv-x="605" 
d="M127 49zM302 390q33 0 64.5 -14.5t56.5 -38t40 -54.5t15 -64t-15 -63.5t-40 -54.5t-56.5 -38t-64.5 -14t-64.5 14t-56 38t-39.5 54.5t-15 63.5t15 64t39.5 54.5t56 38t64.5 14.5zM302 86q25 0 50 11t44.5 29t32 42t12.5 51q0 25 -12.5 49t-32 43t-44.5 30.5t-50 11.5
t-50 -11.5t-44.5 -30.5t-32 -43t-12.5 -49q0 -27 12.5 -51t32 -42t44.5 -29t50 -11z" />
    <glyph glyph-name="yek.arab.tnum" horiz-adv-x="605" 
d="M259 0zM309 -61v243q0 60 -4 106t-11 85t-16 74t-19 72l37 14q13 -41 22.5 -78.5t15.5 -77.5t9 -86t3 -104v-248h-37z" />
    <glyph glyph-name="do.arab.tnum" horiz-adv-x="605" 
d="M147 0zM324 250q-29 0 -54.5 12t-40.5 39q3 -26 4 -56.5t1 -59.5v-246h-37v243q0 60 -4 106t-11 85t-16 74t-19 72l37 14q8 -29 13.5 -50.5t10 -40t9 -35.5t10.5 -37q11 -39 34.5 -60.5t60.5 -21.5q18 0 35.5 6t31.5 17t22.5 28t8.5 38q0 27 -4.5 67t-12.5 82l37 7
q9 -37 13 -76t4 -75q0 -30 -10.5 -54.5t-28.5 -42t-42.5 -26.5t-51.5 -9z" />
    <glyph glyph-name="se.arab.tnum" horiz-adv-x="605" 
d="M42 0zM335 533q9 -37 13 -76t4 -75q0 -8 -1 -20t-6 -26q14 -21 38 -34.5t47 -13.5q18 0 35 7t30 19t21 27t8 31q0 31 -4 71.5t-12 82.5l36 7q8 -37 12 -76.5t4 -80.5q0 -26 -10.5 -49t-28 -40t-41 -27t-48.5 -10q-29 0 -54.5 12.5t-50.5 41.5q-17 -24 -44.5 -39
t-63.5 -15q-29 0 -54.5 12t-40.5 39q3 -26 4 -56.5t1 -59.5v-246h-37v243q0 60 -4 106t-11 85t-16 74t-19 72l37 14q8 -29 13.5 -50.5t10 -40t9 -35.5t10.5 -37q11 -39 34.5 -60.5t60.5 -21.5q18 0 35.5 6t31.5 17t22.5 28t8.5 38q0 27 -4.5 67t-12.5 82l37 7v0z" />
    <glyph glyph-name="char.arab.tnum" horiz-adv-x="605" 
d="M149 0zM149 56q0 16 6 34.5t21.5 39.5t43.5 45t73 51q-38 4 -65 17.5t-44.5 33t-26 43.5t-8.5 49q0 33 13 63.5t35.5 54.5t53.5 38t68 14q29 0 52 -7.5t47 -19.5l-11 -35q-21 11 -44 17.5t-43 6.5q-28 0 -52.5 -10.5t-42.5 -28.5t-28.5 -41t-10.5 -48q0 -54 39 -83.5
t107 -29.5h41v-26q-56 -31 -92.5 -56t-57.5 -45.5t-29 -38.5t-8 -35q0 -31 24.5 -53.5t78.5 -22.5h168l-5 -38h-165q-70 0 -104 32t-34 79z" />
    <glyph glyph-name="panj.arab.tnum" horiz-adv-x="605" 
d="M95 0zM95 104q0 29 8 63t28.5 74.5t55.5 89t89 107.5l-41 41l25 27q71 -66 118.5 -121.5t76.5 -103t41.5 -88t12.5 -77.5q0 -44 -15.5 -78t-43.5 -57t-66.5 -35t-84.5 -12h-11q-96 0 -144.5 46t-48.5 124zM471 112q0 28 -8.5 60.5t-28.5 70t-53 80t-82 91.5
q-89 -94 -128 -168.5t-39 -137.5q0 -61 38 -98.5t118 -37.5h11q83 0 127.5 38t44.5 102z" />
    <glyph glyph-name="shish.arab.tnum" horiz-adv-x="605" 
d="M118 0zM436 280q0 -60 3 -107t9.5 -86.5t16 -74.5t21.5 -70l-36 -14q-13 39 -22.5 75t-16 76t-10 87t-3.5 109v199q0 16 -15 16q-4 0 -22 -1.5t-42.5 -4t-52 -4t-49.5 -1.5q-29 0 -55.5 5t-43.5 32l19 27q13 -15 29.5 -20.5t52.5 -5.5q57 0 99.5 5.5t71.5 5.5
q26 0 36 -10.5t10 -35.5v-202z" />
    <glyph glyph-name="haft.arab.tnum" horiz-adv-x="605" 
d="M61 0zM303 36q26 130 79.5 258.5t131.5 249.5l30 -23q-35 -54 -68.5 -116t-63 -134t-54 -154.5t-41.5 -177.5h-29q-17 95 -41 177.5t-53.5 154.5t-63 134t-69.5 116l31 23q78 -121 131.5 -249.5t79.5 -258.5z" />
    <glyph glyph-name="hasht.arab.tnum" horiz-adv-x="605" 
d="M61 0zM303 437q-26 -130 -79.5 -259t-131.5 -250l-31 24q36 54 69.5 116t63 134t53.5 154t41 177h29q17 -95 41.5 -177t54 -154t63 -134t68.5 -116l-30 -24q-78 121 -131.5 250t-79.5 259z" />
    <glyph glyph-name="noh.arab.tnum" horiz-adv-x="605" 
d="M138 0zM432 -61v300q-39 -21 -76.5 -27t-68.5 -6q-39 0 -67.5 10.5t-46.5 29.5t-26.5 44.5t-8.5 54.5q0 36 11 70.5t32.5 62t52.5 44.5t71 17q45 0 76 -19.5t50.5 -53t28.5 -78.5t9 -96v-353h-37zM432 280q0 49 -7.5 90t-23 70t-41 45t-61.5 16q-29 0 -52.5 -14
t-39.5 -36t-24.5 -49.5t-8.5 -54.5q0 -47 30 -74.5t90 -27.5q38 0 72 8t66 27z" />
    <glyph glyph-name=".thmz" unicode="&#x654;" 
d="M100 88l-185 -94l-13 26l75 37q-19 3 -32.5 11.5t-22 21t-12.5 27t-4 28.5q0 42 26 68t68 26h47l-5 -28h-36q-35 0 -53.5 -20t-18.5 -47q0 -31 20.5 -49t46.5 -18q16 0 38 11l50 25z" />
    <glyph glyph-name=".bhmz" unicode="&#x655;" 
d="M0 0zM100 -150l-185 -94l-13 26l75 37q-19 3 -32.5 11.5t-22 21t-12.5 27t-4 28.5q0 42 26 68t68 26h47l-5 -28h-36q-35 0 -53.5 -20t-18.5 -47q0 -31 20.5 -49t46.5 -18q16 0 38 11l50 25z" />
    <glyph glyph-name=".mad" unicode="&#x653;" 
d="M-14 79q-19 0 -31 -2t-23 -10t-23 -24t-30 -43l-19 13q20 32 34 50.5t27.5 28.5t28 12.5t36.5 2.5h153l-5 -28h-148z" />
    <glyph glyph-name=".skn" unicode="&#x652;" 
d="M-105 105q0 21 8.5 40t22.5 33.5t33.5 22.5t40.5 8t40.5 -8t33.5 -22.5t22.5 -33.5t8.5 -40q0 -22 -8.5 -41t-22.5 -33.5t-33.5 -22.5t-40.5 -8t-40.5 8t-33.5 22.5t-22.5 33.5t-8.5 41zM-78 105q0 -16 6.5 -30.5t17 -25t24.5 -16.5t30 -6t30 6t24.5 16.5t16.5 25t6 30.5
q0 32 -22.5 54t-54.5 22t-55 -22t-23 -54z" />
    <glyph glyph-name=".shdd" unicode="&#x651;" 
d="M0 12q-15 -12 -29 -12h-26q-13 0 -29.5 4t-31.5 16.5t-25 36t-10 62.5v63h28v-77q0 -44 20 -61t50 -17h39v155h28v-155h39q30 0 50 17t20 61v77h27v-63q0 -39 -10 -62.5t-24.5 -36t-31 -16.5t-29.5 -4h-26q-9 0 -15 2.5t-14 9.5z" />
    <glyph glyph-name=".a" unicode="&#x64e;" 
d="M107 121l11 -26l-225 -95l-11 26z" />
    <glyph glyph-name=".o" unicode="&#x64f;" 
d="M-129 26l128 52q-35 19 -48.5 44.5t-13.5 48.5q0 19 7 36.5t19.5 31t30.5 22t39 8.5q42 0 68.5 -27.5t26.5 -67.5q0 -32 -20 -59.5t-74 -50.5l-152 -64zM-37 172q0 -26 18 -48t47 -33q27 11 50 30t23 49q0 27 -17.5 50t-50.5 23q-18 0 -31 -6.5t-22 -17t-13 -23t-4 -24.5
z" />
    <glyph glyph-name=".e" unicode="&#x650;" 
d="M0 0zM107 0l11 -26l-225 -95l-11 26z" />
    <glyph glyph-name=".an" unicode="&#x64b;" 
d="M0 0zM107 121l11 -26l-225 -95l-11 26zM107 243l11 -26l-225 -95l-11 26z" />
    <glyph glyph-name=".on" unicode="&#x64c;" 
d="M2 78q-35 19 -49 44.5t-14 48.5q0 19 7 36.5t20 31t31 22t39 8.5q42 0 68.5 -27.5t26.5 -67.5q0 -32 -20 -59.5t-74 -50.5l-152 -64l-11 25v95q0 22 -19 22h-45v27h50q17 0 28 -9.5t11 -35.5v-88zM-34 172q0 -26 18 -48t47 -33q27 11 50 30t23 49q0 27 -17.5 50t-50.5 23
q-18 0 -31 -6.5t-22 -17t-13 -23t-4 -24.5z" />
    <glyph glyph-name=".en" unicode="&#x64d;" 
d="M0 0zM107 -122l11 -26l-225 -95l-11 26zM107 0l11 -26l-225 -95l-11 26z" />
    <glyph glyph-name=".aa" unicode="&#x670;" 
d="M-14 171h28v-171h-28v171z" />
    <glyph glyph-name=".i" unicode="&#x656;" 
d="M0 0zM-14 0h28v-171h-28v171z" />
    <glyph glyph-name="Tvasla" 
d="M-103 32q21 42 40.5 71t38 47t36 26t35.5 8q16 0 31 -7t26.5 -19t18 -28t6.5 -35q0 -15 -5 -31.5t-17 -30.5t-32 -23.5t-51 -9.5h-134l-19 18v101l26 5v-92zM23 27q32 0 56 16.5t24 51.5q0 23 -16.5 42t-42.5 19q-17 0 -33 -10t-31 -27.5t-29.5 -41t-29.5 -50.5h102z" />
    <glyph glyph-name=".kolah" 
d="M-30 71q-17 0 -29.5 -3.5t-21.5 -23.5l-20 -45l-27 12l23 50q7 17 14.5 26.5t16.5 14t19.5 5.5t24.5 1h170l-1 -37h-169z" />
    <glyph glyph-name=".shdd.an" 
d="M0 0zM0 12q-15 -12 -29 -12h-26q-13 0 -29.5 4t-31.5 16.5t-25 36t-10 62.5v63h28v-77q0 -44 20 -61t50 -17h39v155h28v-155h39q30 0 50 17t20 61v77h27v-63q0 -39 -10 -62.5t-24.5 -36t-31 -16.5t-29.5 -4h-26q-9 0 -15 2.5t-14 9.5zM107 350l11 -26l-225 -95l-11 26z
M107 472l11 -26l-225 -95l-11 26z" />
    <glyph glyph-name="be.dls" horiz-adv-x="778" 
d="M213 0q-41 0 -70.5 12.5t-48 33.5t-27 49t-8.5 59v128h37v-120q0 -55 29 -89t96 -34h361q44 0 71.5 24.5t27.5 64.5v154h38v-152q0 -30 -10.5 -54t-28.5 -41t-42.5 -26t-53.5 -9h-371z" />
    <glyph glyph-name="be.dls.fina" horiz-adv-x="827" 
d="M582 39q48 0 73.5 24.5t25.5 64.5v154h38v-154q0 -26 8.5 -43t22 -27t30 -14.5t33.5 -4.5h14q13 0 17.5 -5.5t4.5 -13.5q0 -10 -4.5 -15t-17.5 -5h-15q-35 0 -66 14t-49 53q-21 -39 -51.5 -53t-63.5 -14h-369q-41 0 -70.5 12.5t-48 33.5t-27 49t-8.5 59v128h37v-120
q0 -55 29 -89t96 -34h361z" />
    <glyph glyph-name="fe.dls.medi" horiz-adv-x="534" 
d="M229 39q-59 26 -96 71t-37 103q0 33 12 64t35 54.5t56 38t74 14.5t72 -14.5t51.5 -37.5t31 -52.5t10.5 -60.5q0 -53 -28 -99t-90 -81h214q22 0 22 -19q0 -20 -22 -20h-118q-45 0 -81 1.5t-57 10.5q-14 -5 -34.5 -7t-42 -3.5t-42 -1.5h-34.5h-125q-13 0 -17.5 5t-4.5 13
q0 10 4.5 15.5t17.5 5.5h229zM267 345q-31 0 -55.5 -10.5t-42 -29t-26.5 -43t-9 -51.5q0 -32 14 -58t35.5 -46.5t46.5 -34.5t47 -22q16 8 37.5 22t40.5 34t32.5 45t13.5 56q0 61 -35.5 99.5t-98.5 38.5z" />
    <glyph glyph-name="fe.dls.init" horiz-adv-x="492" 
d="M227 39q42 0 76 7q-72 22 -113.5 42.5t-62 42t-26 45.5t-5.5 54q0 28 11 57.5t32.5 53.5t53.5 39t73 15q37 0 68 -10.5t53 -34t34 -60.5t12 -89v-40q0 -75 -46.5 -118t-146.5 -43h-240q-13 0 -17.5 5t-4.5 13q0 10 4.5 15.5t17.5 5.5h227zM261 356q-29 0 -52.5 -10.5
t-40.5 -28t-26 -40t-9 -45.5t4 -42.5t25 -38.5t65 -39.5t124 -46.5q20 14 32 37.5t12 55.5v38q0 77 -31.5 118.5t-102.5 41.5z" />
    <glyph glyph-name="period" unicode="." horiz-adv-x="196" 
d="M98 0q-19 0 -26 10t-7 30q0 22 7 31t26 9t26 -9t7 -31q0 -20 -7 -30t-26 -10z" />
    <glyph glyph-name="virgul" unicode="&#x60c;" horiz-adv-x="196" 
d="M98 0q-19 0 -26 10t-7 31q0 44 1.5 70.5t7.5 41.5t19 22.5t37 13.5v-33q-14 -4 -21.5 -8t-11 -11.5t-4 -21t-0.5 -35.5q23 0 30.5 -9t7.5 -31q0 -20 -7 -30t-26 -10z" />
    <glyph glyph-name="colon" unicode=":" horiz-adv-x="196" 
d="M65 0zM98 242q-19 0 -26 10t-7 30q0 22 7 31t26 9t26 -9t7 -31q0 -20 -7 -30t-26 -10zM98 0q-19 0 -26 10t-7 30q0 22 7 31t26 9t26 -9t7 -31q0 -20 -7 -30t-26 -10z" />
    <glyph glyph-name="noqte_virgul" unicode="&#x61b;" horiz-adv-x="196" 
d="M65 0zM98 242q-19 0 -26 10t-7 31q0 44 1.5 70.5t7.5 41.5t19 22.5t37 13.5v-33q-14 -4 -21.5 -8t-11 -11.5t-4 -21t-0.5 -35.5q23 0 30.5 -9t7.5 -31q0 -20 -7 -30t-26 -10zM98 0q-19 0 -26 10t-7 30q0 22 7 31t26 9t26 -9t7 -31q0 -20 -7 -30t-26 -10z" />
    <glyph glyph-name="soal" unicode="&#x61f;" horiz-adv-x="415" 
d="M313 423q0 28 -5.5 53t-18 44.5t-33.5 31t-51 11.5q-21 0 -40 -8t-33 -22.5t-22 -33t-8 -39.5q0 -35 17 -59.5t42 -49.5q23 -23 36.5 -39t21 -33t10 -40.5t2.5 -61.5h-37q0 33 -2 52.5t-8 33.5t-18 27.5t-32 33.5q-12 13 -24.5 27t-22 30t-16 34.5t-6.5 41.5q0 33 12 59
t31.5 45t45 29t51.5 10q75 0 109.5 -49t34.5 -128h-36zM209 0q-18 0 -25 9t-7 29q0 22 7 31t25 9t25 -9t7 -31q0 -20 -7 -29t-25 -9z" />
    <glyph glyph-name="exclam" unicode="!" horiz-adv-x="194" 
d="M116 470q0 -51 -0.5 -88t-1 -68.5t-2 -61.5t-4.5 -67h-22q-2 37 -3.5 67t-2.5 61.5t-1.5 68.5t-0.5 88v126h38v-126zM97 0q-19 0 -25.5 9t-6.5 29q0 22 6.5 31t25.5 9q18 0 25 -9t7 -31q0 -20 -7 -29t-25 -9z" />
    <glyph glyph-name="setare" unicode="&#x66d;" horiz-adv-x="507" 
d="M146 0l-29 24l109 146l-172 60l12 34l171 -62l-1 185h35l-1 -185l171 62l12 -34l-173 -60l109 -146l-29 -24l-106 151z" />
    <glyph glyph-name="darsad" unicode="&#x66a;" horiz-adv-x="719" 
d="M538 210q25 0 48 -11t40.5 -28.5t28 -39.5t10.5 -45q0 -24 -10.5 -46.5t-28 -40t-40.5 -28.5t-48 -11t-47.5 11t-40 28.5t-28 40t-10.5 46.5q0 23 10.5 45t28 39.5t40 28.5t47.5 11zM538 -5q17 0 33.5 7.5t29.5 20.5t21 29t8 34q0 17 -8 33t-21 29t-29.5 20.5t-33.5 7.5
t-34 -7.5t-30 -20.5t-21 -29t-8 -33q0 -18 8 -34t21 -29t30 -20.5t34 -7.5zM181 282q-25 0 -48 11t-40.5 28.5t-28 40t-10.5 45.5t10.5 45.5t28 40t40.5 28t48 10.5t47.5 -10.5t40 -28t28 -40t10.5 -45.5t-10.5 -45.5t-28 -40t-40 -28.5t-47.5 -11zM181 497
q-18 0 -34.5 -7.5t-30 -20t-21.5 -29t-8 -33.5t8 -33.5t21.5 -29t30 -20t34.5 -7.5q17 0 33.5 7.5t30 20t21.5 29t8 33.5t-8 33.5t-21.5 29t-30 20t-33.5 7.5zM542 569l30 -19l-395 -627l-30 19z" />
    <glyph glyph-name="darhezar" unicode="&#x609;" horiz-adv-x="1045" 
d="M864 210q25 0 48 -11t40.5 -28.5t28 -39.5t10.5 -45q0 -24 -10.5 -46.5t-28 -40t-40.5 -28.5t-48 -11t-47.5 11t-40 28.5t-28 40t-10.5 46.5q0 23 10.5 45t28 39.5t40 28.5t47.5 11zM864 -5q17 0 34 7.5t30 20.5t21 29t8 34q0 17 -8 33t-21 29t-30 20.5t-34 7.5t-34 -7.5
t-30 -20.5t-21 -29t-8 -33q0 -18 8 -34t21 -29t30 -20.5t34 -7.5zM538 210q25 0 48 -11t40.5 -28.5t28 -39.5t10.5 -45q0 -24 -10.5 -46.5t-28 -40t-40.5 -28.5t-48 -11t-47.5 11t-40 28.5t-28 40t-10.5 46.5q0 23 10.5 45t28 39.5t40 28.5t47.5 11zM538 -5q17 0 33.5 7.5
t29.5 20.5t21 29t8 34q0 17 -8 33t-21 29t-29.5 20.5t-33.5 7.5t-34 -7.5t-30 -20.5t-21 -29t-8 -33q0 -18 8 -34t21 -29t30 -20.5t34 -7.5zM181 282q-25 0 -48 11t-40.5 28.5t-28 40t-10.5 45.5t10.5 45.5t28 40t40.5 28t48 10.5t47.5 -10.5t40 -28t28 -40t10.5 -45.5
t-10.5 -45.5t-28 -40t-40 -28.5t-47.5 -11zM181 497q-18 0 -34.5 -7.5t-30 -20t-21.5 -29t-8 -33.5t8 -33.5t21.5 -29t30 -20t34.5 -7.5q17 0 33.5 7.5t30 20t21.5 29t8 33.5t-8 33.5t-21.5 29t-30 20t-33.5 7.5zM542 569l30 -19l-395 -627l-30 19z" />
    <glyph glyph-name="darDahezar" unicode="&#x60a;" horiz-adv-x="1371" 
d="M1190 210q25 0 48 -11t40.5 -28.5t28 -39.5t10.5 -45q0 -24 -10.5 -46.5t-28 -40t-40.5 -28.5t-48 -11t-47.5 11t-40 28.5t-28 40t-10.5 46.5q0 23 10.5 45t28 39.5t40 28.5t47.5 11zM1190 -5q17 0 34 7.5t30 20.5t21 29t8 34q0 17 -8 33t-21 29t-30 20.5t-34 7.5
t-34 -7.5t-30 -20.5t-21 -29t-8 -33q0 -18 8 -34t21 -29t30 -20.5t34 -7.5zM864 210q25 0 48 -11t40.5 -28.5t28 -39.5t10.5 -45q0 -24 -10.5 -46.5t-28 -40t-40.5 -28.5t-48 -11t-47.5 11t-40 28.5t-28 40t-10.5 46.5q0 23 10.5 45t28 39.5t40 28.5t47.5 11zM864 -5
q17 0 34 7.5t30 20.5t21 29t8 34q0 17 -8 33t-21 29t-30 20.5t-34 7.5t-34 -7.5t-30 -20.5t-21 -29t-8 -33q0 -18 8 -34t21 -29t30 -20.5t34 -7.5zM538 210q25 0 48 -11t40.5 -28.5t28 -39.5t10.5 -45q0 -24 -10.5 -46.5t-28 -40t-40.5 -28.5t-48 -11t-47.5 11t-40 28.5
t-28 40t-10.5 46.5q0 23 10.5 45t28 39.5t40 28.5t47.5 11zM538 -5q17 0 33.5 7.5t29.5 20.5t21 29t8 34q0 17 -8 33t-21 29t-29.5 20.5t-33.5 7.5t-34 -7.5t-30 -20.5t-21 -29t-8 -33q0 -18 8 -34t21 -29t30 -20.5t34 -7.5zM181 282q-25 0 -48 11t-40.5 28.5t-28 40
t-10.5 45.5t10.5 45.5t28 40t40.5 28t48 10.5t47.5 -10.5t40 -28t28 -40t10.5 -45.5t-10.5 -45.5t-28 -40t-40 -28.5t-47.5 -11zM181 497q-18 0 -34.5 -7.5t-30 -20t-21.5 -29t-8 -33.5t8 -33.5t21.5 -29t30 -20t34.5 -7.5q17 0 33.5 7.5t30 20t21.5 29t8 33.5t-8 33.5
t-21.5 29t-30 20t-33.5 7.5zM542 569l30 -19l-395 -627l-30 19z" />
    <glyph glyph-name="tarikh.sep" unicode="&#x60d;" horiz-adv-x="388" 
d="M294 278l30 -20l-230 -368l-30 20z" />
    <glyph glyph-name="hezar.sep" unicode="&#x66c;" horiz-adv-x="194" 
d="M64 0zM96.9941 124.992q18.999 0 25.998 -9.99902q7 -10 7 -30.998q0 -43.9971 -1.5 -70.4961q-1.5 -26.498 -7.5 -41.4971q-5.99902 -14.999 -18.998 -22.499q-13 -7.49902 -36.998 -13.499v32.998q13.999 4 21.499 7.99902q7.49902 4 10.999 11.5q3.5 7.49902 4 20.998
q0.5 13.5 0.5 35.498q-22.999 0 -30.498 9q-7.5 8.99902 -7.5 30.998q0 19.998 7 29.998q6.99902 9.99902 25.998 9.99902z" />
    <glyph glyph-name="hezar.sep.up" horiz-adv-x="194" 
d="M64 421zM96.9941 609.963q18.999 0 25.998 -10q7 -9.99902 7 -30.998q0 -43.9971 -1.5 -70.4951q-1.5 -26.499 -7.5 -41.498q-5.99902 -14.999 -18.998 -22.498q-13 -7.5 -36.998 -13.499v32.998q13.999 3.99902 21.499 7.99902q7.49902 4 10.999 11.499
q3.5 7.5 4 20.999t0.5 35.498q-22.999 0 -30.498 8.99902q-7.5 9 -7.5 30.998q0 19.999 7 29.998q6.99902 10 25.998 10z" />
    <glyph glyph-name="sad.sep" unicode="&#x66b;" horiz-adv-x="388" 
d="M64 0zM294 278l30 -20l-230 -368l-30 20z" />
    <glyph glyph-name="quotesingle" unicode="'" horiz-adv-x="163" 
d="M64 610h36v-236h-36v236z" />
    <glyph glyph-name="quotedbl" unicode="&#x22;" horiz-adv-x="268" 
d="M64 374zM64 610h36v-236h-36v236zM170 610h36v-236h-36v236z" />
    <glyph glyph-name="parantez_left" unicode="&#xfd3e;" horiz-adv-x="284" 
d="M91 214q0 -67 8 -119.5t25.5 -96.5t44 -82t62.5 -75l-23 -23q-35 35 -63.5 73.5t-48.5 85t-31 103.5t-11 129t11 129t31 103.5t48.5 84.5t63.5 73l23 -22q-36 -38 -62.5 -75.5t-44 -80.5t-25.5 -93.5t-8 -113.5z" />
    <glyph glyph-name="parantez_right" unicode="&#xfd3f;" horiz-adv-x="284" 
d="M53 0zM192.988 203.987q0 66.9961 -8 119.493q-7.99902 52.4961 -25.498 96.4941q-17.499 43.9971 -43.9971 81.9951q-26.499 37.9971 -62.4961 74.9951l22.998 22.998q34.998 -34.9971 63.4961 -73.4951q28.499 -38.4971 48.4971 -84.9951
q19.999 -46.4971 30.998 -103.493q11 -56.9971 11 -128.992q0 -71.9961 -11 -128.992q-10.999 -56.9961 -30.998 -103.494q-19.998 -46.4971 -48.4971 -84.4941q-28.498 -37.998 -63.4961 -72.9961l-22.998 21.999q35.9971 37.998 62.4961 75.4951
q26.498 37.498 43.9971 80.4951q17.499 42.998 25.498 93.4941q8 50.4971 8 113.493z" />
    <glyph glyph-name="parenleft" unicode="(" horiz-adv-x="284" 
d="M54 0zM91 214q0 -67 8 -119.5t25.5 -96.5t44 -82t62.5 -75l-23 -23q-35 35 -63.5 73.5t-48.5 85t-31 103.5t-11 129t11 129t31 103.5t48.5 84.5t63.5 73l23 -22q-36 -38 -62.5 -75.5t-44 -80.5t-25.5 -93.5t-8 -113.5z" />
    <glyph glyph-name="parenright" unicode=")" horiz-adv-x="284" 
d="M53 0zM192.988 203.987q0 66.9961 -8 119.493q-7.99902 52.4961 -25.498 96.4941q-17.499 43.9971 -43.9971 81.9951q-26.499 37.9971 -62.4961 74.9951l22.998 22.998q34.998 -34.9971 63.4961 -73.4951q28.499 -38.4971 48.4971 -84.9951
q19.999 -46.4971 30.998 -103.493q11 -56.9971 11 -128.992q0 -71.9961 -11 -128.992q-10.999 -56.9961 -30.998 -103.494q-19.998 -46.4971 -48.4971 -84.4941q-28.498 -37.998 -63.4961 -72.9961l-22.998 21.999q35.9971 37.998 62.4961 75.4951
q26.498 37.498 43.9971 80.4951q17.499 42.998 25.498 93.4941q8 50.4971 8 113.493z" />
    <glyph glyph-name="guillemotleft" unicode="&#xab;" horiz-adv-x="381" 
d="M54 0zM90 204q0 -36 4 -68.5t14.5 -64t29.5 -63.5t49 -69l-23 -22q-35 39 -56.5 76.5t-33.5 74t-16 71.5t-4 70t4 70t16 71.5t33.5 74t56.5 76.5l23 -22q-30 -37 -49 -69.5t-29.5 -64.5t-14.5 -66.5t-4 -74.5zM230 204q0 -36 4 -68.5t14.5 -64t29.5 -63.5t49 -69l-23 -22
q-35 39 -56.5 76.5t-33.5 74t-16 71.5t-4 70t4 70t16 71.5t33.5 74t56.5 76.5l23 -22q-30 -37 -49 -69.5t-29.5 -64.5t-14.5 -66.5t-4 -74.5z" />
    <glyph glyph-name="guillemotright" unicode="&#xbb;" horiz-adv-x="381" 
d="M54 0zM150.991 204q0 -36 -4 -68.5t-14.499 -64q-10.5 -31.5 -29.498 -63.5q-18.999 -32 -48.9971 -69l22.998 -22q34.998 39 56.4971 76.5q21.498 37.5 33.498 74q11.999 36.5 15.999 71.5q3.99902 35 3.99902 70t-3.99902 70q-4 35 -15.999 71.5q-12 36.5 -33.498 74
q-21.499 37.5 -56.4971 76.5l-22.998 -22q29.998 -37 48.9971 -69.5q18.998 -32.5 29.498 -64.5q10.499 -32 14.499 -66.5t4 -74.5zM290.982 204q0 -36 -4 -68.5t-14.499 -64t-29.498 -63.5t-48.9971 -69l22.998 -22q34.998 39 56.4971 76.5t33.498 74t15.999 71.5t4 70
t-4 70t-15.999 71.5t-33.498 74t-56.4971 76.5l-22.998 -22q29.998 -37 48.9971 -69.5t29.498 -64.5t14.499 -66.5t4 -74.5z" />
    <glyph glyph-name="guilsinglleft" unicode="&#x2039;" horiz-adv-x="241" 
d="M90 204q0 -36 4 -68.5t14.5 -64t29.5 -63.5t49 -69l-23 -22q-35 39 -56.5 76.5t-33.5 74t-16 71.5t-4 70t4 70t16 71.5t33.5 74t56.5 76.5l23 -22q-30 -37 -49 -69.5t-29.5 -64.5t-14.5 -66.5t-4 -74.5z" />
    <glyph glyph-name="guilsinglright" unicode="&#x203a;" horiz-adv-x="241" 
d="M54 0zM150.991 204q0 -36 -4 -68.5t-14.499 -64q-10.5 -31.5 -29.498 -63.5q-18.999 -32 -48.9971 -69l22.998 -22q34.998 39 56.4971 76.5q21.498 37.5 33.498 74q11.999 36.5 15.999 71.5q3.99902 35 3.99902 70t-3.99902 70q-4 35 -15.999 71.5q-12 36.5 -33.498 74
q-21.499 37.5 -56.4971 76.5l-22.998 -22q29.998 -37 48.9971 -69.5q18.998 -32.5 29.498 -64.5q10.499 -32 14.499 -66.5t4 -74.5z" />
    <glyph glyph-name="bracketleft" unicode="[" horiz-adv-x="303" 
d="M250 594v-37h-149v-697h149v-36h-186v770h186z" />
    <glyph glyph-name="bracketright" unicode="]" horiz-adv-x="303" 
d="M53 0zM52.9971 594v-37h148.99v-697h-148.99v-36h185.988v770h-185.988z" />
    <glyph glyph-name="slash" unicode="/" horiz-adv-x="533" 
d="M449 569l30 -19l-395 -627l-30 19z" />
    <glyph glyph-name="backslash" unicode="\" horiz-adv-x="533" 
d="M54 0zM83.9951 569l-29.998 -19l394.976 -627l29.998 19z" />
    <glyph glyph-name="ellipsis" unicode="&#x2026;" horiz-adv-x="634" 
d="M65 0zM317 0q-19 0 -26 10t-7 30q0 22 7 31t26 9t26 -9t7 -31q0 -20 -7 -30t-26 -10zM537 0q-19 0 -26 10t-7 30q0 22 7 31t26 9t26 -9t7 -31q0 -20 -7 -30t-26 -10zM98 0q-19 0 -26 10t-7 30q0 22 7 31t26 9t26 -9t7 -31q0 -20 -7 -30t-26 -10z" />
    <glyph glyph-name="quoteleft" unicode="&#x2018;" horiz-adv-x="194" 
d="M65 427zM98 427q-19 0 -26 10t-7 31q0 44 1.5 70.5t7.5 41.5t19 22.5t37 13.5v-33q-14 -4 -21.5 -8t-11 -11.5t-4 -21t-0.5 -35.5q23 0 30.5 -9t7.5 -31q0 -20 -7 -30t-26 -10z" />
    <glyph glyph-name="quoteright" unicode="&#x2019;" horiz-adv-x="194" 
d="M64 421zM96.9941 609.963q18.999 0 25.998 -10q7 -9.99902 7 -30.998q0 -43.9971 -1.5 -70.4951q-1.5 -26.499 -7.5 -41.498q-5.99902 -14.999 -18.998 -22.498q-13 -7.5 -36.998 -13.499v32.998q13.999 3.99902 21.499 7.99902q7.49902 4 10.999 11.499
q3.5 7.5 4 20.999t0.5 35.498q-22.999 0 -30.498 8.99902q-7.5 9 -7.5 30.998q0 19.999 7 29.998q6.99902 10 25.998 10z" />
    <glyph glyph-name="quotedblleft" unicode="&#x201c;" horiz-adv-x="313" 
d="M65 427zM98 427q-19 0 -26 10t-7 31q0 44 1.5 70.5t7.5 41.5t19 22.5t37 13.5v-33q-14 -4 -21.5 -8t-11 -11.5t-4 -21t-0.5 -35.5q23 0 30.5 -9t7.5 -31q0 -20 -7 -30t-26 -10zM217 427q-19 0 -26 10t-7 31q0 44 1.5 70.5t7.5 41.5t19 22.5t37 13.5v-33q-14 -4 -21.5 -8
t-11 -11.5t-4 -21t-0.5 -35.5q23 0 30.5 -9t7.5 -31q0 -20 -7 -30t-26 -10z" />
    <glyph glyph-name="quotedblright" unicode="&#x201d;" horiz-adv-x="313" 
d="M64 421zM96.9941 609.963q18.999 0 25.998 -10q7 -9.99902 7 -30.998q0 -43.9971 -1.5 -70.4951q-1.5 -26.499 -7.5 -41.498q-5.99902 -14.999 -18.998 -22.498q-13 -7.5 -36.998 -13.499v32.998q13.999 3.99902 21.499 7.99902q7.49902 4 10.999 11.499
q3.5 7.5 4 20.999t0.5 35.498q-22.999 0 -30.498 8.99902q-7.5 9 -7.5 30.998q0 19.999 7 29.998q6.99902 10 25.998 10zM216.986 609.963q18.999 0 25.999 -10q6.99902 -9.99902 6.99902 -30.998q0 -43.9971 -1.5 -70.4951q-1.49902 -26.499 -7.49902 -41.498
t-18.999 -22.498q-12.999 -7.5 -36.998 -13.499v32.998q14 3.99902 21.499 7.99902q7.5 4 10.999 11.499q3.5 7.5 4 20.999t0.5 35.498q-22.998 0 -30.498 8.99902q-7.5 9 -7.5 30.998q0 19.999 7 29.998q7 10 25.998 10z" />
    <glyph glyph-name="numbersign" unicode="#" horiz-adv-x="696" 
d="M240 398h-164v35h169l30 166l29 -4l-27 -162h188l31 166l29 -4l-28 -162h145v-35h-152l-34 -196h164v-36h-169l-30 -166l-29 4l28 162h-188l-31 -166l-30 4l29 162h-146v36h152zM425 202l34 196h-188l-34 -196h188z" />
    <glyph glyph-name="asteris" horiz-adv-x="507" 
d="M54 224zM146 224l-29 24l109 146l-172 60l12 34l171 -62l-1 185h35l-1 -185l171 62l12 -34l-173 -60l109 -146l-29 -24l-106 151z" />
    <glyph glyph-name="plus" unicode="+" horiz-adv-x="510" 
d="M54 177v36h185v179h36v-179h181v-36h-181v-177h-36v177h-185z" />
    <glyph glyph-name="hyphen_minus" unicode="-" horiz-adv-x="510" 
d="M54 177v37h402v-37h-402z" />
    <glyph glyph-name="plusminus" unicode="&#xb1;" horiz-adv-x="510" 
d="M54 0zM54 0v37h402v-37h-402zM54 318v36h185v179h36v-179h181v-36h-181v-177h-36v177h-185z" />
    <glyph glyph-name="multiply" unicode="&#xd7;" horiz-adv-x="457" 
d="M54 350l25 26l150 -149l147 148l25 -25l-148 -148l150 -150l-26 -26l-150 151l-148 -149l-25 25l148 148z" />
    <glyph glyph-name="divide" unicode="&#xf7;" horiz-adv-x="510" 
d="M223 62h64v-62h-64v62zM223 452h64v-62h-64v62zM54 208v37h402v-37h-402z" />
    <glyph glyph-name="equal" unicode="=" horiz-adv-x="510" 
d="M54 88zM54 88v37h402v-37h-402zM54 267v37h402v-37h-402z" />
    <glyph glyph-name="notequal" unicode="&#x2260;" horiz-adv-x="510" 
d="M229 88l-59 -155l-31 13l53 142h-138v35h152l55 144h-207v37h221l62 155l31 -13l-56 -142h144v-37h-158l-56 -144h214v-35h-227z" />
    <glyph glyph-name="approxequal" unicode="&#x2248;" horiz-adv-x="510" 
d="M154 338q33 0 56 -10.5t44.5 -23t45 -23t58.5 -10.5q23 0 47.5 7.5t45.5 16.5l5 -33q-23 -10 -49.5 -18.5t-51.5 -8.5q-35 0 -58.5 10.5t-45 22.5t-44.5 22.5t-56 10.5q-23 0 -47 -7.5t-47 -16.5l-3 32q23 11 49 20t51 9zM154 158q33 0 56 -10.5t44.5 -23t45 -23
t58.5 -10.5q24 0 47.5 7.5t46.5 16.5l4 -32q-23 -10 -49.5 -19t-51.5 -9q-35 0 -58.5 10.5t-45 23t-44.5 23t-56 10.5q-23 0 -47 -8t-47 -17l-3 33q23 11 49 19.5t51 8.5z" />
    <glyph glyph-name="logicalnot" unicode="&#xac;" horiz-adv-x="510" 
d="M420 285h-366v36h402v-260h-36v224z" />
    <glyph glyph-name="less" unicode="&#x3c;" horiz-adv-x="454" 
d="M400 21l-16 -34l-330 179v41l330 181l16 -35l-310 -166z" />
    <glyph glyph-name="greater" unicode="&#x3e;" horiz-adv-x="454" 
d="M54 0zM53.9971 21l15.999 -34l329.979 179v41l-329.979 181l-15.999 -35l309.98 -166z" />
    <glyph glyph-name="lessequal" unicode="&#x2264;" horiz-adv-x="510" 
d="M54 0zM421 176l-16 -34l-330 179v41l330 181l16 -35l-310 -166zM54 0v37h402v-37h-402z" />
    <glyph glyph-name="greaterequal" unicode="&#x2265;" horiz-adv-x="510" 
d="M54 0zM67.9961 176l15.999 -34l329.979 179v41l-329.979 181l-15.999 -35l309.98 -166zM54 0v37h402v-37h-402z" />
    <glyph glyph-name="infinity" unicode="&#x221e;" horiz-adv-x="880" 
d="M440 168q-30 -43 -56 -73t-51.5 -49t-52.5 -27.5t-57 -8.5q-35 0 -65.5 11.5t-53.5 34.5t-36.5 57.5t-13.5 79.5t13.5 79t36.5 57t53.5 34.5t65.5 11.5q30 0 57 -8.5t52.5 -27.5t51.5 -49t56 -73q30 43 56 73t52 49t52.5 27.5t56.5 8.5q34 0 65 -11.5t54 -34.5t36.5 -57
t13.5 -79t-13.5 -79.5t-36.5 -57.5t-54 -34.5t-65 -11.5q-30 0 -56.5 8.5t-52.5 27.5t-52 49t-56 73zM459 193q42 -67 91 -106.5t100 -39.5q67 0 103.5 38t36.5 108q0 69 -36.5 106.5t-103.5 37.5q-51 0 -100 -39t-91 -105zM422 193q-42 66 -91.5 105t-100.5 39
q-66 0 -103 -37.5t-37 -106.5q0 -70 37 -108t103 -38q51 0 100.5 39.5t91.5 106.5z" />
    <glyph glyph-name="degree" unicode="&#xb0;" horiz-adv-x="361" 
d="M54 473q0 26 10 49t27 40t40.5 27t49.5 10t49 -10t40 -27t27 -40t10 -49t-10 -49t-27 -40.5t-40 -27.5t-49 -10t-49.5 10t-40.5 27.5t-27 40.5t-10 49zM87 473q0 -39 27.5 -66t66.5 -27q19 0 36 7t29.5 20t19.5 29.5t7 36.5q0 19 -7 36t-19.5 30t-29.5 20t-36 7
q-39 0 -66.5 -27t-27.5 -66z" />
    <glyph glyph-name="fraction" unicode="&#x2044;" horiz-adv-x="533" 
d="M54 0zM449 569l30 -19l-395 -627l-30 19z" />
    <glyph glyph-name="braceleft" unicode="{" horiz-adv-x="342" 
d="M54 223q30 3 47 17.5t25.5 39t10.5 59t2 78.5q0 40 3 72.5t15 55.5t36 36t66 13h29v-37h-24q-27 0 -44.5 -7t-27 -23.5t-13 -43t-3.5 -65.5q0 -45 -2 -79t-9 -59.5t-21 -43.5t-39 -30q25 -12 39 -30t21 -44t9 -60t2 -79q0 -39 3.5 -65t13 -41t27 -21t44.5 -6h24v-36h-29
q-42 0 -66 11.5t-36 33.5t-15 53.5t-3 70.5q0 43 -2 78.5t-10.5 60.5t-25.5 39t-47 16v36z" />
    <glyph glyph-name="braceright" unicode="}" horiz-adv-x="342" 
d="M54 0zM287.982 223q-29.998 3 -46.9971 17.5t-25.498 39q-8.5 24.5 -10.5 59t-2 78.5q0 40 -2.99902 72.5q-3 32.5 -15 55.5q-11.999 23 -35.9971 36q-23.999 13 -65.9961 13h-28.998v-37h23.998q26.998 0 44.4971 -7t26.999 -23.5q9.49902 -16.5 12.999 -43t3.5 -65.5
q0 -45 2 -79q1.99902 -34 8.99902 -59.5q6.99902 -25.5 20.999 -43.5q13.999 -18 38.9971 -30q-24.998 -12 -38.9971 -30q-14 -18 -20.999 -44q-7 -26 -8.99902 -60q-2 -34 -2 -79q0 -39 -3.5 -65t-12.999 -41q-9.5 -15 -26.999 -21t-44.4971 -6h-23.998v-36h28.998
q41.9971 0 65.9961 11.5q23.998 11.5 35.9971 33.5q12 22 15 53.5q2.99902 31.5 2.99902 70.5q0 43 2 78.5t10.5 60.5q8.49902 25 25.498 39t46.9971 16v36z" />
    <glyph glyph-name="bar" unicode="|" horiz-adv-x="165" 
d="M102 -176h-38v770h38v-770z" />
    <glyph glyph-name="brokenbar" unicode="&#xa6;" horiz-adv-x="165" 
d="M102 280h-38v314h38v-314zM102 -176h-38v313h38v-313z" />
    <glyph glyph-name="emdash" unicode="&#x2014;" horiz-adv-x="922" 
d="M4 157v37h913v-37h-913z" />
    <glyph glyph-name="endash" unicode="&#x2013;" horiz-adv-x="460" 
d="M4 157v37h451v-37h-451z" />
    <glyph glyph-name="figuredash" unicode="&#x2012;" horiz-adv-x="460" 
d="M4 157zM4 157v37h451v-37h-451z" />
    <glyph glyph-name="hyphen" unicode="&#x2010;" horiz-adv-x="449" 
d="M54 157v37h341v-37h-341z" />
    <glyph glyph-name="nb_hyphen" unicode="&#x2011;" horiz-adv-x="449" 
d="M54 157zM54 157v37h341v-37h-341z" />
    <glyph glyph-name="horizontal_bar" unicode="&#x2015;" horiz-adv-x="1021" 
d="M53 157zM53 157v37h913v-37h-913z" />
    <glyph glyph-name="softHyphen" unicode="&#xad;" horiz-adv-x="449" 
d="M54 157zM54 157v37h341v-37h-341z" />
    <glyph glyph-name="underscore" unicode="_" horiz-adv-x="491" 
d="M54 33h383v-34h-383v34z" />
    <glyph glyph-name="paragraph" unicode="&#xb6;" horiz-adv-x="409" 
d="M345 0h-36v561h-104v-561h-36v351q-33 0 -55.5 4t-35.5 16t-18.5 35.5t-5.5 63.5t5.5 64.5t18.5 37.5t35.5 17.5t56.5 4.5h175v-594z" />
    <glyph glyph-name="reversed_pilcrow_paragraph" unicode="&#x204b;" horiz-adv-x="409" 
d="M64 0zM63.9961 0h35.998v561h103.993v-561h35.998v351q32.998 0 55.4971 4q22.498 4 35.4971 16t18.499 35.5t5.5 63.5t-5.5 64.5t-18.499 37.5t-35.4971 17.5q-22.499 4.5 -56.4971 4.5h-174.989v-594z" />
    <glyph glyph-name="dotted.ring" unicode="&#x25cc;" horiz-adv-x="637" 
d="M184 81h82v-81h-82v81zM371 81h82v-81h-82v81zM184 484h82v-81h-82v81zM371 484h82v-81h-82v81zM502 282h81v-80h-81v80zM54 282h81v-80h-81v80z" />
    <glyph glyph-name="zero" unicode="0" horiz-adv-x="559" 
d="M501 310q0 -82 -17.5 -141.5t-47.5 -98.5t-70.5 -58t-86.5 -19t-86.5 19t-70.5 58t-47 98.5t-17 141.5t17 142t47 99t70.5 58t86.5 19t86.5 -19t70.5 -58t47.5 -99t17.5 -142zM465 310q0 77 -15 131.5t-40.5 89.5t-59.5 51.5t-71 16.5q-38 0 -71.5 -16.5t-59 -51.5
t-40.5 -89.5t-15 -131.5t15 -131.5t40.5 -89.5t59 -51t71.5 -16q37 0 71 16t59.5 51t40.5 89.5t15 131.5z" />
    <glyph glyph-name="one" unicode="1" horiz-adv-x="327" 
d="M226 623v-623h-33v548v15.5t1 15.5l-137 -124q-5 -5 -11.5 -5t-10.5 6l-10 11l175 156h26z" />
    <glyph glyph-name="two" unicode="2" horiz-adv-x="488" 
d="M427 31q12 0 12 -11v-20h-398v12q0 8 8 16l214 216q27 27 50 52.5t40 52t26.5 54t9.5 58.5q0 36 -12 62t-32 43t-46 25t-54 8q-62 0 -101.5 -35t-49.5 -92q-7 -15 -19 -12l-18 2q11 78 62.5 122t126.5 44q36 0 68 -10t56.5 -31t39 -52t14.5 -73q0 -36 -11 -66.5t-30 -58
t-43 -53.5t-51 -53l-200 -204q12 2 26.5 3t30.5 1h281z" />
    <glyph glyph-name="three" unicode="3" horiz-adv-x="505" 
d="M69 462q11 78 62 122t127 44q34 0 65.5 -10t55.5 -29.5t38 -49t14 -68.5q0 -30 -10 -55t-27.5 -43.5t-40.5 -31.5t-49 -19q71 -10 107 -50.5t36 -102.5q0 -38 -15 -70t-41.5 -55.5t-62.5 -37t-78 -13.5q-54 0 -90 14.5t-58.5 37.5t-34 51t-18.5 55l12 6q6 2 13 1t10 -10
q3 -7 9.5 -28t24 -43t49 -39t82.5 -17q41 0 71.5 13.5t51 35t31 47.5t10.5 50q0 30 -9.5 55.5t-31 44t-57 29t-86.5 11.5v24q82 2 125 39t43 97q0 34 -11.5 59t-31 41t-44.5 24t-53 8q-63 0 -102.5 -35t-50.5 -92q-5 -15 -18 -12z" />
    <glyph glyph-name="four" unicode="4" horiz-adv-x="525" 
d="M340 209v340q0 8 0.5 14t1.5 14l-278 -368h276zM488 209v-18q0 -9 -10 -9h-107v-182h-31v182h-297q-10 0 -12 7l-4 17l314 415h30v-412h117z" />
    <glyph glyph-name="five" unicode="5" horiz-adv-x="469" 
d="M110 372q60 15 109 15q48 0 85 -14t61.5 -38.5t37 -59t12.5 -74.5q0 -49 -17 -87.5t-45.5 -65.5t-67 -41t-81.5 -14q-52 0 -93 16t-67 36l10 14q2 4 4.5 4.5t7.5 0.5t15.5 -6.5t28 -14t41 -14t55.5 -6.5q37 0 68.5 12t55 34.5t37 55.5t13.5 76q0 69 -40.5 113.5
t-126.5 44.5q-26 0 -54.5 -4t-60.5 -14l-23 8l49 271h276v-14q0 -7 -4.5 -12t-15.5 -5h-231z" />
    <glyph glyph-name="six" unicode="6" horiz-adv-x="510" 
d="M254 21q39 0 70.5 12t53.5 33.5t33.5 51t11.5 64.5q0 75 -44 117.5t-114 42.5q-40 0 -71.5 -14t-53 -36t-33 -50t-11.5 -56q0 -36 11 -66t31.5 -52t50 -34.5t65.5 -12.5zM124 297q25 33 64.5 52t85.5 19q40 0 74 -13t59 -37t38.5 -58t13.5 -75q0 -42 -15 -77.5t-42.5 -61
t-65 -39.5t-82.5 -14q-43 0 -78 13.5t-60.5 40t-39.5 64t-14 85.5q0 36 18.5 81t60.5 103l172 233q2 4 7.5 5.5t10.5 1.5h31l-185 -244q-17 -23 -30.5 -42t-22.5 -37z" />
    <glyph glyph-name="seven" unicode="7" horiz-adv-x="456" 
d="M440 620v-15q0 -10 -4 -18l-291 -574q-6 -13 -21 -13h-23l292 572q3 5 5.5 9.5t5.5 7.5h-364q-11 0 -11 11v20h411z" />
    <glyph glyph-name="eight" unicode="8" horiz-adv-x="511" 
d="M255 19q75 0 120 39t45 105q0 42 -16 70.5t-40 45t-53 23.5t-56 7q-26 0 -55 -7t-53.5 -23.5t-40.5 -45t-16 -70.5q0 -66 45.5 -105t119.5 -39zM255 601q-68 0 -106 -37.5t-38 -93.5q0 -26 8.5 -50t26.5 -42.5t45 -29.5t64 -11t64 11t45 29.5t26.5 42.5t8.5 50
q0 56 -37.5 93.5t-106.5 37.5zM315 324q30 -6 55.5 -19t44 -32.5t29.5 -47t11 -62.5q0 -40 -14.5 -71.5t-41 -53.5t-63.5 -33.5t-81 -11.5t-81 11.5t-63.5 33.5t-41 53.5t-14.5 71.5q0 35 11 62.5t29.5 47t44 32.5t55.5 19q-57 14 -87 53t-30 93q0 33 12 62t35 50.5t56 33.5
t74 12t74 -12t56 -33.5t35 -50.5t12 -62q0 -54 -30 -93t-87 -53z" />
    <glyph glyph-name="nine" unicode="9" horiz-adv-x="467" 
d="M73 446q0 -72 41 -113t109 -41q39 0 69.5 13.5t51.5 35t32 48t11 53.5q0 35 -11.5 64t-32 49.5t-49 32t-61.5 11.5q-36 0 -65.5 -11.5t-50.5 -31.5t-32.5 -48t-11.5 -62zM311 258q17 23 29.5 41.5t21.5 37.5q-24 -33 -63.5 -52.5t-84.5 -19.5q-39 0 -71 13t-55.5 36.5
t-36.5 56.5t-13 72t14.5 73t41 59t62.5 39t78 14q40 0 74.5 -14t59 -39.5t38.5 -61t14 -78.5q0 -47 -20.5 -89t-57.5 -95l-166 -244q-5 -7 -16 -7h-32z" />
    <glyph glyph-name="black_small_square" unicode="&#x25aa;" horiz-adv-x="368" 
d="M314 260v-260h-260v260h260z" />
    <glyph glyph-name="white_small_square" unicode="&#x25ab;" horiz-adv-x="368" 
d="M314 260v-260h-260v260h260zM89 36h189v184h-189v-184z" />
    <glyph glyph-name="bullet" unicode="&#x2022;" horiz-adv-x="402" 
d="M200 0q-30 0 -57 11.5t-46.5 31t-31 46.5t-11.5 57t11.5 57t31 47t46.5 31.5t57 11.5t57 -11.5t47.5 -31.5t32 -47t11.5 -57t-11.5 -57t-32 -46.5t-47.5 -31t-57 -11.5z" />
    <glyph glyph-name="white_bullet" unicode="&#x25e6;" horiz-adv-x="400" 
d="M54 145q0 30 11.5 57t31 46.5t46 31t56.5 11.5t56.5 -11.5t46.5 -31t31.5 -46.5t11.5 -57t-11.5 -56.5t-31.5 -46t-46.5 -31t-56.5 -11.5t-56.5 11.5t-46 31t-31 46t-11.5 56.5zM90 145q0 -23 8.5 -43t23 -34.5t34.5 -23t43 -8.5t43 8.5t35 23t23.5 34.5t8.5 43t-8.5 43
t-23.5 35t-35 23.5t-43 8.5t-43 -8.5t-34.5 -23.5t-23 -35t-8.5 -43z" />
    <glyph glyph-name="black_leftsmall_triangle" unicode="&#x25c2;" horiz-adv-x="402" 
d="M348 332v-339l-294 170z" />
    <glyph glyph-name="white_leftsmall_triangle" unicode="&#x25c3;" horiz-adv-x="402" 
d="M348 332v-339l-294 170zM314 51v224l-197 -112z" />
    <glyph glyph-name="black_upsmall_triangle" unicode="&#x25b4;" horiz-adv-x="447" 
d="M393 0h-339l169 294z" />
    <glyph glyph-name="white_upsmall_triangle" unicode="&#x25b5;" horiz-adv-x="447" 
d="M393 0h-339l169 294zM110 34h224l-112 198z" />
    <glyph glyph-name="black_rightsmall_triangle" unicode="&#x25b8;" horiz-adv-x="403" 
d="M54 -7v339l295 -169z" />
    <glyph glyph-name="white_rightsmall_triangle" unicode="&#x25b9;" horiz-adv-x="402" 
d="M348 163l-294 -170v339zM284 163l-197 112v-224z" />
    <glyph glyph-name="black_downsmall_triangle" unicode="&#x25be;" horiz-adv-x="447" 
d="M54 287h339l-170 -294z" />
    <glyph glyph-name="white_downsmall_triangle" unicode="&#x25bf;" horiz-adv-x="447" 
d="M393 287l-170 -294l-169 294h339zM222 55l112 199h-224z" />
    <glyph glyph-name="tooth.k.medi" horiz-adv-x="465" 
d="M0 0q-13 0 -17.5 5t-4.5 13q0 10 4.5 15.5t17.5 5.5h185q48 0 73.5 24.5t25.5 64.5v154h38v-154q0 -26 8.5 -43t22 -27t30 -14.5t33.5 -4.5h49q22 0 22 -19q0 -20 -22 -20h-50q-35 0 -66.5 14t-48.5 53q-21 -39 -51.5 -53t-63.5 -14h-185z" />
    <glyph glyph-name="be.k.medi" horiz-adv-x="465" 
d="M0 0zM0 0q-13 0 -17.5 5t-4.5 13q0 10 4.5 15.5t17.5 5.5h185q48 0 73.5 24.5t25.5 64.5v154h38v-154q0 -26 8.5 -43t22 -27t30 -14.5t33.5 -4.5h49q22 0 22 -19q0 -20 -22 -20h-50q-35 0 -66.5 14t-48.5 53q-21 -39 -51.5 -53t-63.5 -14h-185zM219 -171h-64v52h64v-52z
" />
    <glyph glyph-name="pe.k.medi" horiz-adv-x="465" 
d="M0 0zM0 0q-13 0 -17.5 5t-4.5 13q0 10 4.5 15.5t17.5 5.5h185q48 0 73.5 24.5t25.5 64.5v154h38v-154q0 -26 8.5 -43t22 -27t30 -14.5t33.5 -4.5h49q22 0 22 -19q0 -20 -22 -20h-50q-35 0 -66.5 14t-48.5 53q-21 -39 -51.5 -53t-63.5 -14h-185zM249 -275h-62v51h62v-51z
M305 -170h-60v51h60v-51zM191 -170h-62v51h62v-51z" />
    <glyph glyph-name="te.k.medi" horiz-adv-x="465" 
d="M0 0zM0 0q-13 0 -17.5 5t-4.5 13q0 10 4.5 15.5t17.5 5.5h185q48 0 73.5 24.5t25.5 64.5v154h38v-154q0 -26 8.5 -43t22 -27t30 -14.5t33.5 -4.5h49q22 0 22 -19q0 -20 -22 -20h-50q-35 0 -66.5 14t-48.5 53q-21 -39 -51.5 -53t-63.5 -14h-185zM315 417h-60v51h60v-51z
M201 417h-62v51h62v-51z" />
    <glyph glyph-name="the.k.medi" horiz-adv-x="465" 
d="M0 0zM0 0q-13 0 -17.5 5t-4.5 13q0 10 4.5 15.5t17.5 5.5h185q48 0 73.5 24.5t25.5 64.5v154h38v-154q0 -26 8.5 -43t22 -27t30 -14.5t33.5 -4.5h49q22 0 22 -19q0 -20 -22 -20h-50q-35 0 -66.5 14t-48.5 53q-21 -39 -51.5 -53t-63.5 -14h-185zM259 522h-62v51h62v-51z
M315 417h-60v51h60v-51zM201 417h-62v51h62v-51z" />
    <glyph glyph-name="nun.k.medi" horiz-adv-x="465" 
d="M0 0zM0 0q-13 0 -17.5 5t-4.5 13q0 10 4.5 15.5t17.5 5.5h185q48 0 73.5 24.5t25.5 64.5v154h38v-154q0 -26 8.5 -43t22 -27t30 -14.5t33.5 -4.5h49q22 0 22 -19q0 -20 -22 -20h-50q-35 0 -66.5 14t-48.5 53q-21 -39 -51.5 -53t-63.5 -14h-185zM287 417h-64v52h64v-52z
" />
    <glyph glyph-name="ye.k.medi" horiz-adv-x="465" 
d="M0 0zM0 0q-13 0 -17.5 5t-4.5 13q0 10 4.5 15.5t17.5 5.5h185q48 0 73.5 24.5t25.5 64.5v154h38v-154q0 -26 8.5 -43t22 -27t30 -14.5t33.5 -4.5h49q22 0 22 -19q0 -20 -22 -20h-50q-35 0 -66.5 14t-48.5 53q-21 -39 -51.5 -53t-63.5 -14h-185zM320 -170h-56v51h56v-51z
M202 -170h-58v51h58v-51z" />
    <glyph glyph-name="ie.k.medi" horiz-adv-x="465" 
d="M0 0zM0 0q-13 0 -17.5 5t-4.5 13q0 10 4.5 15.5t17.5 5.5h185q48 0 73.5 24.5t25.5 64.5v154h38v-154q0 -26 8.5 -43t22 -27t30 -14.5t33.5 -4.5h49q22 0 22 -19q0 -20 -22 -20h-50q-35 0 -66.5 14t-48.5 53q-21 -39 -51.5 -53t-63.5 -14h-185zM330 439l-185 -94l-13 26
l75 37q-19 3 -32.5 11.5t-22 21t-12.5 27t-4 28.5q0 42 26 68t68 26h47l-5 -28h-36q-35 0 -53.5 -20t-18.5 -47q0 -31 20.5 -49t46.5 -18q16 0 38 11l50 25z" />
    <glyph glyph-name="tooth.k.init" horiz-adv-x="422" 
d="M0 0q-13 0 -17.5 5t-4.5 13q0 10 4.5 15.5t17.5 5.5h226q44 0 72 24.5t28 64.5v154h37v-150q0 -61 -37.5 -96.5t-97.5 -35.5h-228z" />
    <glyph glyph-name="be.k.init" horiz-adv-x="418" 
d="M0 0zM0 0q-13 0 -17.5 5t-4.5 13q0 10 4.5 15.5t17.5 5.5h226q44 0 72 24.5t28 64.5v154h37v-150q0 -61 -37.5 -96.5t-97.5 -35.5h-228zM146 -171h-64v52h64v-52z" />
    <glyph glyph-name="pe.k.init" horiz-adv-x="418" 
d="M0 0zM0 0q-13 0 -17.5 5t-4.5 13q0 10 4.5 15.5t17.5 5.5h226q44 0 72 24.5t28 64.5v154h37v-150q0 -61 -37.5 -96.5t-97.5 -35.5h-228zM184 -275h-62v51h62v-51zM240 -170h-60v51h60v-51zM126 -170h-62v51h62v-51z" />
    <glyph glyph-name="te.k.init" horiz-adv-x="418" 
d="M0 0zM0 0q-13 0 -17.5 5t-4.5 13q0 10 4.5 15.5t17.5 5.5h226q44 0 72 24.5t28 64.5v154h37v-150q0 -61 -37.5 -96.5t-97.5 -35.5h-228zM326 417h-60v51h60v-51zM212 417h-62v51h62v-51z" />
    <glyph glyph-name="the.k.init" horiz-adv-x="418" 
d="M0 0zM0 0q-13 0 -17.5 5t-4.5 13q0 10 4.5 15.5t17.5 5.5h226q44 0 72 24.5t28 64.5v154h37v-150q0 -61 -37.5 -96.5t-97.5 -35.5h-228zM270 522h-62v51h62v-51zM326 417h-60v51h60v-51zM212 417h-62v51h62v-51z" />
    <glyph glyph-name="nun.k.init" horiz-adv-x="418" 
d="M0 0zM0 0q-13 0 -17.5 5t-4.5 13q0 10 4.5 15.5t17.5 5.5h226q44 0 72 24.5t28 64.5v154h37v-150q0 -61 -37.5 -96.5t-97.5 -35.5h-228zM303 417h-64v52h64v-52z" />
    <glyph glyph-name="ye.k.init" horiz-adv-x="418" 
d="M0 0zM0 0q-13 0 -17.5 5t-4.5 13q0 10 4.5 15.5t17.5 5.5h226q44 0 72 24.5t28 64.5v154h37v-150q0 -61 -37.5 -96.5t-97.5 -35.5h-228zM244 -170h-56v51h56v-51zM126 -170h-58v51h58v-51z" />
    <glyph glyph-name="ie.k.init" horiz-adv-x="418" 
d="M0 0zM0 0q-13 0 -17.5 5t-4.5 13q0 10 4.5 15.5t17.5 5.5h226q44 0 72 24.5t28 64.5v154h37v-150q0 -61 -37.5 -96.5t-97.5 -35.5h-228zM363 439l-185 -94l-13 26l75 37q-19 3 -32.5 11.5t-22 21t-12.5 27t-4 28.5q0 42 26 68t68 26h47l-5 -28h-36q-35 0 -53.5 -20
t-18.5 -47q0 -31 20.5 -49t46.5 -18q16 0 38 11l50 25z" />
    <glyph glyph-name="re.c.fina" horiz-adv-x="259" 
d="M153 124q0 -37 25 -61t70 -24h11q22 0 22 -19q0 -20 -22 -20h-11q-28 0 -53.5 10.5t-42.5 34.5v-29q0 -61 -18.5 -109t-50.5 -81t-75 -50.5t-93 -17.5h-25l-6 38h24q54 0 93 18t64.5 48.5t38 70.5t12.5 83v266h37v-158z" />
    <glyph glyph-name="re.c" horiz-adv-x="212" 
d="M-115 -204h23q54 0 93 18t64.5 48.5t38 70.5t12.5 83v266h37v-266q0 -61 -18.5 -109t-50.5 -81t-75.5 -50.5t-93.5 -17.5h-25z" />
    <glyph glyph-name="ze.c.fina" horiz-adv-x="259" 
d="M0 0zM153 124q0 -37 25 -61t70 -24h11q22 0 22 -19q0 -20 -22 -20h-11q-28 0 -53.5 10.5t-42.5 34.5v-29q0 -61 -18.5 -109t-50.5 -81t-75 -50.5t-93 -17.5h-25l-6 38h24q54 0 93 18t64.5 48.5t38 70.5t12.5 83v266h37v-158zM157 417h-64v52h64v-52z" />
    <glyph glyph-name="ze.c" horiz-adv-x="212" 
d="M0 0zM-115 -204h23q54 0 93 18t64.5 48.5t38 70.5t12.5 83v266h37v-266q0 -61 -18.5 -109t-50.5 -81t-75.5 -50.5t-93.5 -17.5h-25zM157 417h-64v52h64v-52z" />
    <glyph glyph-name="je.c.fina" horiz-adv-x="259" 
d="M0 0zM153 124q0 -37 25 -61t70 -24h11q22 0 22 -19q0 -20 -22 -20h-11q-28 0 -53.5 10.5t-42.5 34.5v-29q0 -61 -18.5 -109t-50.5 -81t-75 -50.5t-93 -17.5h-25l-6 38h24q54 0 93 18t64.5 48.5t38 70.5t12.5 83v266h37v-158zM152 522h-62v51h62v-51zM208 417h-60v51h60
v-51zM94 417h-62v51h62v-51z" />
    <glyph glyph-name="je.c" horiz-adv-x="212" 
d="M0 0zM-115 -204h23q54 0 93 18t64.5 48.5t38 70.5t12.5 83v266h37v-266q0 -61 -18.5 -109t-50.5 -81t-75.5 -50.5t-93.5 -17.5h-25zM152 522h-62v51h62v-51zM208 417h-60v51h60v-51zM94 417h-62v51h62v-51z" />
    <glyph glyph-name=".tv" 
d="M83 200l24 -14l-96 -186h-22l-96 186l23 14l84 -166z" />
    <glyph glyph-name="re.bv" unicode="&#x695;" horiz-adv-x="212" 
d="M0 0zM153 16q0 -61 -18.5 -109t-50.5 -81t-75.5 -50.5t-93.5 -17.5h-56l-5 38h53q54 0 93.5 18t65 48.5t38 70.5t12.5 83v266h37v-266v0zM126 -284l24 -14l-96 -186h-22l-96 186l23 14l84 -166z" />
    <glyph glyph-name="lam.tv" unicode="&#x6b5;" horiz-adv-x="663" 
d="M54 0zM589 17q0 -52 -17 -99t-48.5 -82.5t-76.5 -56.5t-101 -21h-56q-112 0 -174 69t-62 189v172h37v-171q0 -49 12.5 -89.5t38 -70t64.5 -45.5t91 -16h44q51 0 90 17.5t66 47.5t41 69t14 83v607h37v-603zM429 617l24 -14l-96 -186h-22l-96 186l23 14l84 -166z" />
    <glyph glyph-name="vav.t2p" unicode="&#x6ca;" horiz-adv-x="451" 
d="M39 0zM148 -204q48 0 86 16.5t64 44.5t40 65t16 78h-124q-51 0 -84 11t-52 31.5t-26.5 49t-7.5 64.5q0 37 10.5 71t31.5 59.5t52 41t72 15.5q33 0 63 -11t53 -34t36.5 -60t13.5 -89v-133q0 -51 -16.5 -98t-47 -82.5t-75 -56.5t-100.5 -21h-108l-6 38h109zM97 157
q0 -31 6.5 -53.5t23.5 -36.5t46 -21t73 -7h108v96q0 90 -35.5 130t-98.5 40q-58 0 -90.5 -41t-32.5 -107zM317 466h-60v51h60v-51zM203 466h-62v51h62v-51z" />
    <glyph glyph-name="he.thmz.goal" unicode="&#x6c2;" horiz-adv-x="460" 
d="M54 0zM54 154q0 31 8.5 58.5t27 57t47.5 62.5t70 74l-47 47l27 28q62 -62 104 -107t67.5 -80t36.5 -65.5t11 -63.5q0 -35 -13.5 -65.5t-38 -52.5t-57.5 -34.5t-72 -12.5t-71 11.5t-54 32t-34 49t-12 61.5zM369 161q0 25 -7 48t-23.5 48.5t-43 54.5t-65.5 67
q-44 -43 -71.5 -75.5t-42.5 -58t-20 -46.5t-5 -42q0 -51 36 -84.5t99 -33.5q31 0 57 10t45 26.5t30 38.5t11 47zM315 658l-185 -94l-13 26l75 37q-19 3 -32.5 11.5t-22 21t-12.5 27t-4 28.5q0 42 26 68t68 26h47l-5 -28h-36q-35 0 -53.5 -20t-18.5 -47q0 -31 20.5 -49
t46.5 -18q16 0 38 11l50 25z" />
    <glyph glyph-name="ae" unicode="&#x6d5;" horiz-adv-x="460" 
d="M54 0zM54 154q0 31 8.5 58.5t27 57t47.5 62.5t70 74l-47 47l27 28q62 -62 104 -107t67.5 -80t36.5 -65.5t11 -63.5q0 -35 -13.5 -65.5t-38 -52.5t-57.5 -34.5t-72 -12.5t-71 11.5t-54 32t-34 49t-12 61.5zM369 161q0 25 -7 48t-23.5 48.5t-43 54.5t-65.5 67
q-44 -43 -71.5 -75.5t-42.5 -58t-20 -46.5t-5 -42q0 -51 36 -84.5t99 -33.5q31 0 57 10t45 26.5t30 38.5t11 47z" />
    <glyph glyph-name="he.dochashmi" unicode="&#x6be;" horiz-adv-x="681" 
d="M54 0zM54 202q0 34 12 65t35 55t56 38t74 14t72 -14.5t51.5 -37.5t31 -52.5t10.5 -60.5q0 -52 -26 -93.5t-77 -76.5h189q50 0 78 23.5t28 61.5q0 19 -8 40t-27 42l-193 215l28 27l194 -218q26 -29 36 -55.5t10 -52.5q0 -54 -38 -88t-107 -34h-112q-37 0 -67 0.5t-50 4.5
q-34 -29 -72.5 -59.5t-86.5 -62.5l-24 32q38 23 75 49.5t66 50.5q-38 12 -67.5 31.5t-49.5 44.5t-30.5 53t-10.5 58zM226 336q-31 0 -56 -11t-43 -29.5t-27.5 -43t-9.5 -51.5q0 -32 14 -59t36.5 -47t51 -33t58.5 -18q14 10 33 25.5t36 34.5t29 42.5t12 50.5q0 61 -36.5 100
t-97.5 39z" />
    <glyph glyph-name="ye.tv" unicode="&#x6ce;" horiz-adv-x="676" 
d="M54 0zM367 -204q43 0 82.5 13.5t69.5 37t48 55.5t18 69q0 16 -3.5 30t-14 24.5t-28.5 17t-46 6.5h-176v159q0 75 43.5 121t118.5 46h115l5 -39h-125q-22 0 -43.5 -7.5t-38.5 -23t-27.5 -38.5t-10.5 -53v-127h146q37 0 61 -9.5t37.5 -24.5t18.5 -34.5t5 -39.5
q0 -46 -20 -86t-54 -70t-79 -47.5t-96 -17.5h-83q-112 0 -174 69t-62 189v172h37v-171q0 -49 12.5 -89.5t38 -70t64.5 -45.5t91 -16h70zM248 517l24 -14l-96 -186h-22l-96 186l23 14l84 -166z" />
    <glyph glyph-name="la.tv" horiz-adv-x="477" 
d="M69 0zM69 620h38v-581h165q44 0 71.5 24t27.5 63v494h38v-490q0 -30 -10.5 -54t-28.5 -41t-42.5 -26t-53.5 -9h-205v620zM324 843l24 -14l-96 -186h-22l-96 186l23 14l84 -166z" />
    <glyph glyph-name="la.tv.fina" horiz-adv-x="515" 
d="M69 0zM69 0v620h38v-581h164q48 0 74 24.5t26 64.5v492h38v-492q0 -26 8.5 -43t22 -27t30.5 -14.5t34 -4.5h12q12 0 16.5 -5.5t4.5 -13.5q0 -10 -4.5 -15t-16.5 -5h-12q-38 0 -69 14t-48 53q-21 -39 -52 -53t-64 -14h-202zM324 843l24 -14l-96 -186h-22l-96 186l23 14
l84 -166z" />
    <glyph glyph-name="ye.tv.k.medi" horiz-adv-x="465" 
d="M0 0zM0 0q-13 0 -17.5 5t-4.5 13q0 10 4.5 15.5t17.5 5.5h185q48 0 73.5 24.5t25.5 64.5v154h38v-154q0 -26 8.5 -43t22 -27t30 -14.5t33.5 -4.5h49q22 0 22 -19q0 -20 -22 -20h-50q-35 0 -66.5 14t-48.5 53q-21 -39 -51.5 -53t-63.5 -14h-185zM320 -170h-56v51h56v-51z
M202 -170h-58v51h58v-51zM311 571l24 -14l-96 -186h-22l-96 186l23 14l84 -166z" />
    <glyph glyph-name="ye.tv.k.init" horiz-adv-x="418" 
d="M0 0zM0 0q-13 0 -17.5 5t-4.5 13q0 10 4.5 15.5t17.5 5.5h226q44 0 72 24.5t28 64.5v154h37v-150q0 -61 -37.5 -96.5t-97.5 -35.5h-228zM244 -170h-56v51h56v-51zM126 -170h-58v51h58v-51zM311 571l24 -14l-96 -186h-22l-96 186l23 14l84 -166z" />
    <glyph glyph-name="re.bv.c.fina" horiz-adv-x="259" 
d="M0 0zM153 124q0 -37 25 -61t70 -24h11q22 0 22 -19q0 -20 -22 -20h-11q-28 0 -53.5 10.5t-42.5 34.5v-29q0 -61 -18.5 -109t-50.5 -81t-75 -50.5t-93 -17.5h-25l-6 38h24q54 0 93 18t64.5 48.5t38 70.5t12.5 83v266h37v-158zM125 -284l24 -14l-96 -186h-22l-96 186l23 14
l84 -166z" />
    <glyph glyph-name="re.bv.c" horiz-adv-x="212" 
d="M0 0zM-115 -204h23q54 0 93 18t64.5 48.5t38 70.5t12.5 83v266h37v-266q0 -61 -18.5 -109t-50.5 -81t-75.5 -50.5t-93.5 -17.5h-25zM125 -284l24 -14l-96 -186h-22l-96 186l23 14l84 -166z" />
    <glyph glyph-name="A" unicode="A" horiz-adv-x="600" 
d="M451 235l-90 219q-16 37 -32.5 76t-27.5 77q-11 -39 -28.5 -77.5t-32.5 -75.5l-91 -219h302zM588 0h-30q-5 0 -11.5 9.5t-12.5 23t-11.5 28t-8.5 23.5l-51 124h-326l-49 -124q-4 -9 -9.5 -23.5t-12 -28t-12.5 -23t-12 -9.5h-29l269 643h38z" />
    <glyph glyph-name="B" unicode="B" horiz-adv-x="580" 
d="M305 31q88 0 134.5 36.5t46.5 108.5q0 63 -46 100t-134 37h-169v-282h168zM137 615v-273h107q38 0 76.5 4t69 18.5t50 42t19.5 74.5q0 67 -43 100.5t-134 33.5h-145zM282 643q214 0 214 -158q0 -27 -10 -52t-28 -45.5t-43 -35.5t-56 -21q78 -8 122 -48.5t44 -106.5
q0 -85 -58 -130.5t-162 -45.5h-206v643h183z" />
    <glyph glyph-name="C" unicode="C" horiz-adv-x="626" 
d="M566 101q3 1 4.5 2t3.5 1q1 -1 5 -3l15 -15q-41 -43 -96.5 -68t-136.5 -25q-66 0 -122 21.5t-96.5 63t-63.5 101.5t-23 137q0 73 22.5 134t63.5 105.5t99 69.5t130 25q64 0 114.5 -20t95.5 -59q-8 -14 -12.5 -17.5t-8.5 -3.5t-11 5q-25 18 -46.5 30.5t-42.5 19.5t-43 10
t-46 3q-65 0 -116.5 -23.5t-87 -64t-54 -95.5t-18.5 -119q0 -70 20 -124t56 -91t85 -56.5t106 -19.5q50 0 86.5 9t68.5 31q14 7 26 16.5t23 19.5z" />
    <glyph glyph-name="D" unicode="D" horiz-adv-x="701" 
d="M643 323q0 -74 -21.5 -133.5t-61.5 -101.5t-97 -65t-127 -23h-237v643h237q68 0 124.5 -21.5t97 -62t63 -100.5t22.5 -136zM604 323q0 69 -19 123.5t-54.5 91.5t-85 56.5t-109.5 19.5h-199v-583h162q59 0 114 12t97.5 44t68 89t25.5 147z" />
    <glyph glyph-name="E" unicode="E" horiz-adv-x="536" 
d="M137 612v-269h292v-31h-292v-281h351l-1 -31h-388v643h388v-31h-350z" />
    <glyph glyph-name="F" unicode="F" horiz-adv-x="522" 
d="M137 612v-281h304v-32h-304v-299h-38v643h388v-31h-350z" />
    <glyph glyph-name="G" unicode="G" horiz-adv-x="682" 
d="M442 292h175v-228q-48 -34 -103 -52.5t-125 -18.5q-77 0 -138.5 23t-105 65.5t-66.5 103.5t-23 137t23 137t65 103.5t102 65t135 22.5t127.5 -19.5t95.5 -58.5l-12 -16q-3 -8 -13 -5q-7 3 -20 13.5t-36 22.5t-57.5 21.5t-84.5 9.5q-65 0 -118 -20t-90.5 -58t-57.5 -93
t-20 -125q0 -71 20 -126.5t58 -93.5t92.5 -58.5t122.5 -20.5q61 0 105.5 15t88.5 41v184h-129q-11 0 -11 9v20z" />
    <glyph glyph-name="H" unicode="H" horiz-adv-x="696" 
d="M596 643v-643h-38v313h-421v-313h-38v643h38v-301h421v301h38z" />
    <glyph glyph-name="I" unicode="I" horiz-adv-x="236" 
d="M137 0h-38v643h38v-643z" />
    <glyph glyph-name="J" unicode="J" horiz-adv-x="381" 
d="M288 215q0 -109 -51.5 -165.5t-140.5 -56.5q-39 0 -84 14l2 19q2 3 3.5 6t7.5 3q10 0 25 -5.5t43 -5.5q73 0 114.5 46.5t41.5 143.5v429h39v-428z" />
    <glyph glyph-name="K" unicode="K" horiz-adv-x="581" 
d="M137 344h42q17 0 26.5 4t19.5 15l267 270q7 6 12.5 8t15.5 2h30l-288 -289q-8 -9 -13.5 -13.5t-15.5 -6.5q10 -3 17 -8t15 -14l308 -312h-32q-11 0 -16 2.5t-10 7.5l-284 286q-10 11 -18 15.5t-31 4.5h-45v-316h-38v643h38v-299z" />
    <glyph glyph-name="L" unicode="L" horiz-adv-x="466" 
d="M452 32v-32h-353v643h38v-611h315z" />
    <glyph glyph-name="M" unicode="M" horiz-adv-x="835" 
d="M736 643v-643h-33v566v20l-263 -461q-4 -4 -7.5 -7t-7.5 -3h-7q-5 0 -9 3t-8 7l-270 462q2 -6 2 -11.5v-9.5v-566h-34v643h26q5 0 8.5 -1t6.5 -6l272 -459q5 -12 8 -22q4 5 6 11t6 12l263 458q3 5 6.5 6t9.5 1h25z" />
    <glyph glyph-name="N" unicode="N" horiz-adv-x="696" 
d="M596 643v-643h-17q-8 0 -14 7l-434 576q2 -6 2 -11.5v-10.5v-561h-34v643h18q5 0 9 -1t7 -6l431 -572q0 5 -0.5 10.5t-0.5 10.5v558h33z" />
    <glyph glyph-name="O" unicode="O" horiz-adv-x="730" 
d="M674 321q0 -76 -22.5 -137t-64 -103.5t-98.5 -65t-126 -22.5q-68 0 -124.5 22.5t-97 65t-63 103.5t-22.5 137q0 75 22.5 136t63 104t97 66t124.5 23q69 0 126 -23t98.5 -66t64 -103.5t22.5 -136.5zM632 321q0 70 -19.5 125t-54.5 93.5t-84.5 58.5t-110.5 20
q-59 0 -108 -20t-84.5 -58.5t-55.5 -93.5t-20 -125q0 -71 20 -125.5t55.5 -92.5t84.5 -57.5t108 -19.5q61 0 110.5 19.5t84.5 57.5t54.5 92.5t19.5 125.5z" />
    <glyph glyph-name="P" unicode="P" horiz-adv-x="529" 
d="M261 295q45 0 80.5 12.5t60 34t38 51.5t13.5 65q0 157 -192 157h-124v-320h124zM261 643q115 0 173 -45t58 -140q0 -42 -16.5 -77.5t-46.5 -61.5t-72.5 -40.5t-95.5 -14.5h-124v-264h-38v643h162z" />
    <glyph glyph-name="Q" unicode="Q" horiz-adv-x="730" 
d="M95 321q0 -71 20 -125.5t55.5 -92.5t84.5 -57.5t108 -19.5q61 0 110.5 19.5t84.5 57.5t54.5 92.5t19.5 125.5q0 70 -19.5 125t-54.5 93.5t-84.5 58.5t-110.5 20q-59 0 -108 -20t-84.5 -58.5t-55.5 -93.5t-20 -125zM699 -146h-33q-15 0 -25 10l-145 156q-57 -27 -133 -27
q-68 0 -124.5 22.5t-97 65t-63 103.5t-22.5 137q0 75 22.5 136t63 104t97 66t124.5 23q69 0 126 -23t98.5 -66t64 -103.5t22.5 -136.5q0 -101 -38.5 -173t-107.5 -111z" />
    <glyph glyph-name="R" unicode="R" horiz-adv-x="558" 
d="M255 326q89 0 139.5 40t50.5 110q0 73 -47 106t-136 33h-125v-289h118zM541 0h-33q-13 0 -19 9l-218 272q-8 9 -16 13t-28 4h-90v-298h-38v643h163q110 0 165.5 -40t55.5 -125q0 -75 -52.5 -121.5t-140.5 -54.5q5 -3 10.5 -7t9.5 -10z" />
    <glyph glyph-name="S" unicode="S" horiz-adv-x="493" 
d="M411 567q-3 -5 -9 -5t-15 8.5t-25.5 19t-41.5 19.5t-62 9q-36 0 -64 -10.5t-46.5 -28.5t-28 -42t-9.5 -51q0 -46 24.5 -71t61.5 -41t79.5 -27.5t79.5 -30t61.5 -48.5t24.5 -83q0 -42 -14 -77t-41 -60.5t-65.5 -40t-87.5 -14.5q-65 0 -110 22t-79 62l10 15q5 6 11 6
t17 -11.5t30.5 -25.5t49 -25.5t73.5 -11.5q40 0 71.5 11.5t53.5 32.5t33.5 49t11.5 61q0 47 -24.5 73t-61.5 41.5t-79.5 27t-79.5 30t-61.5 49.5t-24.5 86q0 32 12 61.5t35.5 52.5t58 37t78.5 14q51 0 90.5 -16t72.5 -49z" />
    <glyph glyph-name="T" unicode="T" horiz-adv-x="532" 
d="M519 612h-233v-612h-39v612h-234v31h506v-31z" />
    <glyph glyph-name="U" unicode="U" horiz-adv-x="670" 
d="M335 26q48 0 86.5 17t64.5 46.5t40 70t14 87.5v396h39v-396q0 -54 -17 -100.5t-48.5 -81t-76.5 -54t-102 -19.5t-102 19.5t-77 54t-49 81t-17 100.5v396h39v-395q0 -47 14 -87.5t40.5 -70.5t64.5 -47t87 -17z" />
    <glyph glyph-name="V" unicode="V" horiz-adv-x="600" 
d="M584 643l-266 -643h-34l-267 643h29q12 0 15 -9l228 -552q3 -10 6 -19.5t6 -18.5q5 19 12 38l226 552q3 9 15 9h30z" />
    <glyph glyph-name="W" unicode="W" horiz-adv-x="936" 
d="M910 643l-203 -643h-34l-199 574q-2 5 -3.5 10.5t-2.5 10.5q-2 -5 -3 -10.5t-3 -10.5l-199 -574h-34l-205 643h32q13 0 16 -9l167 -547q5 -16 10 -38q2 11 4.5 20.5t4.5 17.5l190 547q4 9 16 9h10q10 0 15 -9l190 -547q3 -8 5.5 -17.5t3.5 -20.5q3 11 5 20.5t4 17.5
l170 547q1 9 14 9h29z" />
    <glyph glyph-name="X" unicode="X" horiz-adv-x="573" 
d="M549 0h-38q-5 0 -8 3t-6 7l-214 303q-2 -8 -4 -10l-209 -293q-3 -4 -6 -7t-8 -3h-36l239 333l-227 310h37q5 0 8 -2.5t5 -4.5l204 -285q3 3 4 6t3 5l196 273q4 3 6.5 5.5t7.5 2.5h37l-228 -308z" />
    <glyph glyph-name="Y" unicode="Y" horiz-adv-x="543" 
d="M291 269v-269h-38v269l-242 374h33q11 0 15 -9l195 -304q5 -9 10.5 -18t7.5 -17q7 20 19 35l192 304q7 9 16 9h34z" />
    <glyph glyph-name="Z" unicode="Z" horiz-adv-x="551" 
d="M513 632q0 -9 -5 -16l-424 -585h427v-31h-478v12q0 10 5 16l425 584h-419v31h469v-11z" />
    <glyph glyph-name="a" unicode="a" horiz-adv-x="445" 
d="M335 226q-134 -5 -197 -34t-63 -82q0 -24 8 -41.5t21.5 -28.5t31 -16.5t35.5 -5.5q57 0 94.5 23t69.5 58v127zM64 393q35 35 74 53.5t88 18.5q74 0 109 -44.5t35 -121.5v-299h-13q-12 0 -14 11l-6 64q-19 -19 -37.5 -34.5t-39 -26t-44.5 -16t-53 -5.5q-23 0 -45 6.5
t-39 20.5t-27.5 36t-10.5 54q0 29 17 53.5t53 42.5t91.5 29t132.5 13v51q0 66 -28 102t-83 36q-34 0 -58 -9.5t-40.5 -21.5t-26.5 -21.5t-16 -9.5q-8 0 -13 7z" />
    <glyph glyph-name="b" unicode="b" horiz-adv-x="507" 
d="M114 98q27 -42 60.5 -59t76.5 -17q85 0 126.5 59t41.5 159q0 99 -38.5 148t-110.5 49q-52 0 -89.5 -24.5t-66.5 -69.5v-245zM114 373q30 44 70 68t96 24q83 0 129.5 -58.5t46.5 -165.5q0 -56 -13 -101.5t-38.5 -78t-62.5 -50t-85 -17.5t-83.5 19.5t-61.5 55.5l-2 -59
q-1 -10 -11 -10h-21v656h36v-283z" />
    <glyph glyph-name="c" unicode="c" horiz-adv-x="433" 
d="M383 401l-3 -3t-4 -1q-5 0 -13 6t-22 13.5t-34.5 14t-49.5 6.5q-81 0 -125.5 -55.5t-44.5 -152.5q0 -100 44.5 -153.5t119.5 -53.5q34 0 57 8t38 17.5t23 17.5t13 8q6 0 9 -5l9 -10q-20 -26 -61 -45t-93 -19q-44 0 -80 16t-61.5 46t-39.5 73.5t-14 99.5q0 52 13.5 95.5
t40 74.5t64.5 48.5t87 17.5q45 0 78.5 -14t58.5 -37z" />
    <glyph glyph-name="d" unicode="d" horiz-adv-x="507" 
d="M394 361q-29 43 -61.5 59.5t-75.5 16.5t-74.5 -15.5t-52.5 -43.5t-31.5 -66t-10.5 -84q0 -106 38.5 -155.5t112.5 -49.5q47 0 86 24t69 69v245zM429 656v-656h-18q-12 0 -13 10l-3 77q-31 -44 -72.5 -68.5t-92.5 -24.5q-86 0 -132.5 57.5t-46.5 176.5q0 50 13 93t38 75
t62.5 50.5t85.5 18.5t82.5 -17.5t61.5 -53.5v262h35z" />
    <glyph glyph-name="e" unicode="e" horiz-adv-x="480" 
d="M402 274q0 39 -11 69.5t-30.5 51.5t-46.5 32.5t-58 11.5q-75 0 -117.5 -44.5t-50.5 -120.5h314zM87 246q-3 -42 6 -82t30 -71.5t54.5 -50.5t81.5 -19q36 0 62 8t44 17t28 17t13 8q6 0 10 -5l7 -10q-10 -13 -27 -24.5t-39.5 -20.5t-48 -14t-51.5 -5q-95 0 -150.5 63.5
t-55.5 180.5q0 50 13.5 91.5t40 71.5t64.5 47t86 17q38 0 71 -13t57 -39t37.5 -64t13.5 -87q0 -16 -9 -16h-338z" />
    <glyph glyph-name="f" unicode="f" horiz-adv-x="313" 
d="M104 0v401l-67 3q-5 1 -8.5 3t-3.5 8v13h79v61q0 79 37.5 117.5t99.5 38.5q28 0 54 -8l-1 -17q-1 -8 -12 -4.5t-37 3.5q-46 0 -76 -29.5t-30 -101.5v-60h153v-26h-151v-402h-37z" />
    <glyph glyph-name="g" unicode="g" horiz-adv-x="469" 
d="M225 197q63 0 95.5 33t32.5 87q0 55 -33.5 89t-94.5 34q-60 0 -94 -34t-34 -89q0 -54 34 -87t94 -33zM401 -33q0 34 -25 49t-62 20t-80 6t-79 7q-38 -14 -62 -37.5t-24 -56.5q0 -43 42.5 -71.5t120.5 -28.5q35 0 66 8t54 23t36 35.5t13 45.5zM442 438v-12q0 -11 -11 -12
l-78 -3q33 -36 33 -93q0 -66 -44 -106t-117 -40q-40 0 -73 14q-20 -11 -32.5 -27t-12.5 -32q0 -28 24.5 -39t61 -14.5t79 -4.5t79 -9t61 -27.5t24.5 -60.5q0 -28 -14.5 -54t-41 -46t-64.5 -32t-86 -12q-96 0 -144.5 36t-48.5 87q0 36 24.5 63t67.5 42q-24 8 -38.5 22.5
t-14.5 40.5q0 18 15 40t41 36q-68 39 -68 123q0 66 43.5 106.5t117.5 40.5q61 0 100 -27h117z" />
    <glyph glyph-name="h" unicode="h" horiz-adv-x="507" 
d="M114 376q32 41 74 65t93 24q77 0 114.5 -46t37.5 -127v-292h-36v292q0 68 -30.5 106.5t-93.5 38.5q-48 0 -87.5 -24.5t-71.5 -68.5v-344h-36v656h36v-280z" />
    <glyph glyph-name="i" unicode="i" horiz-adv-x="202" 
d="M119 457v-457h-36v457h36zM138 610q0 -16 -11 -26t-25 -10q-16 0 -27 10t-11 26q0 14 11 24.5t27 10.5q14 0 25 -10.5t11 -24.5z" />
    <glyph glyph-name="j" unicode="j" horiz-adv-x="202" 
d="M119 457v-521q0 -46 -26.5 -76.5t-79.5 -30.5q-12 0 -22 2t-21 6l3 20q2 7 9 3t26 -4q38 0 56.5 21t18.5 59v521h36zM138 610q0 -16 -11.5 -26t-25.5 -10q-15 0 -26 10t-11 26q0 14 11 24.5t26 10.5q14 0 25.5 -10.5t11.5 -24.5z" />
    <glyph glyph-name="k" unicode="k" horiz-adv-x="433" 
d="M114 656v-398h21q7 0 12.5 1.5t12.5 8.5l192 179q4 5 8.5 7.5t12.5 2.5h32l-209 -195q-5 -4 -8.5 -6.5t-8.5 -6.5q7 -2 12.5 -7t10.5 -10l220 -232h-31q-7 0 -11.5 1.5t-9.5 7.5l-201 211q-8 8 -14.5 11t-20.5 3h-20v-234h-36v656h36z" />
    <glyph glyph-name="l" unicode="l" horiz-adv-x="200" 
d="M118 656v-656h-37v656h37z" />
    <glyph glyph-name="m" unicode="m" horiz-adv-x="740" 
d="M78 0v457h18q11 0 13 -10l3 -71q27 41 62 65t78 24q52 0 82.5 -30.5t41.5 -85.5q15 60 55.5 88t89.5 28q68 0 106.5 -44t38.5 -129v-292h-36v292q0 72 -30 108.5t-87 36.5q-24 0 -46.5 -9t-40 -27t-27.5 -45.5t-10 -63.5v-292h-36v292q0 70 -27.5 107.5t-80.5 37.5
q-40 0 -72.5 -24.5t-58.5 -66.5v-346h-36z" />
    <glyph glyph-name="n" unicode="n" horiz-adv-x="507" 
d="M112 373q32 43 74.5 67.5t94.5 24.5q77 0 114.5 -46t37.5 -127v-292h-36v292q0 68 -30.5 106.5t-93.5 38.5q-48 0 -87.5 -24.5t-71.5 -68.5v-344h-36v457h18q11 0 13 -10z" />
    <glyph glyph-name="o" unicode="o" horiz-adv-x="512" 
d="M256 465q49 0 87.5 -17t65 -47.5t40.5 -74t14 -97.5t-14 -97.5t-40.5 -74t-65 -47t-87.5 -16.5q-98 0 -151.5 63.5t-53.5 171.5q0 54 13.5 97.5t40 74t64.5 47.5t87 17zM256 23q85 0 128 56.5t43 149.5q0 95 -43 151.5t-128 56.5q-86 0 -127.5 -56.5t-41.5 -151.5
q0 -93 41.5 -149.5t127.5 -56.5z" />
    <glyph glyph-name="p" unicode="p" horiz-adv-x="508" 
d="M114 98q27 -42 59.5 -59t77.5 -17q42 0 73.5 15.5t52.5 43t31.5 66t10.5 84.5q0 107 -38.5 156.5t-113.5 49.5q-47 0 -85.5 -24.5t-67.5 -69.5v-245zM112 372q31 43 72 68t92 25q86 0 133 -58t47 -176q0 -50 -13 -93t-38 -75t-62.5 -50.5t-85.5 -18.5t-82.5 18t-60.5 53
v-229h-36v621h18q11 0 13 -10z" />
    <glyph glyph-name="q" unicode="q" horiz-adv-x="507" 
d="M394 361q-28 41 -61 58.5t-76 17.5t-74.5 -15.5t-52.5 -43.5t-31.5 -66t-10.5 -84q0 -106 38.5 -155.5t112.5 -49.5q47 0 86 24t69 69v245zM429 457v-621h-35v250q-32 -43 -72.5 -67.5t-91.5 -24.5q-86 0 -132.5 57.5t-46.5 176.5q0 50 13 93t38 75t62.5 50.5t85.5 18.5
q95 0 145 -75l3 57q2 10 13 10h18z" />
    <glyph glyph-name="r" unicode="r" horiz-adv-x="324" 
d="M112 341q20 60 55 92t91 32q15 0 29 -2t25 -10l-5 -22q-2 -7 -7 -7t-15.5 3.5t-30.5 3.5q-56 0 -87.5 -33.5t-52.5 -100.5v-297h-36v457h18q13 0 13 -11z" />
    <glyph glyph-name="s" unicode="s" horiz-adv-x="392" 
d="M326 405q-2 -3 -3.5 -4.5t-5.5 -1.5q-5 0 -13 6t-21 13t-32.5 13t-47.5 6q-53 0 -84 -27.5t-31 -64.5q0 -30 19 -47t47.5 -28.5t62 -20.5t62 -23t47.5 -36t19 -59q0 -29 -10.5 -54t-30.5 -43.5t-49.5 -29.5t-67.5 -11q-48 0 -82 14.5t-62 40.5l9 13q2 2 4 3.5t7 1.5
t13.5 -7t23 -16t36 -16t53.5 -7q61 0 91.5 30.5t30.5 75.5q0 32 -19 50t-48 29.5t-62 20.5t-62 22.5t-48 35t-19 59.5q0 24 10.5 46t30 39t47 27t62.5 10q41 0 72.5 -12t58.5 -35z" />
    <glyph glyph-name="t" unicode="t" horiz-adv-x="314" 
d="M199 -7q-45 0 -70 24t-25 77v317h-68q-11 0 -11 8v13l80 5l8 170q4 8 12 8h15v-178h147v-26h-147v-315q0 -40 19.5 -57.5t46.5 -17.5q17 0 30 5t22 11.5t14.5 11.5t8.5 5q4 0 8 -4l9 -14q-17 -20 -43.5 -31.5t-55.5 -11.5z" />
    <glyph glyph-name="u" unicode="u" horiz-adv-x="506" 
d="M428 457v-457h-17q-12 0 -14 10l-3 75q-32 -42 -74 -67t-94 -25q-77 0 -114.5 45.5t-37.5 126.5v292h36v-292q0 -68 30 -106t94 -38q47 0 87 24t72 68v344h35z" />
    <glyph glyph-name="v" unicode="v" horiz-adv-x="461" 
d="M441 457l-195 -457h-31l-195 457h27q6 0 9 -3t5 -6l158 -376q9 -19 12 -35q3 18 10 35l158 376q5 9 15 9h27z" />
    <glyph glyph-name="w" unicode="w" horiz-adv-x="702" 
d="M677 457l-152 -457h-27q-8 0 -9 9l-131 384q-5 13 -6 24q-2 -5 -3.5 -11t-3.5 -13l-131 -384q-3 -9 -12 -9h-22l-156 457h27q6 0 10 -3t5 -6l122 -376q2 -9 4 -17.5t3 -17.5q3 9 5 17.5t6 17.5l128 378q3 10 10 10h16q8 0 10 -10l128 -378q2 -9 4.5 -17.5t4.5 -17.5
q2 9 4 17t4 18l122 376q7 9 14 9h26z" />
    <glyph glyph-name="x" unicode="x" horiz-adv-x="427" 
d="M406 0h-34q-11 0 -15 10l-145 207q-1 -5 -2 -7t-2 -7l-140 -193q-2 -4 -5.5 -7t-8.5 -3h-32l167 233l-161 224h35q5 0 7.5 -3t5.5 -5l139 -198q2 8 7 13l131 184q3 3 5.5 6t7.5 3h33l-160 -222z" />
    <glyph glyph-name="y" unicode="y" horiz-adv-x="461" 
d="M443 457l-265 -607q-4 -6 -7.5 -10t-11.5 -4h-25l80 179l-195 442h29q8 0 11.5 -3t5.5 -6l160 -371q3 -8 4.5 -13t3.5 -13q2 7 4 12.5t5 13.5l158 371q5 9 15 9h28z" />
    <glyph glyph-name="z" unicode="z" horiz-adv-x="407" 
d="M375 444q0 -10 -6 -14l-295 -401h289v-29h-333v13q0 4 2 7t4 8l296 402h-286v27h329v-13z" />
    <glyph glyph-name="zero.onum" horiz-adv-x="585" 
d="M527 252q0 -62 -18.5 -110t-51 -80.5t-75 -49t-90.5 -16.5t-90.5 16.5t-74.5 49t-50.5 80.5t-18.5 110q0 61 18.5 109t50.5 80t74.5 49t90.5 17t90.5 -17t75 -49t51 -80t18.5 -109zM490 252q0 56 -16 98.5t-43 71t-63 42.5t-76 14q-39 0 -75 -14t-63.5 -42.5t-43.5 -71
t-16 -98.5q0 -58 16 -101t43.5 -71.5t63.5 -42.5t75 -14q40 0 76 14t63 42.5t43 71.5t16 101z" />
    <glyph glyph-name="one.onum" horiz-adv-x="339" 
d="M241 504v-504h-35v434v14t1 14l-146 -103q-12 -8 -20 2l-10 17l184 126h26z" />
    <glyph glyph-name="two.onum" horiz-adv-x="499" 
d="M439 31q16 0 16 -13v-18h-409v21l219 162q55 42 86 83t31 92q0 53 -35 86t-92 33q-35 0 -61 -10.5t-44 -27.5t-29 -38.5t-17 -44.5q-3 -11 -13 -11q-3 0 -5 2l-18 3q6 30 20 58.5t37 50t55.5 34.5t74.5 13q72 0 116 -40.5t44 -106.5q0 -55 -34.5 -102t-89.5 -90
l-194 -141q14 3 29.5 4t30.5 1h282z" />
    <glyph glyph-name="three.onum" horiz-adv-x="484" 
d="M66 350q6 30 19 58.5t35 50t54 34.5t74 13q33 0 63 -9t52 -27.5t35 -46t13 -64.5q0 -56 -33.5 -92.5t-84.5 -48.5q69 -9 102 -48t33 -99q0 -33 -13.5 -62.5t-38.5 -52t-59.5 -36t-76.5 -13.5q-51 0 -84.5 13.5t-55.5 35t-34 47.5t-19 52l18 6q12 4 17 -5
q6 -21 16.5 -42.5t28.5 -39t45 -28t68 -10.5q34 0 62.5 11t48.5 29.5t31.5 43t11.5 51.5q0 29 -9 53t-29.5 41t-53.5 27t-81 11v24q72 2 115 35.5t43 92.5q0 32 -11 55t-29 38t-41.5 22t-49.5 7q-34 0 -59 -10t-43 -27t-28.5 -38.5t-16.5 -45.5q-3 -11 -11 -11q-2 0 -3 1
t-3 1z" />
    <glyph glyph-name="four.onum" horiz-adv-x="528" 
d="M344 105v326v12.5t2 13.5l-279 -352h277zM492 105v-18q0 -10 -11 -10h-106v-164h-31v164h-303q-4 0 -7.5 2.5t-3.5 6.5l-2 16l317 402h30v-399h117z" />
    <glyph glyph-name="five.onum" horiz-adv-x="455" 
d="M108 266q56 13 106 13q46 0 81 -12.5t58.5 -35.5t35.5 -55t12 -70q0 -47 -16.5 -83.5t-44.5 -62t-65 -39t-78 -13.5q-49 0 -88.5 15.5t-64.5 34.5l9 13q4 4 9 5.5t10 -2.5q22 -15 54 -26t71 -11q36 0 67 11.5t54 33t36.5 52.5t13.5 71q0 65 -39.5 106t-122.5 41
q-24 0 -51 -4t-58 -12l-23 7l47 257h273v-17q0 -5 -3.5 -10t-12.5 -5h-232z" />
    <glyph glyph-name="six.onum" horiz-adv-x="495" 
d="M248 21q39 0 70.5 12.5t53 34t33 50.5t11.5 62q0 74 -43.5 116t-112.5 42q-41 0 -73 -14t-53.5 -36t-33 -49t-11.5 -54q0 -35 11.5 -65t32 -52t50 -34.5t65.5 -12.5zM118 293q25 34 63.5 52.5t84.5 18.5q40 0 74 -13t58.5 -36.5t38 -57.5t13.5 -76q0 -41 -15 -75.5
t-42 -59.5t-64 -39t-81 -14q-43 0 -78.5 13.5t-61 39.5t-39.5 63.5t-14 84.5q0 34 18.5 79.5t60.5 102.5l170 225q6 12 22 12h29l-184 -242q-18 -22 -31 -40.5t-22 -37.5z" />
    <glyph glyph-name="seven.onum" horiz-adv-x="447" 
d="M430 500v-15q0 -10 -4 -19l-270 -541q-5 -12 -19 -12h-25l271 537q4 6 6.5 10.5t5.5 7.5h-353q-5 0 -9.5 3t-4.5 9v20h402z" />
    <glyph glyph-name="eight.onum" horiz-adv-x="507" 
d="M254 20q34 0 63 10t50 28.5t32.5 44t11.5 57.5q0 42 -15 69.5t-38.5 44t-51 23t-52.5 6.5t-52.5 -6.5t-51 -23t-38.5 -44t-15 -69.5q0 -63 42.5 -101.5t114.5 -38.5zM254 588q-32 0 -57.5 -10t-43.5 -27t-27.5 -40.5t-9.5 -50.5q0 -25 8 -48.5t25 -41.5t43 -29t62 -11
q35 0 61 11t43 29t25.5 41.5t8.5 48.5q0 27 -9.5 50.5t-27.5 40.5t-43.5 27t-57.5 10zM313 318q28 -6 52.5 -18.5t42.5 -32t28 -46t10 -61.5q0 -39 -14.5 -69.5t-40 -52.5t-60.5 -33.5t-77 -11.5q-43 0 -78 11.5t-60.5 33.5t-39.5 52.5t-14 69.5q0 35 10 61.5t28 46t42 32
t52 18.5q-54 14 -83 52.5t-29 91.5q0 31 12 59t34.5 49t54 33.5t71.5 12.5q39 0 71 -12.5t54.5 -33.5t34.5 -49t12 -59q0 -53 -29.5 -91.5t-83.5 -52.5z" />
    <glyph glyph-name="nine.onum" horiz-adv-x="459" 
d="M75 334q0 -66 39.5 -104.5t105.5 -38.5q37 0 66.5 13t49.5 34t30.5 46.5t10.5 50.5q0 33 -11 59t-30.5 45t-46.5 29t-58 10q-36 0 -64.5 -11t-49 -30.5t-31.5 -46t-11 -56.5zM305 158q17 23 31 44t23 41q-23 -37 -62.5 -58t-86.5 -21q-37 0 -68 12t-53.5 34t-35.5 53
t-13 69q0 37 14.5 69t40 55.5t60.5 37t76 13.5q39 0 72 -12.5t57 -35.5t37 -55.5t13 -72.5q0 -45 -19.5 -88t-56.5 -97l-155 -223q-5 -4 -10 -7t-13 -3h-27z" />
    <glyph glyph-name="zero.tnum" horiz-adv-x="535" 
d="M501 325q0 -86 -18.5 -148.5t-50 -103t-74 -60.5t-90.5 -20t-90.5 20t-74 60.5t-50 103t-18.5 148.5t18.5 149t50 104t74 61t90.5 20t90.5 -20t74 -61t50 -104t18.5 -149zM464 325q0 81 -16 138.5t-43 94.5t-62.5 54t-74.5 17q-40 0 -76 -17t-63 -54t-42.5 -94.5
t-15.5 -138.5t15.5 -138t42.5 -93.5t63 -53.5t76 -17q39 0 74.5 17t62.5 53.5t43 93.5t16 138z" />
    <glyph glyph-name="one.tnum" horiz-adv-x="535" 
d="M458 27v-27h-334v27h152v548q0 18 4 33l-151 -135q-6 -5 -11.5 -4t-8.5 5l-11 14l188 166h27v-627h145z" />
    <glyph glyph-name="two.tnum" horiz-adv-x="535" 
d="M460 33q12 0 12 -12v-21h-417v12q0 9 8 17l225 228q28 28 52 55t42 54t28 56t10 62q0 37 -12.5 64.5t-33.5 45.5t-48 26.5t-56 8.5q-66 0 -107.5 -36.5t-52.5 -96.5q-4 -16 -20 -14l-17 3q11 82 64.5 128t132.5 46q37 0 71 -10.5t59.5 -32.5t41 -54.5t15.5 -76.5
q0 -38 -11.5 -70t-31 -61t-45 -56t-53.5 -55l-211 -215q28 5 60 5h295z" />
    <glyph glyph-name="three.tnum" horiz-adv-x="535" 
d="M75 485q6 41 22.5 73t42.5 54.5t60 34.5t74 12q37 0 69.5 -10t57.5 -30.5t39.5 -51.5t14.5 -73q0 -32 -10.5 -58t-29 -45.5t-43 -32.5t-52.5 -20q75 -11 113.5 -53.5t38.5 -107.5q0 -39 -16 -73t-43.5 -58.5t-65.5 -38.5t-82 -14q-57 0 -94.5 15.5t-61.5 39.5t-36.5 53.5
t-18.5 57.5l13 6q5 2 12.5 1t10.5 -11q3 -8 10 -29.5t25.5 -44.5t51.5 -41t88 -18q42 0 74.5 14.5t54 37t32.5 49.5t11 53q0 31 -10 57.5t-33 46t-59.5 30.5t-90.5 12v25q85 2 130 41t45 102q0 36 -12 62t-32 43.5t-46.5 25.5t-55.5 8q-65 0 -108 -36.5t-54 -96.5
q-4 -15 -18 -14z" />
    <glyph glyph-name="four.tnum" horiz-adv-x="535" 
d="M351 220v357v14t1 14l-293 -385h292zM506 220v-19q0 -10 -11 -10h-114v-191h-30v191h-314q-11 0 -13 8l-4 17l330 436h31v-432h125z" />
    <glyph glyph-name="five.tnum" horiz-adv-x="535" 
d="M138 390q32 8 60.5 12t53.5 4q51 0 89.5 -14.5t64.5 -40.5t39.5 -61.5t13.5 -77.5q0 -52 -18 -93t-48.5 -69t-71 -42.5t-86.5 -14.5q-54 0 -96.5 17t-70.5 37l12 15q2 6 11 6q6 0 17 -7t29 -15t43 -15t58 -7q39 0 72 12.5t58 36t39 58.5t14 80q0 73 -42.5 119.5
t-131.5 46.5q-28 0 -57.5 -4t-63.5 -15l-25 9l50 284h291v-15q0 -17 -21 -17h-243z" />
    <glyph glyph-name="six.tnum" horiz-adv-x="535" 
d="M267 22q41 0 74 12.5t56 35t35.5 53.5t12.5 68q0 39 -12.5 70t-34.5 53t-52.5 33.5t-67.5 11.5q-42 0 -75 -14.5t-56 -38t-35 -52.5t-12 -59q0 -38 11.5 -69.5t33.5 -54.5t53 -36t69 -13zM131 311q25 35 66.5 55t90.5 20q42 0 78 -14t61.5 -39t40 -60.5t14.5 -78.5
q0 -44 -15.5 -81t-44 -63.5t-68 -41.5t-87.5 -15q-45 0 -82 14.5t-64 41.5t-41.5 66.5t-14.5 90.5q0 38 19.5 85t63.5 108l181 244q4 8 19 8h33l-196 -256q-18 -24 -31.5 -44t-22.5 -40z" />
    <glyph glyph-name="seven.tnum" horiz-adv-x="535" 
d="M491 651v-16q0 -6 -1.5 -10.5l-2.5 -7.5l-306 -604q-6 -13 -23 -13h-23l306 601q4 5 6.5 9.5t6.5 8.5h-384q-11 0 -11 10v22h432z" />
    <glyph glyph-name="eight.tnum" horiz-adv-x="535" 
d="M268 21q78 0 125.5 40.5t47.5 110.5q0 44 -16.5 73.5t-42 47t-56 24.5t-58.5 7t-58.5 -7t-56 -24.5t-42.5 -47t-17 -73.5q0 -35 12.5 -63t35.5 -47.5t55 -30t71 -10.5zM268 631q-36 0 -64 -10.5t-47.5 -29t-30 -44t-10.5 -54.5q0 -27 9 -52t28 -44.5t47.5 -31t67.5 -11.5
t67.5 11.5t47 31t27.5 44.5t9 52q0 29 -10 54.5t-29.5 44t-47.5 29t-64 10.5zM330 340q31 -7 58.5 -20t47 -34t31 -49.5t11.5 -65.5q0 -42 -15.5 -75t-43 -56t-66.5 -35t-85 -12q-47 0 -85.5 12t-66 35t-43 56t-15.5 75q0 37 11 65.5t31 49.5t46.5 34t58.5 20q-60 15 -92 56
t-32 97q0 35 13 65.5t37 53t58.5 35t78.5 12.5q43 0 77.5 -12.5t58.5 -35t37 -53t13 -65.5q0 -56 -32 -97t-92 -56z" />
    <glyph glyph-name="nine.tnum" horiz-adv-x="535" 
d="M99 468q0 -76 43.5 -118.5t114.5 -42.5q41 0 73 14t54 36.5t33.5 50t11.5 55.5q0 37 -12 67.5t-33.5 52.5t-51 34t-64.5 12q-38 0 -69 -12t-53 -33t-34.5 -50.5t-12.5 -65.5zM350 271q17 25 30 44t24 38q-26 -34 -67.5 -54.5t-88.5 -20.5q-41 0 -74.5 13.5t-58.5 38.5
t-38.5 59.5t-13.5 75.5t15.5 76.5t43 61.5t65 41t82.5 15q42 0 78 -14.5t62 -41.5t40.5 -64t14.5 -82q0 -50 -21.5 -93.5t-59.5 -99.5l-174 -256q-6 -8 -18 -8h-34z" />
    <glyph glyph-name="comma" unicode="," horiz-adv-x="200" 
d="M67 -109q-3 1 -3 6q0 1 1 2t2 3q4 5 12 14.5t15.5 22.5t13.5 29t8 34q-5 -3 -9 -3.5t-9 -0.5q-15 1 -25 10.5t-10 26.5q0 15 10.5 25.5t27.5 10.5t27.5 -12.5t10.5 -33.5q0 -37 -17.5 -74.5t-49.5 -65.5z" />
    <glyph glyph-name="semicolon" unicode=";" horiz-adv-x="230" 
d="M81 -109q-2 1 -2 6q0 3 2 5q4 5 11.5 14.5t15 22.5t13.5 29t8 34q-4 -3 -9 -3.5t-10 -0.5q-14 1 -23 10.5t-9 26.5q0 15 9.5 25.5t26.5 10.5q18 0 28.5 -12.5t10.5 -33.5q0 -37 -17.5 -74.5t-49.5 -65.5zM76 404q0 17 10.5 28.5t27.5 11.5t29 -11.5t12 -28.5
q0 -16 -12 -27t-29 -11t-27.5 11t-10.5 27z" />
    <glyph glyph-name="question" unicode="?" horiz-adv-x="396" 
d="M44 581q25 25 61.5 44t87.5 19q31 0 59.5 -9.5t50 -27t34 -43t12.5 -57.5q0 -35 -11 -60.5t-28 -45t-36.5 -34t-36.5 -27.5t-29 -26.5t-13 -29.5l-4 -75h-24l-3 80q-1 18 10 32.5t27.5 28t36.5 27.5t36.5 32t28 41t11.5 55q0 26 -10 46.5t-27.5 35t-40 22t-46.5 7.5
q-31 0 -53.5 -8.5t-38 -19t-24.5 -19t-12 -8.5q-5 0 -7 5zM138 31q0 17 11 28.5t29 11.5q17 0 28 -11.5t11 -28.5t-11 -27.5t-28 -10.5q-18 0 -29 10.5t-11 27.5z" />
    <glyph glyph-name="ampersand" unicode="&#x26;" horiz-adv-x="637" 
d="M229 338q-63 -23 -102 -70t-39 -104q0 -37 14 -64t36.5 -44.5t49.5 -26t54 -8.5q69 0 117.5 30.5t83.5 76.5zM621 0h-33q-8 0 -12 1t-11 8l-102 98q-39 -49 -95 -81.5t-131 -32.5q-34 0 -67.5 10.5t-59.5 31.5t-42.5 52.5t-16.5 72.5q0 34 12.5 64.5t34 56t50.5 45.5
t63 32q-35 38 -51.5 70t-16.5 73q0 32 11.5 59t32.5 47t50.5 31.5t65.5 11.5q31 0 58 -10.5t47.5 -28t32.5 -41t13 -49.5l-20 -3q-3 -1 -7 1.5t-5 8.5q-2 12 -10 28t-22.5 31t-36 25t-50.5 10q-56 0 -91 -33.5t-35 -87.5q0 -39 19.5 -72.5t62.5 -73.5l204 -200
q21 34 33.5 70t16.5 70q3 10 10 10h22q-2 -41 -17 -85t-44 -87z" />
    <glyph glyph-name="asterisk" unicode="*" horiz-adv-x="393" 
d="M232 531q-6 -5 -11 -6t-13 -3q30 -7 57.5 -25.5t54.5 -34.5l-9 -18l-76 45q-11 5 -18.5 10t-15.5 15q2 -8 4 -13.5t2 -12.5v-99h-21v84v19.5t4 19.5q-6 -6 -9.5 -8.5t-10.5 -6.5l-88 -52l-9 18l73 44q11 5 19 9t19 7q-9 2 -14 2.5t-10 5.5l-89 52l10 17l77 -43
q10 -6 16 -11t17 -14q-4 9 -4.5 14t-0.5 12v99h21v-84q0 -12 -0.5 -20.5t-5.5 -20.5q7 6 10.5 9.5t10.5 7.5l88 50l10 -16z" />
    <glyph glyph-name="percent" unicode="%" horiz-adv-x="715" 
d="M318 490q0 -41 -11 -71.5t-29.5 -50.5t-42.5 -30.5t-51 -10.5q-29 0 -54 10.5t-44 30.5t-29.5 50.5t-10.5 71.5q0 42 10.5 73t29.5 51.5t44 30.5t54 10q27 0 51.5 -10t43 -30.5t29 -51.5t10.5 -73zM288 490q0 73 -30.5 106.5t-73.5 33.5q-45 0 -76.5 -33t-31.5 -107
t31.5 -105.5t76.5 -31.5q43 0 73.5 31.5t30.5 105.5zM564 637q4 6 14 6h24l-459 -636q-7 -7 -14 -7h-26zM668 154q0 -41 -11 -71t-29.5 -50t-43 -30t-51.5 -10q-28 0 -53 10t-43.5 30t-29 50t-10.5 71q0 42 10.5 72.5t29 51t43.5 30.5t53 10t52.5 -10t43 -30.5t29 -51
t10.5 -72.5zM638 154q0 37 -8.5 63.5t-22.5 43.5t-33 25.5t-41 8.5q-44 0 -75 -34t-31 -107q0 -71 31 -104.5t75 -33.5q22 0 41 8t33 25t22.5 43t8.5 62z" />
    <glyph glyph-name="at" unicode="@" horiz-adv-x="763" 
d="M504 393q-11 3 -23 5t-29 2q-43 0 -78 -17.5t-59.5 -45.5t-38 -63t-13.5 -70q0 -38 19 -64t57 -26q18 0 36 5.5t35 20.5t31.5 41t25.5 67zM497 249q-11 -44 -10.5 -71t9 -42t22.5 -20t31 -5q27 0 52 14t43.5 40t30 63t11.5 84q0 70 -23 122t-62 86t-91 50.5t-109 16.5
q-64 0 -121 -25t-100.5 -69t-69 -106t-25.5 -135q0 -83 26.5 -146t71.5 -105t105 -63.5t128 -21.5q69 0 126 16t105 48q11 5 14 -5l6 -14q-53 -35 -114.5 -53t-136.5 -18t-140.5 24t-114 70t-76.5 113.5t-28 154.5q0 77 27 143t74 114t109.5 75.5t133.5 27.5q61 0 117.5 -19
t100 -56.5t69 -94t25.5 -130.5q0 -51 -13.5 -92.5t-36.5 -71t-53.5 -46t-65.5 -16.5q-43 0 -62.5 24.5t-17.5 68.5q-26 -48 -59 -69t-73 -21q-51 0 -75.5 33t-24.5 81q0 39 15 79t43.5 71.5t70.5 51.5t95 20q47 0 81 -17z" />
    <glyph glyph-name="copyright" unicode="&#xa9;" horiz-adv-x="779" 
d="M527 192q5 0 7 -2l13 -13q-28 -27 -64 -43t-90 -16q-45 0 -82 13.5t-63.5 39t-41 62.5t-14.5 84q0 46 15.5 84t43 64t65.5 40.5t84 14.5q48 0 80.5 -13.5t61.5 -39.5l-10 -11q-2 -1 -3 -2.5t-5 -1.5t-11.5 6t-21.5 13.5t-35.5 14t-54.5 6.5q-78 0 -127.5 -45t-49.5 -130
q0 -42 13 -74t35.5 -53.5t53.5 -32t68 -10.5q25 0 44.5 3t34.5 8.5t28 14t26 19.5zM56 317q0 69 26.5 129.5t71.5 105t106 70.5t130 26q68 0 128.5 -26t105.5 -70.5t71 -105t26 -129.5t-26 -128.5t-71 -103t-105.5 -68t-128.5 -24.5q-69 0 -130 24.5t-106 68t-71.5 103
t-26.5 128.5zM80 317q0 -65 24 -120t66 -95.5t98.5 -63.5t121.5 -23q64 0 120.5 23t98.5 63.5t66 95.5t24 120q0 64 -24 120.5t-66 98.5t-98.5 66.5t-120.5 24.5q-65 0 -121.5 -24.5t-98.5 -66.5t-66 -98.5t-24 -120.5z" />
    <glyph glyph-name="registered" unicode="&#xae;" horiz-adv-x="779" 
d="M373 328q114 0 114 85q0 44 -25.5 62.5t-82.5 18.5h-78v-166h72zM556 123h-30q-7 0 -12 5l-132 166q-3 4 -8.5 7.5t-18.5 3.5h-54v-182h-32v397h110q69 0 105 -25t36 -79q0 -47 -31.5 -73.5t-86.5 -31.5q5 -2 9 -7t8 -11zM56 317q0 69 26.5 129.5t71.5 105t106 70.5
t130 26q68 0 128.5 -26t105.5 -70.5t71 -105t26 -129.5t-26 -128.5t-71 -103t-105.5 -68t-128.5 -24.5q-69 0 -130 24.5t-106 68t-71.5 103t-26.5 128.5zM80 317q0 -65 24 -120t66 -95.5t98.5 -63.5t121.5 -23q64 0 120.5 23t98.5 63.5t66 95.5t24 120q0 64 -24 120.5
t-66 98.5t-98.5 66.5t-120.5 24.5q-65 0 -121.5 -24.5t-98.5 -66.5t-66 -98.5t-24 -120.5z" />
    <glyph glyph-name="trademark" unicode="&#x2122;" horiz-adv-x="684" 
d="M45 643h216v-21h-93v-242h-29v242h-94v21zM601 643v-263h-23v213l1 16l-104 -179q-5 -6 -10 -6h-4q-7 0 -10 6l-108 179l4 -16v-213h-26v263h22q4 0 6 -0.5t5 -4.5l105 -173q1 -7 4 -11q2 2 2 5t2 6l104 173q1 5 9 5h21z" />
    <glyph glyph-name="currency" unicode="&#xa4;" horiz-adv-x="535" 
d="M268 180q27 0 50.5 10.5t41 28t27.5 41t10 50.5t-10 50.5t-27.5 41.5t-41 28t-50.5 10t-50.5 -10t-41 -28t-28 -41.5t-10.5 -50.5t10.5 -50.5t28 -41t41 -28t50.5 -10.5zM440 120l-70 70q-21 -18 -47 -28t-55 -10t-54.5 10t-46.5 27l-73 -71l-18 18l72 73q-37 42 -37 101
q0 56 36 101l-71 71l18 19l72 -72q43 37 102 37q58 0 102 -36l70 72l19 -20l-71 -70q17 -21 27 -47t10 -55q0 -30 -10 -56t-27 -46l71 -71z" />
    <glyph glyph-name="Euro" unicode="&#x20ac;" horiz-adv-x="535" 
d="M8 387h78q14 124 78.5 193.5t168.5 69.5q60 0 100 -19.5t75 -59.5l-10 -12q-4 -7 -9 -7t-14.5 10.5t-27 23t-45 23t-68.5 10.5q-88 0 -143 -59t-68 -173h283v-12q0 -12 -12 -12h-273q-1 -11 -2 -22.5t-1 -23.5v-19t2 -19h243v-12q0 -11 -12 -11h-229q11 -119 67 -176
t142 -57q44 0 73 12t47.5 27t29 27t17.5 12q3 0 7 -4l13 -11q-32 -42 -77.5 -67.5t-110.5 -25.5q-106 0 -169 66t-77 197h-76v23h74v38v23.5t1 22.5h-75v24z" />
    <glyph glyph-name="dollar" unicode="$" horiz-adv-x="535" 
d="M272 23q77 5 119 47t42 107q0 33 -12.5 55t-33 36.5t-47.5 24t-56 18.5zM275 620q-36 -2 -63 -13t-45.5 -29t-27.5 -41.5t-9 -48.5q0 -30 11 -51.5t29.5 -36.5t42.5 -25.5t51 -19.5zM286 347q33 -11 65.5 -22.5t58 -29t41 -44t15.5 -67.5q0 -81 -51 -133.5t-145 -57.5
l-4 -101q0 -14 -12 -14h-13l5 115q-61 2 -104.5 24t-75.5 60l9 14q6 6 11 6q6 0 17 -11t30 -24.5t46.5 -25.5t68.5 -13l13 296q-31 10 -60.5 22t-53 31t-37.5 46t-14 67q0 31 12 60.5t35 52.5t56.5 37t77.5 15l2 80q0 12 13 12h13l-3 -92q46 -3 81 -19.5t64 -47.5l-7 -13
q-5 -6 -12 -6q-5 0 -13.5 8t-23.5 18t-37.5 18.5t-54.5 10.5z" />
    <glyph glyph-name="cent" unicode="&#xa2;" horiz-adv-x="535" 
d="M297 437q-88 -2 -135.5 -57.5t-47.5 -150.5q0 -94 44.5 -147.5t122.5 -58.5zM461 58q-19 -26 -61.5 -44t-97.5 -20l-3 -100q-2 -14 -12 -14h-14l4 114q-44 3 -81 20t-63 47t-40.5 72.5t-14.5 95.5q0 52 15 95t43.5 74t69.5 48.5t93 18.5l6 98q0 13 10 13h14l-5 -112
q41 -2 73 -15.5t55 -34.5l-10 -13q-1 -4 -6 -4q-4 0 -12 5.5t-21.5 12t-33 12.5t-46.5 8l-19 -413q36 1 60.5 9t40.5 17.5t24.5 17t13.5 7.5t7 -5z" />
    <glyph glyph-name="sterling" unicode="&#xa3;" horiz-adv-x="535" 
d="M28 302q0 14 16 14h78v133q0 43 12 80t35.5 64t59 42t82.5 15q35 0 61.5 -8.5t46 -23t33.5 -34t24 -41.5l-15 -7q-11 -8 -20 5q-9 15 -19.5 29.5t-25.5 25.5t-35.5 17.5t-49.5 6.5q-75 0 -113.5 -47.5t-38.5 -123.5v-133h226v-15q0 -10 -12 -10h-214v-144
q0 -44 -17.5 -72t-49.5 -47q18 3 40 3h375v-14q0 -7 -5 -12t-13 -5h-448v24q16 7 30.5 16.5t25.5 23t18 32t7 43.5v152h-94v11z" />
    <glyph glyph-name="yen" unicode="&#xa5;" horiz-adv-x="535" 
d="M294 280h163v-21h-172v-55h172v-24h-172v-180h-35v180h-171v24h171v55h-171v21h164l-197 363h29q12 0 15 -9l166 -311l7 -14t5 -14q2 8 4.5 14t5.5 14l167 311q2 5 6 7t9 2h30z" />
    <glyph glyph-name="estimated" unicode="&#x212e;" horiz-adv-x="772" 
d="M676 358q0 57 -20.5 106t-57.5 84.5t-89 56t-115 20.5q-62 0 -113.5 -20.5t-89 -56t-59.5 -84.5t-25 -106h569zM107 297q0 -50 20.5 -100t60 -89.5t96 -64t128.5 -24.5q82 0 144.5 31.5t107.5 88.5l20 -14q-45 -61 -115 -96.5t-166 -35.5q-80 0 -143.5 26.5t-108.5 71.5
t-69 104.5t-24 125.5q0 71 24.5 131t69 104t106 69t136.5 25q74 0 134 -24t103 -66t66.5 -99.5t25.5 -124.5h-616v-39z" />
    <glyph glyph-name=".ttfautohint" horiz-adv-x="772" 
d="M0 0z" />
  </font>
</defs>
</svg>
